<svg xmlns="http://www.w3.org/2000/svg" width="298.46" height="56.28" viewBox="0 0 298.46 56.28"><defs><clipPath id="a" transform="translate(-534 -352.86)"><path fill="none" d="M534 352.86h298.46V416H534z"/></clipPath></defs><title>google-bites</title><g clip-path="url(#a)"><path fill="#177de4" d="M48.5 20.82H27.93a1.64 1.64 0 0 0-1.64 1.64v6.57a1.64 1.64 0 0 0 1.64 1.64h11.58a15.46 15.46 0 0 1-6.65 7.8l4.94 8.55a24.7 24.7 0 0 0 12.6-21.6 16.72 16.72 0 0 0-.27-3.24 1.65 1.65 0 0 0-1.62-1.36"/><path fill="#12b147" d="M25.2 40.54a15.33 15.33 0 0 1-13.27-7.68L3.4 37.78a25.18 25.18 0 0 0 34.4 9.24l-4.94-8.55a15.22 15.22 0 0 1-7.66 2.07"/><path fill="#0f983d" d="M37.8 47.02l-4.94-8.55a15.22 15.22 0 0 1-7.66 2.07v9.86a25.15 25.15 0 0 0 12.6-3.37"/><path fill="#ffd500" d="M9.86 25.2a15.23 15.23 0 0 1 2.07-7.66L3.4 12.62a25.08 25.08 0 0 0 0 25.17l8.53-4.93a15.23 15.23 0 0 1-2.07-7.66"/><path fill="#ff4a26" d="M25.2 9.86a15.27 15.27 0 0 1 9.74 3.5 1.64 1.64 0 0 0 2.2-.1L41.8 8.6a1.66 1.66 0 0 0-.1-2.4A25.14 25.14 0 0 0 3.37 12.6l8.54 4.92A15.33 15.33 0 0 1 25.2 9.86"/><path fill="#d84021" d="M34.94 13.36a1.64 1.64 0 0 0 2.2-.1L41.8 8.6a1.66 1.66 0 0 0-.1-2.4A25.12 25.12 0 0 0 25.2 0v9.87a15.26 15.26 0 0 1 9.73 3.5"/><path fill="#3fac64" d="M284.1 33.38a3.73 3.73 0 0 0 1.15 1.33 4.88 4.88 0 0 0 1.66.77 7.83 7.83 0 0 0 2 .25 10.27 10.27 0 0 0 1.5-.1 5.18 5.18 0 0 0 1.47-.45 3.23 3.23 0 0 0 1.15-.9 2.27 2.27 0 0 0 .46-1.47 2.07 2.07 0 0 0-.6-1.55 4.83 4.83 0 0 0-1.6-1 15.9 15.9 0 0 0-2.25-.7q-1.25-.3-2.53-.65a22.44 22.44 0 0 1-2.57-.8 8.8 8.8 0 0 1-2.24-1.24 5.8 5.8 0 0 1-1.6-1.9 5.73 5.73 0 0 1-.62-2.74 6.15 6.15 0 0 1 .77-3.14 7 7 0 0 1 2-2.22 8.8 8.8 0 0 1 2.83-1.32 12 12 0 0 1 3.16-.43 14.9 14.9 0 0 1 3.54.42 8.83 8.83 0 0 1 3 1.33 6.74 6.74 0 0 1 2.1 2.35 7.22 7.22 0 0 1 .76 3.47h-5a4.17 4.17 0 0 0-.45-1.74 2.9 2.9 0 0 0-1-1.1 4.25 4.25 0 0 0-1.44-.55 8.8 8.8 0 0 0-1.76-.14 6.1 6.1 0 0 0-1.25.13 3.35 3.35 0 0 0-1.14.46 2.84 2.84 0 0 0-.83.82 2.2 2.2 0 0 0-.33 1.25 2.1 2.1 0 0 0 .26 1.12 2.34 2.34 0 0 0 1 .8 13.1 13.1 0 0 0 2.14.7l3.57.93q.67.13 1.84.48a8.75 8.75 0 0 1 2.32 1.1 7 7 0 0 1 2 2 5.76 5.76 0 0 1 .84 3.24 7.2 7.2 0 0 1-.62 3 6.5 6.5 0 0 1-1.86 2.4 8.94 8.94 0 0 1-3.06 1.55 14.46 14.46 0 0 1-4.23.56 14.85 14.85 0 0 1-3.77-.48 9.46 9.46 0 0 1-3.23-1.5 7.4 7.4 0 0 1-2.22-2.6 7.75 7.75 0 0 1-.78-3.75h5a4.3 4.3 0 0 0 .43 2m-7-17.7v4.33h-12.4v5H276v4h-11.34v5.76h12.67v4.4H259.5v-23.5zm-38.87 4.33v-4.34h19.25v4.34h-7v19.16h-5.17V20.02zm-2 19.16H231v-23.5h5.17zm-17-4a6.94 6.94 0 0 0 1.45-.15 3.57 3.57 0 0 0 1.22-.5 2.48 2.48 0 0 0 .84-.94 3.22 3.22 0 0 0 .3-1.5 3 3 0 0 0-1-2.6 4.36 4.36 0 0 0-2.7-.76h-5.63v6.44zm.36-19.48a14.6 14.6 0 0 1 3.06.3 6.6 6.6 0 0 1 2.37 1 4.52 4.52 0 0 1 1.53 1.8 6.3 6.3 0 0 1 .54 2.75 5.15 5.15 0 0 1-.8 3 5.86 5.86 0 0 1-2.4 1.95 5.65 5.65 0 0 1 3.24 2.2 7.18 7.18 0 0 1 .38 6.83 6 6 0 0 1-1.86 2.12 8.22 8.22 0 0 1-2.67 1.22 12 12 0 0 1-3.08.4h-11.37v-23.5zm-.66 9.5a3.7 3.7 0 0 0 2.27-.65 2.5 2.5 0 0 0 .9-2.13 2.73 2.73 0 0 0-.3-1.35 2.2 2.2 0 0 0-.8-.82 3.33 3.33 0 0 0-1.14-.4 7.6 7.6 0 0 0-1.32-.12h-4.84v5.46zm-22-9.5V20h-12.4v5h11.4v4h-11.4v5.76h12.68v4.38h-17.84v-23.5zm-31.27 0v19.16h11.46v4.32h-16.6v-23.5zm-15.56 23.32a8.66 8.66 0 0 1-3.4.7 12.05 12.05 0 0 1-4.85-.93 10.42 10.42 0 0 1-3.65-2.58 11.45 11.45 0 0 1-2.27-3.87 14.2 14.2 0 0 1-.8-4.8 14.7 14.7 0 0 1 .8-4.88 11.75 11.75 0 0 1 2.27-3.93 10.4 10.4 0 0 1 3.64-2.64 11.87 11.87 0 0 1 4.85-1 11.42 11.42 0 0 1 3.5.54 10 10 0 0 1 3.06 1.6 8.64 8.64 0 0 1 3.35 6.15h-4.94a5 5 0 0 0-1.77-3 5.17 5.17 0 0 0-3.2-1 6 6 0 0 0-3 .67 5.6 5.6 0 0 0-2 1.8 7.94 7.94 0 0 0-1.1 2.6 12.88 12.88 0 0 0-.34 3 12 12 0 0 0 .34 2.87 7.8 7.8 0 0 0 1.1 2.5 5.64 5.64 0 0 0 2 1.8 6 6 0 0 0 3 .67 5 5 0 0 0 5.6-5.07h-5.2v-3.85h9.86v12.8h-3.3l-.52-2.68a7.74 7.74 0 0 1-3.06 2.48M111 22.65a11.74 11.74 0 0 1 2.27-3.94 10.37 10.37 0 0 1 3.64-2.62 12.86 12.86 0 0 1 9.73 0 10.43 10.43 0 0 1 3.62 2.63 11.75 11.75 0 0 1 2.27 3.94 14.7 14.7 0 0 1 .8 4.9 14.2 14.2 0 0 1-.8 4.78 11.45 11.45 0 0 1-2.27 3.87 10.46 10.46 0 0 1-3.62 2.57 13.07 13.07 0 0 1-9.72 0 10.4 10.4 0 0 1-3.63-2.58A11.43 11.43 0 0 1 111 32.3a14.18 14.18 0 0 1-.8-4.8 14.67 14.67 0 0 1 .8-4.88m4.72 7.77a7.76 7.76 0 0 0 1.1 2.53 5.64 5.64 0 0 0 2 1.8 6.84 6.84 0 0 0 5.92 0 5.64 5.64 0 0 0 2-1.8 7.8 7.8 0 0 0 1.1-2.52 12 12 0 0 0 .35-2.87 12.88 12.88 0 0 0-.36-3 7.94 7.94 0 0 0-1.1-2.58 5.6 5.6 0 0 0-2-1.8 6.85 6.85 0 0 0-5.92 0 5.6 5.6 0 0 0-2 1.8 7.92 7.92 0 0 0-1.1 2.58 12.83 12.83 0 0 0-.35 3 11.93 11.93 0 0 0 .35 2.88M86 22.65a11.75 11.75 0 0 1 2.27-3.93 10.4 10.4 0 0 1 3.64-2.62 12.86 12.86 0 0 1 9.74 0 10.4 10.4 0 0 1 3.62 2.63 11.75 11.75 0 0 1 2.27 3.94 14.67 14.67 0 0 1 .8 4.9 14.18 14.18 0 0 1-.8 4.78 11.45 11.45 0 0 1-2.27 3.87 10.45 10.45 0 0 1-3.62 2.57 13.07 13.07 0 0 1-9.73 0 10.42 10.42 0 0 1-3.63-2.58A11.45 11.45 0 0 1 86 32.3a14.2 14.2 0 0 1-.8-4.8 14.7 14.7 0 0 1 .8-4.88m4.72 7.77a7.8 7.8 0 0 0 1.1 2.53 5.64 5.64 0 0 0 2 1.8 6.84 6.84 0 0 0 5.92 0 5.65 5.65 0 0 0 2-1.8 7.78 7.78 0 0 0 1.1-2.52 11.93 11.93 0 0 0 .35-2.87 12.83 12.83 0 0 0-.36-3 7.94 7.94 0 0 0-1.1-2.58 5.6 5.6 0 0 0-2-1.8 6.85 6.85 0 0 0-5.92 0 5.6 5.6 0 0 0-2 1.8 7.94 7.94 0 0 0-1.1 2.58 12.88 12.88 0 0 0-.35 3 12 12 0 0 0 .35 2.88M75.82 39a8.65 8.65 0 0 1-3.38.7 12.06 12.06 0 0 1-4.85-.93 10.4 10.4 0 0 1-3.6-2.63 11.42 11.42 0 0 1-2.27-3.87 14.18 14.18 0 0 1-.8-4.8 14.67 14.67 0 0 1 .8-4.88A11.72 11.72 0 0 1 64 18.65a10.37 10.37 0 0 1 3.64-2.63 11.88 11.88 0 0 1 4.85-1 11.42 11.42 0 0 1 3.5.54 10 10 0 0 1 3.06 1.6 8.63 8.63 0 0 1 3.34 6.15h-4.94a5 5 0 0 0-1.78-3 5.17 5.17 0 0 0-3.2-1 6 6 0 0 0-3 .67 5.6 5.6 0 0 0-2 1.8 7.92 7.92 0 0 0-1.1 2.58 12.83 12.83 0 0 0-.34 3 11.93 11.93 0 0 0 .35 2.88 7.76 7.76 0 0 0 1.1 2.52 5.64 5.64 0 0 0 2 1.8 6 6 0 0 0 3 .66 5 5 0 0 0 5.6-5.07h-5.2v-3.85h9.86v12.82h-3.3l-.52-2.67a7.75 7.75 0 0 1-3.06 2.48"/></g><text fill="#231f20" transform="translate(61.57 53.17)" font-size="10.151" font-family="CenturyGothic, Century Gothic">Presented by Millennium Marketing Solutions</text></svg>