<svg id="Layer_1" data-name="Layer 1" xmlns="http://www.w3.org/2000/svg" xmlns:xlink="http://www.w3.org/1999/xlink" viewBox="0 0 18.08 18.08"><defs><clipPath id="clip-path" transform="translate(-272 -375.92)"><rect x="272" y="375.92" width="18.08" height="18.08" style="fill:none"/></clipPath></defs><title>google-plus</title><g style="clip-path:url(#clip-path)"><path d="M272.32,391.2a2.14,2.14,0,0,0-.22.33A2.93,2.93,0,0,0,275,394h5.51a1.12,1.12,0,0,0,.11-0.48c0-1.35-1.45-2.09-2.44-2.8A6.58,6.58,0,0,0,277,390a4.55,4.55,0,0,0-.5,0,10.38,10.38,0,0,0-2.76.43,4,4,0,0,0-1.46.8m3.89-5.8a2.28,2.28,0,0,0,1.76-.66,2.9,2.9,0,0,0,.69-1.69c0-1.91-1.1-4.87-3.28-4.87a2.45,2.45,0,0,0-1.84.87,3,3,0,0,0-.52,2c0,1.77.93,4.4,3.18,4.4m-1.32,1.06A4.46,4.46,0,0,1,272,385.4v4.69c1.19-1,3.25-.79,4.25-0.85a2.79,2.79,0,0,1-.79-1.8,2.41,2.41,0,0,1,.26-1c-0.29,0-.58.05-0.84,0.05M286.72,382v3.38h-1.43V382h-3.35v-1.4h3.35v-3.35h1.43v3.35h3.36v-1.74a3,3,0,0,0-3-3H275a3,3,0,0,0-3,3v0.06l0.21-.19a6.89,6.89,0,0,1,4.52-1.48h5.55l-1.48,1.19h-1.61a4.25,4.25,0,0,1,1.6,3.35,4.42,4.42,0,0,1-2.13,3.76,1.87,1.87,0,0,0-.73,1.3,1.46,1.46,0,0,0,.68,1.14l0.95,0.74c1.16,1,2.66,2.11,2.66,3.94a3.57,3.57,0,0,1-.13,1.12,1.54,1.54,0,0,1-.85.18h5.87a3,3,0,0,0,3-3v-9h-3.36Z" transform="translate(-272 -375.92)" style="fill:#fff"/></g></svg>