<svg id="Layer_1" data-name="Layer 1" xmlns="http://www.w3.org/2000/svg" width="40" height="40" viewBox="0 0 40 40"><title>icon-pinterest</title><g id="post-pinterest"><path d="M36,0H4A4,4,0,0,0,0,4V36a4,4,0,0,0,4,4H36a4,4,0,0,0,4-4V4A4,4,0,0,0,36,0ZM22,28.4a5.45,5.45,0,0,1-4.2-1.8l-2,6.4-.2.4h0a2.1,2.1,0,0,1-1.8,1,2.22,2.22,0,0,1-2.2-2.2V32h0l.2-.4,3.6-11.2a10.39,10.39,0,0,1-.4-3C15,14,16.8,13,18.4,13c1.4,0,2.8.6,2.8,2.6,0,2.6-1.8,4-1.8,6A2.65,2.65,0,0,0,22,24.2c4.6,0,6.4-3.6,6.4-6.8a8.24,8.24,0,0,0-8.4-8,8.24,8.24,0,0,0-8.4,8,8.27,8.27,0,0,0,1,3.8,1.8,1.8,0,0,1,.2,1,1.89,1.89,0,0,1-2,2,2.1,2.1,0,0,1-1.8-1,12.22,12.22,0,0,1-1.6-6,12.25,12.25,0,0,1,12.4-12,12.25,12.25,0,0,1,12.4,12C32.4,22.8,29.2,28.4,22,28.4Z" style="fill:#fff"/></g></svg>