<svg id="Layer_1" data-name="Layer 1" xmlns="http://www.w3.org/2000/svg" width="40" height="40" viewBox="0 0 40 40"><title>icon-google-plus</title><g id="post-gplus"><path d="M18.4,13.8c0-2-1.2-6-4.2-6-1.2,0-2.6.8-2.6,3.4,0,2.4,1.2,5.8,4,5.8A3.06,3.06,0,0,0,18.4,13.8Zm-1.2,9.8h-.6a14.79,14.79,0,0,0-3.6.6,3.64,3.64,0,0,0-3,3.4c0,2.2,2,4.4,6,4.4,3,0,4.8-2,4.8-4C20.8,26.6,19.8,25.6,17.2,23.6ZM36,0H4A4,4,0,0,0,0,4V36a4,4,0,0,0,4,4H36a4,4,0,0,0,4-4V4A4,4,0,0,0,36,0ZM14.2,34.4c-5.6,0-8.2-3.2-8.2-6a5.27,5.27,0,0,1,3-4.8,13.37,13.37,0,0,1,6.2-1.8,2.65,2.65,0,0,1-.6-2,1.8,1.8,0,0,1,.2-1H14a6.11,6.11,0,0,1-6.4-6c0-3.4,2.6-7.2,8.2-7.2h8.4l-.6.6L22.2,7.6l-.2.2H20.6a6,6,0,0,1,1.8,4.4c0,2.8-1.4,4.2-3.2,5.4a1.68,1.68,0,0,0-.8,1.4,1.35,1.35,0,0,0,.8,1.2,4.37,4.37,0,0,0,1,.6C21.8,22,24,23.4,24,26.6,24,30.2,21.4,34.4,14.2,34.4ZM34,20H30v4H28V20H24V18h4V14h2v4h4Z" transform="translate(0)" style="fill:#fff"/></g></svg>