<svg id="Layer_1" data-name="Layer 1" xmlns="http://www.w3.org/2000/svg" xmlns:xlink="http://www.w3.org/1999/xlink" viewBox="0 0 18.08 18.08"><defs><clipPath id="clip-path" transform="translate(-272 -375.92)"><rect x="272" y="375.92" width="18.08" height="18.08" style="fill:none"/></clipPath></defs><title>facebook</title><g style="clip-path:url(#clip-path)"><path d="M290.08,391V378.89a3,3,0,0,0-3-3H275a3,3,0,0,0-3,3V391a3,3,0,0,0,3,3H281v-5.09c0-1.69-1.14-1.69-1.14-1.69h-1.14v-2.83H281V383a3.57,3.57,0,0,1,3.42-3.7h2.28v2.82h-2.28a0.78,0.78,0,0,0-.57.85v1.45h2.85v2.83h-2.85v5.16A1.46,1.46,0,0,1,282.8,394h4.31a3,3,0,0,0,3-3" transform="translate(-272 -375.92)" style="fill:#fff"/></g></svg>