<svg id="Layer_1" data-name="Layer 1" xmlns="http://www.w3.org/2000/svg" xmlns:xlink="http://www.w3.org/1999/xlink" viewBox="0 0 17.99 18.11"><defs><clipPath id="clip-path" transform="translate(-297 -386.89)"><rect x="297" y="386.89" width="17.99" height="18.11" style="fill:none"/></clipPath></defs><title>instagram</title><g style="clip-path:url(#clip-path)"><path d="M306,398.26a2.34,2.34,0,1,0-2.41-2.34,2.38,2.38,0,0,0,2.41,2.34" transform="translate(-297 -386.89)" style="fill:#fff"/><path d="M308.74,393.65h1.36a0.54,0.54,0,0,0,.54-0.54v-1.3a0.54,0.54,0,0,0-.54-0.54h-1.36a0.54,0.54,0,0,0-.54.54v1.3a0.54,0.54,0,0,0,.54.54" transform="translate(-297 -386.89)" style="fill:#fff"/><path d="M309.74,396a3.74,3.74,0,0,1-7.48,0,3.52,3.52,0,0,1,.16-1h-1.1v5.08a0.48,0.48,0,0,0,.48.48h8.37a0.48,0.48,0,0,0,.48-0.48V395h-1.06a3.52,3.52,0,0,1,.15,1" transform="translate(-297 -386.89)" style="fill:#fff"/><path d="M312,400.41a1.55,1.55,0,0,1-1.54,1.54h-8.94a1.55,1.55,0,0,1-1.54-1.54v-8.94a1.55,1.55,0,0,1,1.54-1.54h8.94a1.55,1.55,0,0,1,1.54,1.54v8.94Zm-0.27-13.53H300.25a3.23,3.23,0,0,0-3.25,3.22v11.67a3.23,3.23,0,0,0,3.25,3.22h11.49a3.23,3.23,0,0,0,3.25-3.22V390.11a3.23,3.23,0,0,0-3.25-3.22" transform="translate(-297 -386.89)" style="fill:#fff"/></g></svg>