<svg id="Layer_1" data-name="Layer 1" xmlns="http://www.w3.org/2000/svg" xmlns:xlink="http://www.w3.org/1999/xlink" viewBox="0 0 18.11 18.11"><defs><clipPath id="clip-path" transform="translate(-297 -386.89)"><rect x="297" y="386.89" width="18.11" height="18.11" style="fill:none"/></clipPath></defs><title>pinterest</title><g style="clip-path:url(#clip-path)"><path d="M312.26,393.89c0,3.71-2.06,6.49-5.11,6.49a2.72,2.72,0,0,1-2.31-1.18s-0.55,2.18-.67,2.6a7.88,7.88,0,0,1-.94,2,1.17,1.17,0,0,1-1.39.18,13.83,13.83,0,0,1,.42-2.73l1.22-5.16a3.64,3.64,0,0,1-.3-1.5c0-1.4.81-2.45,1.83-2.45a1.27,1.27,0,0,1,1.28,1.42,20.26,20.26,0,0,1-.84,3.36,1.47,1.47,0,0,0,1.49,1.82c1.8,0,3-2.3,3-5,0-2.08-1.4-3.63-3.94-3.63a4.48,4.48,0,0,0-4.66,4.53,2.73,2.73,0,0,0,.62,1.86,0.46,0.46,0,0,1,.14.53l-0.19.76a0.33,0.33,0,0,1-.47.24c-1.32-.54-1.94-2-1.94-3.62,0-2.69,2.27-5.91,6.77-5.91a5.66,5.66,0,0,1,6,5.42m2.86,8.14V389.86a3,3,0,0,0-3-3H300a3,3,0,0,0-3,3V402a3,3,0,0,0,3,3h12.17a3,3,0,0,0,3-3" transform="translate(-297 -386.89)" style="fill:#fff"/></g></svg>