<svg xmlns="http://www.w3.org/2000/svg" width="40" height="40"><title>icon-instagram</title><path fill="#fff" d="M5.13 0h29.73A5 5 0 0 1 40 5.13v29.73A5 5 0 0 1 34.85 40H5.13A5 5 0 0 1 0 34.85V5.13A5 5 0 0 1 5.13 0zm24 4.44a1.8 1.8 0 0 0-1.8 1.8v4.3a1.8 1.8 0 0 0 1.8 1.8h4.52a1.8 1.8 0 0 0 1.8-1.8v-4.3a1.8 1.8 0 0 0-1.8-1.8zm6.34 12.47H32a11.7 11.7 0 0 1 .5 3.44 12.44 12.44 0 0 1-24.86 0 11.68 11.68 0 0 1 .5-3.43H4.5v16.9A1.6 1.6 0 0 0 6 35.4h27.85a1.6 1.6 0 0 0 1.6-1.6V16.9zM20 12.14a7.8 7.8 0 1 0 8 7.78 7.9 7.9 0 0 0-8-7.77z"/></svg>