<svg xmlns="http://www.w3.org/2000/svg" width="40" height="40"><title>icon-pinterest</title><path fill="#fff" d="M36 0H4a4 4 0 0 0-4 4v32a4 4 0 0 0 4 4h32a4 4 0 0 0 4-4V4a4 4 0 0 0-4-4zM22 28.4a5.45 5.45 0 0 1-4.2-1.8l-2 6.4-.2.4a2.1 2.1 0 0 1-1.8 1 2.22 2.22 0 0 1-2.2-2.2V32l.2-.4 3.6-11.2a10.4 10.4 0 0 1-.4-3c0-3.4 1.8-4.4 3.4-4.4 1.4 0 2.8.6 2.8 2.6 0 2.6-1.8 4-1.8 6a2.65 2.65 0 0 0 2.6 2.6c4.6 0 6.4-3.6 6.4-6.8a8.24 8.24 0 0 0-8.4-8 8.24 8.24 0 0 0-8.4 8 8.27 8.27 0 0 0 1 3.8 1.8 1.8 0 0 1 .2 1 1.9 1.9 0 0 1-2 2 2.1 2.1 0 0 1-1.8-1 12.22 12.22 0 0 1-1.6-6 12.25 12.25 0 0 1 12.4-12 12.25 12.25 0 0 1 12.4 12c.2 5.6-3 11.2-10.2 11.2z"/></svg>