<svg id="Layer_2" data-name="Layer 2" xmlns="http://www.w3.org/2000/svg" width="1.69in" height="1.05in" viewBox="0 0 121.37 75.24"><title>Mmschool-noshadow</title><rect x="51.44" y="57.8" width="0.82" height="5.32" style="fill:none"/><rect x="32.11" y="57.32" width="0.84" height="5.47" style="fill:none"/><rect x="37.99" y="57.32" width="0.84" height="5.47" style="fill:none"/><path d="M104.66,50.69V43.58H89.07L78.55,61.18a12.88,12.88,0,0,1,7.05-1.59c.49,0,1,.08,1.43.15l4.84-8.28v4.9A6.45,6.45,0,0,1,94.51,56l3.72.34a6.56,6.56,0,0,1,1.47.33v-6Z" transform="translate(-11.36 -37.03)" style="fill:none"/><rect x="76.95" y="57.32" width="0.84" height="1.97" style="fill:none"/><polygon points="71.87 57.53 71.67 57.53 71.37 61.18 72.25 61.18 71.87 57.53" style="fill:none"/><path d="M57.23,59.72a13,13,0,0,1,6.29,1.74,11.86,11.86,0,0,1,1.94-1.08L55.69,43.58H39.77v7.11h5.07v4.52L46.67,55a6,6,0,0,1,5.76,2.69V51.46Z" transform="translate(-11.36 -37.03)" style="fill:none"/><polygon points="46.14 68.69 28.41 68.69 28.41 67.29 21.63 67.29 21.63 75.24 52.92 75.24 52.92 67.29 46.14 67.29 46.14 68.69" style="fill:#e65625"/><path d="M91.88,51.46,87,59.74c.43.06.85.15,1.25.24a5.42,5.42,0,0,1,3.58-3.62Z" transform="translate(-11.36 -37.03)" style="fill:#e65625"/><path d="M56,59.73c.43,0,.86,0,1.28,0l-4.79-8.26v6.25a4.79,4.79,0,0,1,.69,2.17l0,.32A13.75,13.75,0,0,1,56,59.73Z" transform="translate(-11.36 -37.03)" style="fill:#e65625"/><path d="M52.44,90.13h6.5V83.79a14.3,14.3,0,0,1-1.52.18,12.72,12.72,0,0,1-5-.71Z" transform="translate(-11.36 -37.03)" style="fill:#e65625"/><path d="M78.51,83.32a5.59,5.59,0,0,1-.89-.11,5.59,5.59,0,0,1-.89.07l-3.34,0a5.59,5.59,0,0,1-2.5-.6,5.57,5.57,0,0,1-2.49.62l-3.34.07a5.26,5.26,0,0,1-1-.08l3.18,5.34h9.92l3.14-5.21Z" transform="translate(-11.36 -37.03)" style="fill:#e65625"/><path d="M90.17,83.91l-3.34-.23a5.62,5.62,0,0,1-1.35-.25v6.7h6.39V84a5.88,5.88,0,0,1-.72-.13A5.63,5.63,0,0,1,90.17,83.91Z" transform="translate(-11.36 -37.03)" style="fill:#e65625"/><path d="M36.81,56.13l3.73-.46a6.75,6.75,0,0,1,1.21,0,6.75,6.75,0,0,1,1.19-.24l1.9-.19V50.69H39.77V43.58H55.69l9.77,16.79a13.28,13.28,0,0,1,5.37-1.13l.82,0L58.94,37H33V57.24h.92A6.51,6.51,0,0,1,36.81,56.13Z" transform="translate(-11.36 -37.03)" style="fill:#e65625"/><path d="M39.52,85.31a5.66,5.66,0,0,1-1.08.26l-.11,0v4.54h6.5V84.68a5.6,5.6,0,0,1-.88.19l-3.32.41A5.66,5.66,0,0,1,39.52,85.31Z" transform="translate(-11.36 -37.03)" style="fill:#e65625"/><path d="M99.7,84.57v5.57h6.56V85.58a12.74,12.74,0,0,1-3,0A12.89,12.89,0,0,1,99.7,84.57Z" transform="translate(-11.36 -37.03)" style="fill:#e65625"/><path d="M78.55,61.18l10.51-17.6h15.59v7.11h-5v6a5.57,5.57,0,0,1,3.95,4.77h0a6.31,6.31,0,0,1,2.59.91V57.24h5.18V37H85.49L72.62,59.36a12.35,12.35,0,0,1,5.57,2Z" transform="translate(-11.36 -37.03)" style="fill:#e65625"/><polygon points="93.3 67.29 93.3 68.69 75.45 68.69 75.45 67.29 68.67 67.29 68.67 75.24 100.07 75.24 100.07 67.29 93.3 67.29" style="fill:#e65625"/><polygon points="14.16 55.67 12.84 56.94 12.84 59.58 14.25 60.85 15.69 60.96 15.69 62.8 14.86 62.8 14.86 61.63 12.84 61.63 12.84 63.18 14.15 64.45 16.39 64.45 17.71 63.18 17.71 60.51 16.33 59.23 14.86 59.11 14.86 57.32 15.69 57.32 15.69 58.5 17.71 58.5 17.71 56.94 16.29 55.67 14.16 55.67" style="fill:#056596"/><polygon points="19.83 55.67 18.51 56.94 18.51 63.18 19.95 64.45 22.04 64.45 23.37 63.18 23.37 60.7 21.4 60.7 21.4 62.8 20.53 62.8 20.53 57.32 21.4 57.32 21.4 59.04 23.37 59.04 23.37 56.94 22.04 55.67 19.83 55.67" style="fill:#056596"/><polygon points="27.08 59.23 26.24 59.23 26.24 55.67 24.21 55.67 24.21 64.45 26.24 64.45 26.24 60.89 27.08 60.89 27.08 64.45 29.1 64.45 29.1 55.67 27.08 55.67 27.08 59.23" style="fill:#056596"/><path d="M42.79,92.7,41.45,94v6.23l1.33,1.27H45l1.3-1.27V94L45,92.7Zm1.53,7.13h-.84V94.35h.84Z" transform="translate(-11.36 -37.03)" style="fill:#056596"/><path d="M48.67,92.7,47.33,94v6.23l1.33,1.27h2.25l1.3-1.27V94L50.83,92.7Zm1.53,7.13h-.84V94.35h.84Z" transform="translate(-11.36 -37.03)" style="fill:#056596"/><polygon points="43.89 55.67 41.87 55.67 41.87 64.45 45.72 64.45 45.72 62.8 43.89 62.8 43.89 55.67" style="fill:#056596"/><polygon points="65.69 59.92 65.5 59.92 64.79 55.67 62.42 55.67 62.42 64.45 64.27 64.45 64.27 58.88 64.35 58.88 65.19 64.45 65.94 64.45 66.79 58.88 66.87 58.88 66.87 64.45 68.72 64.45 68.72 55.67 66.35 55.67 65.69 59.92" style="fill:#056596"/><path d="M81.67,92.7l-1.24,8.78h2l.17-1.62h1.18l.17,1.62h2L84.6,92.7Zm1.05,5.51L83,94.56h.2l.38,3.65Z" transform="translate(-11.36 -37.03)" style="fill:#056596"/><path d="M86.29,92.7v8.78h2V98h.84v3.5h2V98l-1-.86,1-.84V94L89.76,92.7Zm2.87,3.62h-.84v-2h.84Z" transform="translate(-11.36 -37.03)" style="fill:#056596"/><polygon points="86.21 55.67 84.14 55.67 82.81 59.42 82.79 59.42 82.79 55.67 80.77 55.67 80.77 64.45 82.79 64.45 82.79 60.7 82.81 60.7 84.28 64.45 86.48 64.45 84.45 59.77 86.21 55.67" style="fill:#056596"/><polygon points="88.88 60.63 90.31 60.63 90.31 58.98 88.88 58.98 88.88 57.32 90.58 57.32 90.58 55.67 86.86 55.67 86.86 64.45 90.63 64.45 90.63 62.8 88.88 62.8 88.88 60.63" style="fill:#056596"/><polygon points="90.83 57.32 91.97 57.32 91.97 64.45 93.99 64.45 93.99 57.32 95.13 57.32 95.13 55.67 90.83 55.67 90.83 57.32" style="fill:#056596"/><rect x="95.77" y="55.67" width="2.02" height="8.78" style="fill:#056596"/><polygon points="101.88 59.9 101.85 59.9 100.56 55.67 98.87 55.67 98.87 64.45 100.76 64.45 100.76 60.18 100.79 60.18 102.1 64.45 103.78 64.45 103.78 55.67 101.88 55.67 101.88 59.9" style="fill:#056596"/><polygon points="105.93 55.67 104.58 56.94 104.58 63.18 105.99 64.45 108.22 64.45 109.56 63.18 109.56 59.87 107.03 59.87 107.03 61.52 107.53 61.52 107.53 62.8 106.6 62.8 106.6 57.32 107.53 57.32 107.53 58.96 109.56 58.96 109.56 56.94 108.18 55.67 105.93 55.67" style="fill:#056596"/><path d="M62.13,93.23l-1.3,1.24v6.05l1.3,1.24h2.19l1.26-1.24V94.46l-1.34-1.24Zm1.49,6.92H62.8V94.83h.82Z" transform="translate(-11.36 -37.03)" style="fill:#056596"/><polygon points="55.15 64.73 57.11 64.73 57.11 61.02 58.61 61.02 58.61 59.41 57.11 59.41 57.11 57.8 58.95 57.8 58.95 56.2 55.15 56.2 55.15 64.73" style="fill:#056596"/><path d="M31.86,74.66c-.58-3.33-3.25-5.29-7.07-4.51a5.81,5.81,0,0,0-3.93,2.72,5.62,5.62,0,0,0-4.71-.77c-3.72.91-5.43,4-4.56,7.14l2,7.21,3.26-.86-1.88-7.31a2.43,2.43,0,0,1,2-3A2.27,2.27,0,0,1,20,77l1.72,7.35L25,83.64l-1.6-7.37a2.44,2.44,0,0,1,2.08-3,2.29,2.29,0,0,1,3,1.91l1.44,7.41,3.3-.61Z" transform="translate(-11.36 -37.03)" style="fill:#056596"/><path d="M36.29,67l-.47-3-3.57.58.51,3Z" transform="translate(-11.36 -37.03)" style="fill:#056596"/><path d="M38.46,81.14l-.12-.79-1.84-12-3.5.56,2.15,12.73,3.19-.51Z" transform="translate(-11.36 -37.03)" style="fill:#056596"/><path d="M41.59,61.87l-3.26.44-.34,0,.34,2.37,2.3,16.09L44,80.37Z" transform="translate(-11.36 -37.03)" style="fill:#056596"/><path d="M46.09,80.1l3.33-.37-1.9-18.55-2.68.3-.92.1.92,7.83Z" transform="translate(-11.36 -37.03)" style="fill:#056596"/><path d="M63.55,74.63,60,74.79a3.88,3.88,0,0,1-.6.76,3.68,3.68,0,0,1-.5.42,3.44,3.44,0,0,1-1.72.61A3.73,3.73,0,0,1,53.51,74q5-.41,10.09-.6A6.37,6.37,0,0,0,63.65,72a6.18,6.18,0,0,0-.15-1.11h0l0-.16v0h0a7,7,0,0,0-.24-.69A6.37,6.37,0,0,0,62,68a6.59,6.59,0,0,0-5.52-2.16,7,7,0,0,0-4.09,1.66,6.59,6.59,0,0,0-2.32,5.68,6.9,6.9,0,0,0,7.31,6.17,8.19,8.19,0,0,0,1.51-.26A6.78,6.78,0,0,0,61,78.2,6,6,0,0,0,63.55,74.63ZM56.7,68.76a3.66,3.66,0,0,1,3.52,2.13q-3.37.17-6.74.45A3.67,3.67,0,0,1,56.7,68.76Z" transform="translate(-11.36 -37.03)" style="fill:#056596"/><path d="M76,78.62h.72l0-1.3.13-6.17a5.51,5.51,0,0,0-1.71-4.34,6.22,6.22,0,0,0-4.32-1.47,7.14,7.14,0,0,0-2.3.38,5.43,5.43,0,0,0-3.74,5.49l.05,1.67.18,5.8,3.14-.08h.2q-.06-3.77-.12-7.54a2.36,2.36,0,0,1,2-2.42,3.18,3.18,0,0,1,.62-.07A2.23,2.23,0,0,1,73.27,70a3,3,0,0,1,.17,1q0,3.77,0,7.54Z" transform="translate(-11.36 -37.03)" style="fill:#056596"/><path d="M82.19,71.26a2.43,2.43,0,0,1,2.75-2.32,2.29,2.29,0,0,1,2.4,2.61l-.5,7.53,3.34.25.61-7.45c.29-3.37-1.79-5.95-5.66-6.17a7.46,7.46,0,0,0-1.62.09,5.47,5.47,0,0,0-4.77,5.41l-.08,2.9-.13,4.56,3.34.12Z" transform="translate(-11.36 -37.03)" style="fill:#056596"/><path d="M96.86,67l-3.52-.35L92.17,79.5l3.33.33Z" transform="translate(-11.36 -37.03)" style="fill:#056596"/><path d="M97.34,62.53l-3.59-.35-.28,3.07,3.54.35Z" transform="translate(-11.36 -37.03)" style="fill:#056596"/><path d="M107.75,68.41l-1.15,7.46a2.54,2.54,0,0,1-.35,1,2.51,2.51,0,0,1-2.57,1.09,2.3,2.3,0,0,1-2.15-2.77l1-7.48-2.82-.35-.7-.09-.86,7.39a5.65,5.65,0,0,0,1.56,4.83,6.2,6.2,0,0,0,3.53,1.64,6.55,6.55,0,0,0,3-.24A5.64,5.64,0,0,0,110,76.31L111.26,69Z" transform="translate(-11.36 -37.03)" style="fill:#056596"/><path d="M128,72.11a5.82,5.82,0,0,0-4.72.77,5.61,5.61,0,0,0-3.92-2.72c-3.74-.77-6.59,1.27-7.15,4.5L110.9,82l3.3.61,1.44-7.41a2.42,2.42,0,0,1,3.08-1.89,2.27,2.27,0,0,1,2,2.93l-1.6,7.37,3.28.74L124.08,77a2.44,2.44,0,0,1,3.15-1.77,2.3,2.3,0,0,1,1.9,3l-1.88,7.31,3.26.86,2-7.21C133.39,76,131.8,73,128,72.11Z" transform="translate(-11.36 -37.03)" style="fill:#056596"/><polygon points="38.19 29.38 38.14 29.39 38.09 29.39 38.14 29.39 38.19 29.38" style="fill:#056596"/></svg>