<svg xmlns="http://www.w3.org/2000/svg" width="1.69in" height="1.05in" viewBox="0 0 121.37 75.24"><title>Millennium Marketing School of Marketing</title><path fill="none" d="M51.44 57.8h.82v5.32h-.82zM32.1 57.32h.85v5.47h-.84zM38 57.32h.83v5.47H38zM93.3 13.66v-7.1H77.7l-10.5 17.6a12.88 12.88 0 0 1 7.04-1.6c.5 0 1 .08 1.43.15l4.84-8.27v4.9a6.45 6.45 0 0 1 2.65-.36l3.72.34a6.56 6.56 0 0 1 1.47.34v-6zM76.95 57.32h.84v1.97h-.85zM71.87 57.53h-.2l-.3 3.65h.88l-.38-3.65zM45.87 22.7a13 13 0 0 1 6.3 1.73 11.86 11.86 0 0 1 1.93-1.08l-9.77-16.8H28.4v7.1h5.08v4.53l1.83-.2a6 6 0 0 1 5.77 2.68v-6.23z"/><path fill="#e65625" d="M46.14 68.7H28.4v-1.4h-6.77v7.94h31.3V67.3h-6.8v1.4zM80.52 14.43l-4.88 8.28c.43.07.85.16 1.25.25a5.42 5.42 0 0 1 3.57-3.62zM44.64 22.7c.43 0 .86 0 1.28 0l-4.8-8.26v6.25a4.8 4.8 0 0 1 .7 2.16v.32a13.75 13.75 0 0 1 2.82-.48zM41.08 53.1h6.5v-6.34a14.3 14.3 0 0 1-1.52.18 12.72 12.72 0 0 1-5-.7zM67.15 46.3a5.6 5.6 0 0 1-.9-.12 5.6 5.6 0 0 1-.88.07h-3.34a5.6 5.6 0 0 1-2.5-.6 5.57 5.57 0 0 1-2.5.62l-3.33.07a5.26 5.26 0 0 1-1-.08l3.18 5.34h9.92l3.14-5.2zM78.8 46.88l-3.33-.23a5.62 5.62 0 0 1-1.35-.25v6.7h6.4v-6.13a5.88 5.88 0 0 1-.73-.13 5.63 5.63 0 0 1-1 .04zM25.45 19.1l3.73-.46a6.75 6.75 0 0 1 1.2 0 6.75 6.75 0 0 1 1.2-.24l1.9-.2v-4.54H28.4v-7.1h15.93l9.77 16.78a13.28 13.28 0 0 1 5.37-1.13h.82L47.57-.02H21.64V20.2h.92a6.5 6.5 0 0 1 2.9-1.1zM28.16 48.28a5.66 5.66 0 0 1-1.08.26h-.1v4.54h6.5v-5.43a5.6 5.6 0 0 1-.9.2l-3.3.4a5.66 5.66 0 0 1-1.12.03zM88.34 47.54v5.57h6.56v-4.55a12.74 12.74 0 0 1-3 0 12.9 12.9 0 0 1-3.56-1zM67.2 24.15l10.5-17.6h15.6v7.1h-5v6a5.57 5.57 0 0 1 3.94 4.78 6.3 6.3 0 0 1 2.6.9v-5.12H100V-.02H74.14L61.26 22.33a12.35 12.35 0 0 1 5.57 2zM93.3 67.3v1.4H75.45v-1.4h-6.78v7.94h31.4V67.3H93.3z"/><path fill="#056596" d="M14.16 55.67l-1.32 1.27v2.64l1.4 1.27 1.45.1v1.85h-.84v-1.17h-2.02v1.55l1.3 1.27h2.25l1.3-1.27V60.5l-1.37-1.27-1.47-.12v-1.78h.83v1.18h2v-1.56l-1.4-1.27h-2.14zM19.83 55.67l-1.32 1.27v6.24l1.45 1.27h2.1l1.32-1.27V60.7H21.4v2.1h-.87v-5.48h.87v1.72h1.97v-2.1l-1.33-1.27h-2.2zM27.08 59.23h-.84v-3.56H24.2v8.78h2.04V60.9h.84v3.55h2.02v-8.78h-2.02v3.56zM31.43 55.67l-1.34 1.3v6.23l1.32 1.27h2.22l1.3-1.27v-6.23l-1.3-1.3zm1.53 7.13h-.84v-5.48h.84zM37.3 55.67l-1.33 1.3v6.23l1.33 1.27h2.25l1.3-1.27v-6.23l-1.38-1.3zm1.54 7.13H38v-5.48h.84zM43.9 55.67h-2.03v8.78h3.85V62.8H43.9v-7.13zM65.7 59.92h-.2l-.7-4.25H62.4v8.78h1.85v-5.57h.08l.84 5.57h.74l.85-5.57h.07v5.57h1.85v-8.78h-2.37l-.66 4.25zM70.3 55.67l-1.23 8.78h2l.17-1.62h1.18l.17 1.62h2l-1.36-8.78zm1.06 5.5l.28-3.64h.2l.38 3.65zM74.93 55.67v8.78h2v-3.48h.84v3.5h2v-3.5l-1-.86 1-.83v-2.3l-1.37-1.3zm2.87 3.62h-.84v-2h.84zM86.2 55.67h-2.06l-1.33 3.75v-3.75h-2.03v8.78h2.02V60.7l1.48 3.75h2.2l-2.03-4.68 1.76-4.1zM88.88 60.63h1.43v-1.65H88.9v-1.66h1.7v-1.65h-3.72v8.78h3.77V62.8h-1.75v-2.17zM90.83 57.32h1.14v7.13H94v-7.13h1.13v-1.65h-4.3v1.65zM95.77 55.67h2.02v8.78h-2.03zM101.88 59.9h-.03l-1.3-4.23h-1.68v8.78h1.9v-4.27h.02l1.3 4.27h1.68v-8.78h-1.9v4.23zM105.93 55.67l-1.35 1.27v6.24l1.4 1.27h2.24l1.34-1.27v-3.3h-2.53v1.64h.5v1.28h-.93v-5.48h.93v1.64h2.03v-2.02l-1.38-1.27h-2.25zM50.77 56.2l-1.3 1.24v6.05l1.3 1.23h2.2l1.25-1.24v-6.07l-1.34-1.24zm1.5 6.92h-.83V57.8h.82zM55.15 64.73h1.96v-3.7h1.5V59.4h-1.5v-1.6h1.85v-1.6h-3.8v8.53zM20.5 37.63c-.58-3.33-3.25-5.3-7.07-4.5a5.8 5.8 0 0 0-3.93 2.7 5.62 5.62 0 0 0-4.7-.76c-3.73.9-5.44 4-4.57 7.14l2 7.22 3.26-.86-1.9-7.3a2.43 2.43 0 0 1 2-3 2.27 2.27 0 0 1 3.04 1.7l1.72 7.36 3.28-.7-1.6-7.38a2.44 2.44 0 0 1 2.08-3 2.3 2.3 0 0 1 3 1.9l1.44 7.42 3.3-.6zM24.93 29.97l-.47-3-3.57.58.5 3zM27.1 44.1l-.12-.78-1.84-12-3.5.56L23.8 44.6l3.18-.5zM30.23 24.84l-3.26.44h-.34l.34 2.37 2.3 16.1 3.37-.4zM34.73 43.07l3.33-.37-1.9-18.55-2.68.3-.92.1.92 7.83zM52.2 37.6l-3.56.16a3.88 3.88 0 0 1-.6.76 3.68 3.68 0 0 1-.5.42 3.44 3.44 0 0 1-1.72.6 3.73 3.73 0 0 1-3.67-2.57q5-.4 10.1-.6a6.37 6.37 0 0 0 .04-1.4 6.18 6.18 0 0 0-.16-1.1v-.17a7 7 0 0 0-.24-.7 6.37 6.37 0 0 0-1.26-2.03 6.6 6.6 0 0 0-5.52-2.16 7 7 0 0 0-4.1 1.67 6.6 6.6 0 0 0-2.3 5.68 6.9 6.9 0 0 0 7.3 6.17 8.2 8.2 0 0 0 1.5-.26 6.78 6.78 0 0 0 2.12-.9 6 6 0 0 0 2.55-3.56zm-6.86-5.87a3.66 3.66 0 0 1 3.52 2.13q-3.37.17-6.74.45a3.67 3.67 0 0 1 3.22-2.57zM64.64 41.6h.72v-1.3l.13-6.18a5.5 5.5 0 0 0-1.72-4.34 6.22 6.22 0 0 0-4.32-1.47 7.14 7.14 0 0 0-2.3.4 5.43 5.43 0 0 0-3.74 5.48l.05 1.67.18 5.8 3.14-.08h.2q-.07-3.77-.13-7.54a2.36 2.36 0 0 1 2-2.42 3.18 3.18 0 0 1 .62-.06 2.23 2.23 0 0 1 2.4 1.43 3 3 0 0 1 .18 1q0 3.77 0 7.54zM70.83 34.23a2.43 2.43 0 0 1 2.75-2.32 2.3 2.3 0 0 1 2.4 2.62l-.5 7.53 3.34.25.6-7.45c.3-3.37-1.78-5.95-5.65-6.17a7.46 7.46 0 0 0-1.62.1 5.47 5.47 0 0 0-4.77 5.4l-.08 2.9-.13 4.56 3.34.12zM85.5 29.97l-3.52-.35-1.17 12.85 3.34.33zM85.98 25.5l-3.6-.35-.27 3.07 3.55.35zM96.4 31.38l-1.16 7.46a2.54 2.54 0 0 1-.35 1 2.5 2.5 0 0 1-2.58 1.1 2.3 2.3 0 0 1-2.15-2.78l1-7.48-2.82-.35-.7-.1-.86 7.4a5.65 5.65 0 0 0 1.55 4.83 6.2 6.2 0 0 0 3.53 1.64 6.55 6.55 0 0 0 3-.24 5.64 5.64 0 0 0 3.76-4.58l1.26-7.3zM116.64 35.08a5.82 5.82 0 0 0-4.72.77 5.6 5.6 0 0 0-3.92-2.72c-3.74-.77-6.6 1.27-7.15 4.5l-1.3 7.34 3.3.6 1.43-7.4a2.42 2.42 0 0 1 3.08-1.9 2.27 2.27 0 0 1 2 2.94l-1.6 7.38 3.28.74 1.68-7.35a2.44 2.44 0 0 1 3.15-1.77 2.3 2.3 0 0 1 1.9 3l-1.88 7.3 3.25.87 2-7.2c.88-3.2-.7-6.2-4.5-7.1zM38.2 29.38h-.11.09z"/></svg>