<svg id="Capa_1" data-name="Capa 1" xmlns="http://www.w3.org/2000/svg" width="40" height="40" viewBox="0 0 40 40"><title>icon-instagram</title><path d="M241.13,236h29.73a5,5,0,0,1,5.13,5.13v29.73a5,5,0,0,1-5.13,5.13H241.13a5,5,0,0,1-5.13-5.13V241.13a5,5,0,0,1,5.13-5.13Zm24,4.44a1.81,1.81,0,0,0-1.8,1.8v4.31a1.81,1.81,0,0,0,1.8,1.8h4.52a1.81,1.81,0,0,0,1.8-1.8v-4.31a1.81,1.81,0,0,0-1.8-1.8Zm6.34,12.47H268a11.7,11.7,0,0,1,.51,3.43,12.44,12.44,0,0,1-24.87,0,11.68,11.68,0,0,1,.51-3.43h-3.67v16.9A1.59,1.59,0,0,0,242,271.4h27.85a1.59,1.59,0,0,0,1.59-1.59v-16.9ZM256,248.13a7.79,7.79,0,1,0,8,7.78A7.91,7.91,0,0,0,256,248.13Z" transform="translate(-236 -236)" style="fill:#fff"/></svg>