<?xml version="1.0" encoding="utf-8"?>
<!-- Generator: Adobe Illustrator 18.0.0, SVG Export Plug-In . SVG Version: 6.00 Build 0)  -->
<!DOCTYPE svg PUBLIC "-//W3C//DTD SVG 1.1//EN" "http://www.w3.org/Graphics/SVG/1.1/DTD/svg11.dtd">
<svg version="1.1" xmlns="http://www.w3.org/2000/svg" xmlns:xlink="http://www.w3.org/1999/xlink" x="0px" y="0px"
	 viewBox="0 0 691 200" enable-background="new 0 0 691 200" xml:space="preserve">
<g id="Layer_1">
	<path fill="#FFFFFF" d="M37.8,173.8c-3.5,0-6.5-1.5-8.1-3.8l3-2.7c1.5,1.7,3.3,2.4,5.3,2.4c2.5,0,3.6-0.7,3.6-2.3
		c0-1.3-0.7-1.9-4.6-2.8c-3.8-0.9-6.5-2.1-6.5-6.2c0-3.8,3.3-6.1,7.4-6.1c3.2,0,5.6,1.2,7.6,3.3l-3,2.9c-1.3-1.4-2.8-2.1-4.7-2.1
		c-2.2,0-3,1-3,1.9c0,1.3,0.9,1.7,4.2,2.5c3.3,0.8,7,1.9,7,6.4C45.9,171.1,43.4,173.8,37.8,173.8z"/>
	<path fill="#FFFFFF" d="M56.9,156.8v16.7h-4.2v-16.7h-6v-4.1h16.1v4.1H56.9z"/>
	<path fill="#FFFFFF" d="M77.4,173.5l-3.7-7.5h-4.2v7.5h-4.2v-20.8h9.7c3.9,0,7.2,2.2,7.2,6.6c0,3.1-1.3,5.1-4,6.1l4,8.1H77.4z
		 M75,156.7h-5.4v5.4H75c1.9,0,3-0.9,3-2.7C77.9,157.5,76.8,156.7,75,156.7z"/>
	<path fill="#FFFFFF" d="M98.5,173.5l-1.6-4.6h-7.6l-1.6,4.6h-4.5l8-20.8h4l7.9,20.8H98.5z M94.1,161.1c-0.4-1.2-0.8-2.5-1-3.2
		c-0.2,0.8-0.6,2-1,3.2l-1.3,3.8h4.8L94.1,161.1z"/>
	<path fill="#FFFFFF" d="M111.4,156.8v16.7h-4.2v-16.7h-6v-4.1h16.1v4.1H111.4z"/>
	<path fill="#FFFFFF" d="M119.9,173.5v-20.8h14.4v4.1h-10.3v3.6h6v4h-6v5h10.7v4.1H119.9z"/>
	<path fill="#FFFFFF" d="M144.7,173.8c-5.4,0-9.1-4.2-9.1-10.7c0-6.3,3.8-10.7,9.2-10.7c4.3,0,6.5,2,7.9,5.2l-4,1.6
		c-0.8-1.5-1.7-2.7-4-2.7c-3.1,0-4.9,2.7-4.9,6.6c0,3.8,1.8,6.7,4.9,6.7c2.9,0,3.8-1.3,4.1-3.2h-3.3v-3.9h7.5v2.7
		C153.1,170.8,149.6,173.8,144.7,173.8z"/>
	<path fill="#FFFFFF" d="M164.8,165.3v8.2h-4.2v-8.1l-7.9-12.7h4.8l2.9,4.9c0.7,1.2,1.9,3.3,2.3,4.1c0.4-0.8,1.5-2.8,2.3-4.1
		l2.9-4.9h4.7L164.8,165.3z"/>
	<path fill="#FFFFFF" d="M187.9,173.5h-6.2v-20.8h6.5c5.9,0,10.3,2.8,10.3,10.4C198.5,170.4,193.2,173.5,187.9,173.5z M188,156.7
		h-2.2v12.7h2.1c4.4,0,6.4-2.6,6.4-6.4C194.2,158.8,192.4,156.7,188,156.7z"/>
	<path fill="#FFFFFF" d="M201.2,173.5v-20.8h14.4v4.1h-10.3v3.6h6v4h-6v5h10.7v4.1H201.2z"/>
	<path fill="#FFFFFF" d="M225.7,173.8c-3.5,0-6.5-1.5-8.1-3.8l3-2.7c1.5,1.7,3.3,2.4,5.3,2.4c2.5,0,3.6-0.7,3.6-2.3
		c0-1.3-0.7-1.9-4.6-2.8c-3.8-0.9-6.5-2.1-6.5-6.2c0-3.8,3.3-6.1,7.4-6.1c3.2,0,5.6,1.2,7.6,3.3l-3,2.9c-1.3-1.4-2.8-2.1-4.7-2.1
		c-2.2,0-3,1-3,1.9c0,1.3,0.9,1.7,4.2,2.5c3.3,0.8,7,1.9,7,6.4C233.8,171.1,231.3,173.8,225.7,173.8z"/>
	<path fill="#FFFFFF" d="M237,173.5v-20.8h4.2v20.8H237z"/>
	<path fill="#FFFFFF" d="M253.4,173.8c-5.4,0-9.1-4.2-9.1-10.7c0-6.3,3.8-10.7,9.2-10.7c4.3,0,6.5,2,7.9,5.2l-4,1.6
		c-0.8-1.5-1.7-2.7-4-2.7c-3.1,0-4.9,2.7-4.9,6.6c0,3.8,1.8,6.7,4.9,6.7c2.9,0,3.8-1.3,4.1-3.2h-3.3v-3.9h7.5v2.7
		C261.7,170.8,258.2,173.8,253.4,173.8z"/>
	<path fill="#FFFFFF" d="M277.8,173.5l-7.6-11.4c-0.5-0.8-1.2-1.8-1.5-2.3c0,0.8,0.1,3.4,0.1,4.5v9.2h-4.1v-20.8h4l7.4,11
		c0.5,0.8,1.2,1.8,1.5,2.3c0-0.8-0.1-3.4-0.1-4.5v-8.8h4.1v20.8H277.8z"/>
	<path fill="#FFFFFF" d="M301.2,166.1h-4.6v7.4h-4.2v-20.8h9.1c3.9,0,7.2,2.2,7.2,6.6C308.7,164.1,305.5,166.1,301.2,166.1z
		 M301.4,156.7h-4.8v5.4h4.8c1.9,0,3-0.9,3-2.7C304.4,157.6,303.3,156.7,301.4,156.7z"/>
	<path fill="#FFFFFF" d="M323.3,173.5l-3.7-7.5h-4.2v7.5h-4.2v-20.8h9.7c3.9,0,7.2,2.2,7.2,6.6c0,3.1-1.3,5.1-4,6.1l4,8.1H323.3z
		 M320.8,156.7h-5.4v5.4h5.4c1.9,0,3-0.9,3-2.7C323.8,157.5,322.6,156.7,320.8,156.7z"/>
	<path fill="#FFFFFF" d="M331.2,173.5v-20.8h4.2v20.8H331.2z"/>
	<path fill="#FFFFFF" d="M352.7,173.5l-7.6-11.4c-0.5-0.8-1.2-1.8-1.5-2.3c0,0.8,0.1,3.4,0.1,4.5v9.2h-4.1v-20.8h4l7.4,11
		c0.5,0.8,1.2,1.8,1.5,2.3c0-0.8-0.1-3.4-0.1-4.5v-8.8h4.1v20.8H352.7z"/>
	<path fill="#FFFFFF" d="M369,156.8v16.7h-4.2v-16.7h-6v-4.1H375v4.1H369z"/>
	<path fill="#FFFFFF" d="M393.4,166.1h-4.6v7.4h-4.2v-20.8h9.1c3.9,0,7.2,2.2,7.2,6.6C400.9,164.1,397.7,166.1,393.4,166.1z
		 M393.6,156.7h-4.8v5.4h4.8c1.9,0,3-0.9,3-2.7C396.7,157.6,395.5,156.7,393.6,156.7z"/>
	<path fill="#FFFFFF" d="M415.5,173.5l-3.7-7.5h-4.2v7.5h-4.2v-20.8h9.7c3.9,0,7.2,2.2,7.2,6.6c0,3.1-1.3,5.1-4,6.1l4,8.1H415.5z
		 M413,156.7h-5.4v5.4h5.4c1.9,0,3-0.9,3-2.7C416,157.5,414.8,156.7,413,156.7z"/>
	<path fill="#FFFFFF" d="M431.1,173.8c-5.7,0-9-4.4-9-10.7c0-6.3,3.4-10.7,9-10.7c5.7,0,9,4.4,9,10.7
		C440.1,169.4,436.7,173.8,431.1,173.8z M431.1,156.5c-3.4,0-4.8,2.9-4.8,6.6c0,3.7,1.4,6.6,4.8,6.6c3.4,0,4.8-2.9,4.8-6.6
		C435.8,159.4,434.4,156.5,431.1,156.5z"/>
	<path fill="#FFFFFF" d="M458.2,173.5v-7.6c0-1.1,0.1-3.8,0.1-4.6c-0.3,0.8-0.9,2.3-1.5,3.4l-4.2,9.2l-4.2-9.2
		c-0.5-1.2-1.2-2.7-1.5-3.4c0,0.8,0.1,3.4,0.1,4.6v7.6h-4.1v-20.8h4l4.3,9.4c0.5,1.2,1.2,2.7,1.4,3.5c0.3-0.8,0.9-2.3,1.4-3.5
		l4.2-9.4h4.1v20.8H458.2z"/>
	<path fill="#FFFFFF" d="M474.1,173.8c-5.7,0-9-4.4-9-10.7c0-6.3,3.4-10.7,9-10.7c5.7,0,9,4.4,9,10.7
		C483.2,169.4,479.8,173.8,474.1,173.8z M474.1,156.5c-3.4,0-4.8,2.9-4.8,6.6c0,3.7,1.4,6.6,4.8,6.6c3.4,0,4.8-2.9,4.8-6.6
		C478.9,159.4,477.5,156.5,474.1,156.5z"/>
	<path fill="#FFFFFF" d="M510.7,173.5h-4.1l-2.6-10.7c-0.3-1.2-0.6-2.8-0.7-3.6c-0.1,0.8-0.4,2.3-0.7,3.6l-2.6,10.7h-3.9l-4.3-20.8
		h4.3l1.8,10.1c0.2,1,0.4,2.6,0.5,3.4c0.1-0.9,0.5-2.4,0.7-3.4l2.4-10.1h3.6l2.5,10.1c0.2,1,0.6,2.6,0.7,3.4
		c0.1-0.9,0.3-2.4,0.5-3.4l1.8-10.1h4.3L510.7,173.5z"/>
	<path fill="#FFFFFF" d="M517.7,173.5v-20.8h14.4v4.1h-10.3v3.6h6v4h-6v5h10.7v4.1H517.7z"/>
	<path fill="#FFFFFF" d="M545,173.5h-9.5v-20.8h9.5c4,0,6.6,1.9,6.6,5.5c0,1.8-0.8,3.2-2.2,4c1.7,0.7,2.9,2.3,2.9,4.5
		C552.4,171.1,549.5,173.5,545,173.5z M544.9,156.5h-5.3v4h5.5c1.7,0,2.3-0.8,2.3-2C547.5,157.2,546.8,156.5,544.9,156.5z
		 M545.2,164.2h-5.5v5.4h5.5c2,0,3-1.1,3-2.7C548.2,165,547.2,164.2,545.2,164.2z"/>
	<path fill="#FFFFFF" d="M568.5,173.5h-6.2v-20.8h6.5c5.9,0,10.3,2.8,10.3,10.4C579.2,170.4,573.9,173.5,568.5,173.5z M568.7,156.7
		h-2.2v12.7h2.1c4.4,0,6.4-2.6,6.4-6.4C574.9,158.8,573.1,156.7,568.7,156.7z"/>
	<path fill="#FFFFFF" d="M582.1,173.5v-20.8h4.2v20.8H582.1z"/>
	<path fill="#FFFFFF" d="M598.5,173.8c-5.4,0-9.1-4.2-9.1-10.7c0-6.3,3.8-10.7,9.2-10.7c4.3,0,6.5,2,7.9,5.2l-4,1.6
		c-0.8-1.5-1.7-2.7-4-2.7c-3.1,0-4.9,2.7-4.9,6.6c0,3.8,1.8,6.7,4.9,6.7c2.9,0,3.8-1.3,4.1-3.2h-3.3v-3.9h7.5v2.7
		C606.8,170.8,603.3,173.8,598.5,173.8z"/>
	<path fill="#FFFFFF" d="M610,173.5v-20.8h4.2v20.8H610z"/>
	<path fill="#FFFFFF" d="M627.1,156.8v16.7H623v-16.7h-6v-4.1h16.1v4.1H627.1z"/>
	<path fill="#FFFFFF" d="M646.7,173.5l-1.6-4.6h-7.6l-1.6,4.6h-4.5l8-20.8h4l7.9,20.8H646.7z M642.3,161.1c-0.4-1.2-0.8-2.5-1-3.2
		c-0.2,0.8-0.6,2-1,3.2l-1.3,3.8h4.8L642.3,161.1z"/>
	<path fill="#FFFFFF" d="M653.6,173.5v-20.8h4.2v16.7h10.4v4.1H653.6z"/>
</g>
<g id="Layer_2">
	<g>
		<g>
			<g>
				<path fill="#FFFFFF" d="M112.2,36.1c0.9,0.1,1.8,0.2,2.6,0.3c-11.2,2.9-29.1,13.6-29.1,13.6C85.7,49.8,97.1,40.7,112.2,36.1z"/>
				<path fill="#FFFFFF" d="M106.9,36.1h1.8c-9.9,3.5-14.2,6.2-14.2,6.2l0-0.3C94.5,42,98.4,39.3,106.9,36.1z"/>
				<path fill="#FFFFFF" d="M30.1,116.8V60.6c0-13.5,11-24.5,24.5-24.5h48.6c-1.6,0.6-3.2,1.3-4.7,2c-4,1.8-15.7,7.1-27.5,15.9
					C51.8,68.9,36,90.7,30.1,116.8z M54.6,141.1c-4.8,0-9.2-1.3-12.9-3.7c0.2-5.3,0.7-10.5,1.5-15.6c7.4-43.7,37.8-73,75.9-84.2
					c9.4,3.4,16.1,12.4,16.1,23v56c0,13.5-11,24.5-24.5,24.5H54.6z"/>
				<path fill="#FFFFFF" d="M108.7,36.1c2.1-0.7,4.4-1.5,7-2.3c8.7-2.7,17.7-3.7,24.5-4.3c2.8-0.2,5.1-0.3,6.7-0.2
					c-2.1,0.2-4.5,0.5-7.6,0.9c-7,0.9-16,2.4-22.6,4.5c-1.7,0.5-3.2,1.1-4.6,1.5c-0.5,0-1,0-1.6,0H108.7z M103.2,36.1
					c5.5-2.1,11.3-3.7,18.3-5.2c9-2,14.5-2,20.2-2.4c-6.8,0.6-15.3,1.6-25.9,4.7c-3.4,1-6.3,2-8.8,2.9H103.2z M139.3,32.4
					c-1,0.1-5,0.7-7.7,1.1c-2.3,0.4-4.8,0.9-4.8,0.9l0,0.2c0,0,3.5-0.6,7.2-1.1c2.1-0.3,6.9-0.8,8-0.6c-2.2,0.3-6,0.9-10.4,1.7
					l-0.1,0c-4.2,0.8-8.4,1.8-12.4,3c-1.4-0.5-2.8-0.9-4.2-1.1c2.6-0.8,5.4-1.5,8.5-2.1c10.4-2.3,18.1-2.9,23-3.2
					c0.2,0-4.1,0.5-7.3,1c-1.7,0.2-3.2,0.5-3.2,0.5l0,0.1c0,0,0.6-0.1,1.3-0.1C138.2,32.5,139.5,32.4,139.3,32.4z"/>
				<path fill="#FFFFFF" d="M117.8,35.1c0,0,5.2-2,14.5-3.5c15.5-2.5,27.4-2,27.4-2s-16.2,0.3-29.9,2.9
					C120.5,34.3,117.8,35.1,117.8,35.1z"/>
			</g>
			<path fill="#FFFFFF" d="M112,38.7c-2,0.8-6.8,2.7-6.8,2.7s2.4-1.5,6.9-3.2c1.9-0.7,4.3-1.3,7-2.1C119.1,36.2,114,38,112,38.7z"/>
		</g>
		<g>
			<path fill="#FFFFFF" d="M237.7,70.3c0-15-9.5-25.6-25.5-25.6c-7.5,0-13.9,3.1-18.2,8.1c-4.1-5-10.4-8.1-18.2-8.1
				c-15.7,0-25.8,11-25.8,25.6v33.2h14.7V69.9c0-6.4,4.6-10.9,11.1-10.9c9.7,0,10.7,7.7,10.7,10.9v33.5h14.7V69.9
				c0-6.4,4.7-10.9,11.1-10.9c9.7,0,10.8,7.7,10.8,10.9v33.5h14.7V70.3z"/>
			<path fill="#FFFFFF" d="M261.2,26.2h-14.7v13.7h14.7V26.2z M261.2,46.1h-14.7v57.3h14.7V46.1z"/>
			<g>
				<rect x="270.8" y="20.7" fill="#FFFFFF" width="14.7" height="82.8"/>
				<path fill="#FFFFFF" d="M278.1,62"/>
			</g>
			<g>
				<rect x="294.9" y="20.7" fill="#FFFFFF" width="14.7" height="82.8"/>
				<path fill="#FFFFFF" d="M302.3,62"/>
			</g>
			<path fill="#FFFFFF" d="M357.3,85.2h15.1c-3.3,11.7-13.5,19.6-27.7,19.6c-16.2,0-29.4-13.3-29.4-29.9c0-16.6,13.1-30.1,29.4-30.1
				c13.8,0,25.4,8.7,28.1,24L360.3,74c-0.4-9.2-7.3-16.4-15.6-16.4C336,57.6,329,65.4,329,75c0,9.6,7,17.4,15.7,17.4
				C349.9,92.3,354.5,89.5,357.3,85.2z"/>
			<path fill="#FFFFFF" d="M378.4,70.3v33.2h14.7V69.9c0-6.4,4.7-10.9,11.1-10.9c9.7,0,10.8,7.7,10.8,10.9v33.5h14.7V70.3
				c0-15-9.5-25.6-25.5-25.6C388.7,44.7,378.4,55.7,378.4,70.3z"/>
			<path fill="#FFFFFF" d="M437.5,70.3v33.2h14.7V69.9c0-6.4,4.7-10.9,11.1-10.9c9.7,0,10.8,7.7,10.8,10.9v33.5h14.7V70.3
				c0-15-9.5-25.6-25.5-25.6C447.7,44.7,437.5,55.7,437.5,70.3z"/>
			<path fill="#FFFFFF" d="M512.3,26.2h-14.7v13.7h14.7V26.2z M512.3,46.1h-14.7v57.3h14.7V46.1z"/>
			<path fill="#FFFFFF" d="M572.4,79.2v-33h-14.7v33.5c0,6.3-4.7,10.9-11.1,10.9c-9.7,0-10.8-7.7-10.8-10.9V46.1h-14.7v33
				c0,15,9.5,25.6,25.5,25.6C562.2,104.8,572.4,93.7,572.4,79.2z"/>
			<path fill="#FFFFFF" d="M668.2,70.3c0-15-9.5-25.6-25.5-25.6c-7.5,0-13.9,3.1-18.2,8.1c-4.1-5-10.5-8.1-18.2-8.1
				c-15.7,0-25.8,11-25.8,25.6v33.2h14.7V69.9c0-6.4,4.6-10.9,11.1-10.9c9.7,0,10.7,7.7,10.7,10.9v33.5h14.7V69.9
				c0-6.4,4.7-10.9,11.1-10.9c9.7,0,10.8,7.7,10.8,10.9v33.5h14.7V70.3z"/>
			<g>
				<path fill="#FFFFFF" d="M315.4,44.6c0,0,0.1,0,0.2,0c0.1,0,0.2,0,0.2,0s-0.1,0-0.2,0C315.5,44.6,315.4,44.6,315.4,44.6
					L315.4,44.6z"/>
			</g>
			<path fill="#FFFFFF" d="M328.6,67.9h44.2c0.4,1.9,0.6,3.8,0.6,5.8c0,2,0,4-0.4,5.9h-44.3V67.9z"/>
		</g>
		<g>
			<g>
				<path fill-rule="evenodd" clip-rule="evenodd" fill="#FFFFFF" d="M171.6,137.4v-24h-3.8l-5.3,12.8c-0.6,1.4-1.3,3.1-1.6,4.1
					c-0.3-1-1.1-2.8-1.6-4.1l-5.4-12.8h-3.7v24h3.4v-12.7c0-1.4,0-3.5-0.1-4.2c0.3,0.7,1,2.4,1.5,3.8l5.8,13.5l5.8-13.5
					c0.6-1.4,1.3-3.1,1.5-3.8c0,0.7-0.1,2.8-0.1,4.2v12.7H171.6z"/>
				<path fill-rule="evenodd" clip-rule="evenodd" fill="#FFFFFF" d="M204.4,137.4l-8.8-24h-3.8l-8.7,24h3.7l2-5.7h9.6l2,5.7H204.4z
					 M197.4,128.4H190l1.9-5.5c0.6-1.8,1.5-4.5,1.8-5.6c0.3,1,1.2,3.8,1.8,5.5L197.4,128.4z"/>
				<path fill-rule="evenodd" clip-rule="evenodd" fill="#FFFFFF" d="M234.3,120.5c0-4.9-3.5-7.2-7.7-7.2H216v24h3.5v-9.5h5.4
					l4.8,9.5h4.2l-4.9-9.8C232.3,126.7,234.3,124.3,234.3,120.5z M230.6,120.6c0,2.6-1.7,3.8-4.1,3.8h-7v-7.7h7
					C229,116.7,230.6,118.1,230.6,120.6z"/>
				<path fill-rule="evenodd" clip-rule="evenodd" fill="#FFFFFF" d="M265.7,137.4l-8.6-15.3l7-8.7H260l-7.1,8.9
					c-0.8,1-2.4,3-2.8,3.6c0-0.8,0.1-3.4,0.1-4.3v-8.2h-3.5v24h3.5v-6.9l4.5-5.4l6.9,12.3H265.7z"/>
				<polygon fill-rule="evenodd" clip-rule="evenodd" fill="#FFFFFF" points="293.1,137.4 293.1,133.9 280.7,133.9 280.7,126.3 
					287.6,126.3 287.6,122.8 280.7,122.8 280.7,116.8 292.6,116.8 292.6,113.3 277.1,113.3 277.1,137.4 				"/>
				<polygon fill-rule="evenodd" clip-rule="evenodd" fill="#FFFFFF" points="321.2,116.9 321.2,113.3 303.6,113.3 303.6,116.9 
					310.6,116.9 310.6,137.4 314.2,137.4 314.2,116.9 				"/>
				<rect x="332.9" y="113.3" fill-rule="evenodd" clip-rule="evenodd" fill="#FFFFFF" width="3.6" height="24"/>
				<path fill-rule="evenodd" clip-rule="evenodd" fill="#FFFFFF" d="M368.1,137.4v-24h-3.5v12.4c0,1.3,0,4.8,0,5.7
					c-0.3-0.6-1.4-2.4-2-3.4l-9.1-14.7h-3.7v24h3.5v-12.5c0-1.3,0-4.7,0-5.6c0.4,0.6,1.2,2.1,1.8,3l9.6,15.1H368.1z"/>
				<path fill-rule="evenodd" clip-rule="evenodd" fill="#FFFFFF" d="M399.4,127.9v-2.8h-7.6v3.5h3.9v0.1c0,2.8-1.5,5.4-5.5,5.4
					c-4.2,0-6.5-3.4-6.5-8.8c0-5.4,2.3-8.8,6.5-8.8c2.5,0,3.8,0.9,5,2.9l3.2-2c-1.6-2.9-4.3-4.5-8.2-4.5c-6.2,0-10.2,5.1-10.2,12.4
					c0,7.3,4,12.4,10.2,12.4C395.6,137.7,399.4,134.1,399.4,127.9z"/>
			</g>
			<path fill-rule="evenodd" clip-rule="evenodd" fill="#FFFFFF" d="M443.7,130.5c0-4.3-3-5.8-7.7-7.2c-4.2-1.2-5.3-2.1-5.3-3.7
				c0-1.6,1.2-3,4-3c2.4,0,4.1,0.8,5.6,2.3l2.5-2.6c-2.1-2.1-4.6-3.3-7.9-3.3c-4.4,0-7.9,2.5-7.9,6.7c0,4.3,2.4,5.6,7.5,7.1
				c4,1.2,5.4,2.1,5.4,4c0,2.3-1.6,3.5-5,3.5c-2.3,0-4.6-1.1-6.2-2.9l-2.6,2.5c2,2.4,5,3.9,8.6,3.9
				C440.9,137.7,443.7,134.8,443.7,130.5z"/>
			<path fill-rule="evenodd" clip-rule="evenodd" fill="#FFFFFF" d="M475,125.3c0-7.3-3.9-12.4-10.2-12.4c-6.2,0-10.2,5.1-10.2,12.4
				c0,7.3,3.9,12.4,10.2,12.4C471.1,137.7,475,132.6,475,125.3z M471.3,125.3c0,5.4-2.3,8.8-6.5,8.8c-4.2,0-6.5-3.4-6.5-8.8
				c0-5.4,2.3-8.8,6.5-8.8C469,116.5,471.3,119.9,471.3,125.3z"/>
			<polygon fill-rule="evenodd" clip-rule="evenodd" fill="#FFFFFF" points="502.6,137.4 502.6,133.8 490.6,133.8 490.6,113.3 
				487,113.3 487,137.4 			"/>
			<g>
				<path fill-rule="evenodd" clip-rule="evenodd" fill="#FFFFFF" d="M531.2,127.3v-14h-3.6v14.1c0,4.4-1.8,6.7-5.6,6.7
					c-3.6,0-5.5-2.4-5.5-7v-13.8h-3.6v13.9c0,6.6,3.1,10.5,9,10.5C527.9,137.7,531.2,134.1,531.2,127.3z"/>
				<polygon fill-rule="evenodd" clip-rule="evenodd" fill="#FFFFFF" points="560.2,116.9 560.2,113.3 542.6,113.3 542.6,116.9 
					549.6,116.9 549.6,137.4 553.2,137.4 553.2,116.9 				"/>
				<rect x="572" y="113.3" fill-rule="evenodd" clip-rule="evenodd" fill="#FFFFFF" width="3.6" height="24"/>
				<path fill-rule="evenodd" clip-rule="evenodd" fill="#FFFFFF" d="M608.1,125.3c0-7.3-3.9-12.4-10.2-12.4
					c-6.2,0-10.2,5.1-10.2,12.4c0,7.3,3.9,12.4,10.2,12.4C604.2,137.7,608.1,132.6,608.1,125.3z M604.5,125.3c0,5.4-2.3,8.8-6.5,8.8
					c-4.2,0-6.5-3.4-6.5-8.8c0-5.4,2.3-8.8,6.5-8.8C602.2,116.5,604.5,119.9,604.5,125.3z"/>
				<path fill-rule="evenodd" clip-rule="evenodd" fill="#FFFFFF" d="M638.4,137.4v-24h-3.5v12.4c0,1.3,0,4.8,0,5.7
					c-0.3-0.6-1.4-2.4-2-3.4l-9.1-14.7h-3.7v24h3.5v-12.5c0-1.3,0-4.7,0-5.6c0.4,0.6,1.2,2.1,1.8,3l9.6,15.1H638.4z"/>
				<path fill-rule="evenodd" clip-rule="evenodd" fill="#FFFFFF" d="M667.6,130.5c0-4.3-3-5.8-7.7-7.2c-4.2-1.2-5.2-2.1-5.2-3.7
					c0-1.6,1.2-3,4-3c2.4,0,4.1,0.8,5.6,2.3l2.5-2.6c-2.1-2.1-4.6-3.3-7.9-3.3c-4.4,0-7.9,2.5-7.9,6.7c0,4.3,2.4,5.6,7.5,7.1
					c4,1.2,5.4,2.1,5.4,4c0,2.3-1.6,3.5-5,3.5c-2.3,0-4.6-1.1-6.2-2.9l-2.6,2.5c2,2.4,5,3.9,8.6,3.9
					C664.9,137.7,667.6,134.8,667.6,130.5z"/>
			</g>
		</g>
	</g>
</g>
</svg>
