<svg id="Layer_1" data-name="Layer 1" xmlns="http://www.w3.org/2000/svg" width="638.6" height="153.2" viewBox="0 0 638.6 153.2"><title>mm4-footer-logo</title><g id="Layer_1-2" data-name="Layer 1"><path d="M37.8,173.8a9.75,9.75,0,0,1-8.1-3.8l3-2.7a6.75,6.75,0,0,0,5.3,2.4c2.5,0,3.6-.7,3.6-2.3,0-1.3-.7-1.9-4.6-2.8s-6.5-2.1-6.5-6.2c0-3.8,3.3-6.1,7.4-6.1a10,10,0,0,1,7.6,3.3l-3,2.9a6.09,6.09,0,0,0-4.7-2.1c-2.2,0-3,1-3,1.9,0,1.3.9,1.7,4.2,2.5s7,1.9,7,6.4C45.9,171.1,43.4,173.8,37.8,173.8Z" transform="translate(-29.7 -20.7)" style="fill:#fff"/><path d="M56.9,156.8v16.7H52.7V156.8h-6v-4.1H62.8v4.1Z" transform="translate(-29.7 -20.7)" style="fill:#fff"/><path d="M77.4,173.5,73.7,166H69.5v7.5H65.3V152.7H75c3.9,0,7.2,2.2,7.2,6.6,0,3.1-1.3,5.1-4,6.1l4,8.1H77.4ZM75,156.7H69.6v5.4H75c1.9,0,3-.9,3-2.7S76.8,156.7,75,156.7Z" transform="translate(-29.7 -20.7)" style="fill:#fff"/><path d="M98.5,173.5l-1.6-4.6H89.3l-1.6,4.6H83.2l8-20.8h4l7.9,20.8Zm-4.4-12.4c-.4-1.2-.8-2.5-1-3.2-.2.8-.6,2-1,3.2l-1.3,3.8h4.8Z" transform="translate(-29.7 -20.7)" style="fill:#fff"/><path d="M111.4,156.8v16.7h-4.2V156.8h-6v-4.1h16.1v4.1Z" transform="translate(-29.7 -20.7)" style="fill:#fff"/><path d="M119.9,173.5V152.7h14.4v4.1H124v3.6h6v4h-6v5h10.7v4.1H119.9Z" transform="translate(-29.7 -20.7)" style="fill:#fff"/><path d="M144.7,173.8c-5.4,0-9.1-4.2-9.1-10.7,0-6.3,3.8-10.7,9.2-10.7,4.3,0,6.5,2,7.9,5.2l-4,1.6c-.8-1.5-1.7-2.7-4-2.7-3.1,0-4.9,2.7-4.9,6.6s1.8,6.7,4.9,6.7c2.9,0,3.8-1.3,4.1-3.2h-3.3v-3.9H153v2.7C153.1,170.8,149.6,173.8,144.7,173.8Z" transform="translate(-29.7 -20.7)" style="fill:#fff"/><path d="M164.8,165.3v8.2h-4.2v-8.1l-7.9-12.7h4.8l2.9,4.9c.7,1.2,1.9,3.3,2.3,4.1.4-.8,1.5-2.8,2.3-4.1l2.9-4.9h4.7Z" transform="translate(-29.7 -20.7)" style="fill:#fff"/><path d="M187.9,173.5h-6.2V152.7h6.5c5.9,0,10.3,2.8,10.3,10.4C198.5,170.4,193.2,173.5,187.9,173.5Zm.1-16.8h-2.2v12.7h2.1c4.4,0,6.4-2.6,6.4-6.4C194.2,158.8,192.4,156.7,188,156.7Z" transform="translate(-29.7 -20.7)" style="fill:#fff"/><path d="M201.2,173.5V152.7h14.4v4.1H205.3v3.6h6v4h-6v5H216v4.1H201.2Z" transform="translate(-29.7 -20.7)" style="fill:#fff"/><path d="M225.7,173.8a9.75,9.75,0,0,1-8.1-3.8l3-2.7a6.75,6.75,0,0,0,5.3,2.4c2.5,0,3.6-.7,3.6-2.3,0-1.3-.7-1.9-4.6-2.8s-6.5-2.1-6.5-6.2c0-3.8,3.3-6.1,7.4-6.1a10,10,0,0,1,7.6,3.3l-3,2.9a6.09,6.09,0,0,0-4.7-2.1c-2.2,0-3,1-3,1.9,0,1.3.9,1.7,4.2,2.5s7,1.9,7,6.4C233.8,171.1,231.3,173.8,225.7,173.8Z" transform="translate(-29.7 -20.7)" style="fill:#fff"/><path d="M237,173.5V152.7h4.2v20.8Z" transform="translate(-29.7 -20.7)" style="fill:#fff"/><path d="M253.4,173.8c-5.4,0-9.1-4.2-9.1-10.7,0-6.3,3.8-10.7,9.2-10.7,4.3,0,6.5,2,7.9,5.2l-4,1.6c-.8-1.5-1.7-2.7-4-2.7-3.1,0-4.9,2.7-4.9,6.6s1.8,6.7,4.9,6.7c2.9,0,3.8-1.3,4.1-3.2h-3.3v-3.9h7.5v2.7C261.7,170.8,258.2,173.8,253.4,173.8Z" transform="translate(-29.7 -20.7)" style="fill:#fff"/><path d="M277.8,173.5l-7.6-11.4c-.5-.8-1.2-1.8-1.5-2.3,0,.8.1,3.4.1,4.5v9.2h-4.1V152.7h4l7.4,11c.5.8,1.2,1.8,1.5,2.3,0-.8-.1-3.4-.1-4.5v-8.8h4.1v20.8Z" transform="translate(-29.7 -20.7)" style="fill:#fff"/><path d="M301.2,166.1h-4.6v7.4h-4.2V152.7h9.1c3.9,0,7.2,2.2,7.2,6.6C308.7,164.1,305.5,166.1,301.2,166.1Zm.2-9.4h-4.8v5.4h4.8c1.9,0,3-.9,3-2.7S303.3,156.7,301.4,156.7Z" transform="translate(-29.7 -20.7)" style="fill:#fff"/><path d="M323.3,173.5l-3.7-7.5h-4.2v7.5h-4.2V152.7h9.7c3.9,0,7.2,2.2,7.2,6.6,0,3.1-1.3,5.1-4,6.1l4,8.1h-4.8Zm-2.5-16.8h-5.4v5.4h5.4c1.9,0,3-.9,3-2.7S322.6,156.7,320.8,156.7Z" transform="translate(-29.7 -20.7)" style="fill:#fff"/><path d="M331.2,173.5V152.7h4.2v20.8Z" transform="translate(-29.7 -20.7)" style="fill:#fff"/><path d="M352.7,173.5l-7.6-11.4c-.5-.8-1.2-1.8-1.5-2.3,0,.8.1,3.4.1,4.5v9.2h-4.1V152.7h4l7.4,11c.5.8,1.2,1.8,1.5,2.3,0-.8-.1-3.4-.1-4.5v-8.8h4.1v20.8Z" transform="translate(-29.7 -20.7)" style="fill:#fff"/><path d="M369,156.8v16.7h-4.2V156.8h-6v-4.1H375v4.1Z" transform="translate(-29.7 -20.7)" style="fill:#fff"/><path d="M393.4,166.1h-4.6v7.4h-4.2V152.7h9.1c3.9,0,7.2,2.2,7.2,6.6C400.9,164.1,397.7,166.1,393.4,166.1Zm.2-9.4h-4.8v5.4h4.8c1.9,0,3-.9,3-2.7S395.5,156.7,393.6,156.7Z" transform="translate(-29.7 -20.7)" style="fill:#fff"/><path d="M415.5,173.5l-3.7-7.5h-4.2v7.5h-4.2V152.7h9.7c3.9,0,7.2,2.2,7.2,6.6,0,3.1-1.3,5.1-4,6.1l4,8.1h-4.8ZM413,156.7h-5.4v5.4H413c1.9,0,3-.9,3-2.7S414.8,156.7,413,156.7Z" transform="translate(-29.7 -20.7)" style="fill:#fff"/><path d="M431.1,173.8c-5.7,0-9-4.4-9-10.7s3.4-10.7,9-10.7,9,4.4,9,10.7S436.7,173.8,431.1,173.8Zm0-17.3c-3.4,0-4.8,2.9-4.8,6.6s1.4,6.6,4.8,6.6,4.8-2.9,4.8-6.6S434.4,156.5,431.1,156.5Z" transform="translate(-29.7 -20.7)" style="fill:#fff"/><path d="M458.2,173.5v-7.6c0-1.1.1-3.8.1-4.6a29.85,29.85,0,0,1-1.5,3.4l-4.2,9.2-4.2-9.2c-.5-1.2-1.2-2.7-1.5-3.4,0,.8.1,3.4.1,4.6v7.6h-4.1V152.7h4l4.3,9.4a36.12,36.12,0,0,1,1.4,3.5c.3-.8.9-2.3,1.4-3.5l4.2-9.4h4.1v20.8Z" transform="translate(-29.7 -20.7)" style="fill:#fff"/><path d="M474.1,173.8c-5.7,0-9-4.4-9-10.7s3.4-10.7,9-10.7,9,4.4,9,10.7S479.8,173.8,474.1,173.8Zm0-17.3c-3.4,0-4.8,2.9-4.8,6.6s1.4,6.6,4.8,6.6,4.8-2.9,4.8-6.6S477.5,156.5,474.1,156.5Z" transform="translate(-29.7 -20.7)" style="fill:#fff"/><path d="M510.7,173.5h-4.1L504,162.8c-.3-1.2-.6-2.8-.7-3.6-.1.8-.4,2.3-.7,3.6L500,173.5h-3.9l-4.3-20.8h4.3l1.8,10.1c.2,1,.4,2.6.5,3.4.1-.9.5-2.4.7-3.4l2.4-10.1h3.6l2.5,10.1c.2,1,.6,2.6.7,3.4.1-.9.3-2.4.5-3.4l1.8-10.1h4.3Z" transform="translate(-29.7 -20.7)" style="fill:#fff"/><path d="M517.7,173.5V152.7h14.4v4.1H521.8v3.6h6v4h-6v5h10.7v4.1H517.7Z" transform="translate(-29.7 -20.7)" style="fill:#fff"/><path d="M545,173.5h-9.5V152.7H545c4,0,6.6,1.9,6.6,5.5a4.38,4.38,0,0,1-2.2,4,4.67,4.67,0,0,1,2.9,4.5C552.4,171.1,549.5,173.5,545,173.5Zm-.1-17h-5.3v4h5.5c1.7,0,2.3-.8,2.3-2S546.8,156.5,544.9,156.5Zm.3,7.7h-5.5v5.4h5.5c2,0,3-1.1,3-2.7C548.2,165,547.2,164.2,545.2,164.2Z" transform="translate(-29.7 -20.7)" style="fill:#fff"/><path d="M568.5,173.5h-6.2V152.7h6.5c5.9,0,10.3,2.8,10.3,10.4C579.2,170.4,573.9,173.5,568.5,173.5Zm.2-16.8h-2.2v12.7h2.1c4.4,0,6.4-2.6,6.4-6.4C574.9,158.8,573.1,156.7,568.7,156.7Z" transform="translate(-29.7 -20.7)" style="fill:#fff"/><path d="M582.1,173.5V152.7h4.2v20.8Z" transform="translate(-29.7 -20.7)" style="fill:#fff"/><path d="M598.5,173.8c-5.4,0-9.1-4.2-9.1-10.7,0-6.3,3.8-10.7,9.2-10.7,4.3,0,6.5,2,7.9,5.2l-4,1.6c-.8-1.5-1.7-2.7-4-2.7-3.1,0-4.9,2.7-4.9,6.6s1.8,6.7,4.9,6.7c2.9,0,3.8-1.3,4.1-3.2h-3.3v-3.9h7.5v2.7C606.8,170.8,603.3,173.8,598.5,173.8Z" transform="translate(-29.7 -20.7)" style="fill:#fff"/><path d="M610,173.5V152.7h4.2v20.8Z" transform="translate(-29.7 -20.7)" style="fill:#fff"/><path d="M627.1,156.8v16.7H623V156.8h-6v-4.1h16.1v4.1Z" transform="translate(-29.7 -20.7)" style="fill:#fff"/><path d="M646.7,173.5l-1.6-4.6h-7.6l-1.6,4.6h-4.5l8-20.8h4l7.9,20.8Zm-4.4-12.4c-.4-1.2-.8-2.5-1-3.2-.2.8-.6,2-1,3.2l-1.3,3.8h4.8Z" transform="translate(-29.7 -20.7)" style="fill:#fff"/><path d="M653.6,173.5V152.7h4.2v16.7h10.4v4.1Z" transform="translate(-29.7 -20.7)" style="fill:#fff"/></g><g id="Layer_2" data-name="Layer 2"><path d="M112.2,36.1l2.6.3C103.6,39.3,85.7,50,85.7,50,85.7,49.8,97.1,40.7,112.2,36.1Z" transform="translate(-29.7 -20.7)" style="fill:#fff"/><path d="M106.9,36.1h1.8c-9.9,3.5-14.2,6.2-14.2,6.2V42S98.4,39.3,106.9,36.1Z" transform="translate(-29.7 -20.7)" style="fill:#fff"/><path d="M30.1,116.8V60.6A24.54,24.54,0,0,1,54.6,36.1h48.6c-1.6.6-3.2,1.3-4.7,2A147.33,147.33,0,0,0,71,54C51.8,68.9,36,90.7,30.1,116.8Zm24.5,24.3a23.48,23.48,0,0,1-12.9-3.7,132.93,132.93,0,0,1,1.5-15.6c7.4-43.7,37.8-73,75.9-84.2a24.42,24.42,0,0,1,16.1,23v56a24.54,24.54,0,0,1-24.5,24.5Z" transform="translate(-29.7 -20.7)" style="fill:#fff"/><path d="M108.7,36.1c2.1-.7,4.4-1.5,7-2.3,8.7-2.7,17.7-3.7,24.5-4.3a55.73,55.73,0,0,1,6.7-.2c-2.1.2-4.5.5-7.6.9-7,.9-16,2.4-22.6,4.5-1.7.5-3.2,1.1-4.6,1.5h-3.4Zm-5.5,0a122.09,122.09,0,0,1,18.3-5.2c9-2,14.5-2,20.2-2.4a128.16,128.16,0,0,0-25.9,4.7c-3.4,1-6.3,2-8.8,2.9Zm36.1-3.7c-1,.1-5,.7-7.7,1.1-2.3.4-4.8.9-4.8.9v.2s3.5-.6,7.2-1.1a50.23,50.23,0,0,1,8-.6c-2.2.3-6,.9-10.4,1.7h-.1a124.56,124.56,0,0,0-12.4,3,21.7,21.7,0,0,0-4.2-1.1,81.3,81.3,0,0,1,8.5-2.1,142.2,142.2,0,0,1,23-3.2c.2,0-4.1.5-7.3,1-1.7.2-3.2.5-3.2.5v.1a8.87,8.87,0,0,1,1.3-.1C138.2,32.5,139.5,32.4,139.3,32.4Z" transform="translate(-29.7 -20.7)" style="fill:#fff"/><path d="M117.8,35.1a79.8,79.8,0,0,1,14.5-3.5,151.08,151.08,0,0,1,27.4-2,209.46,209.46,0,0,0-29.9,2.9C120.5,34.3,117.8,35.1,117.8,35.1Z" transform="translate(-29.7 -20.7)" style="fill:#fff"/><path d="M112,38.7l-6.8,2.7a42.74,42.74,0,0,1,6.9-3.2c1.9-.7,4.3-1.3,7-2.1C119.1,36.2,114,38,112,38.7Z" transform="translate(-29.7 -20.7)" style="fill:#fff"/><path d="M237.7,70.3c0-15-9.5-25.6-25.5-25.6A23.62,23.62,0,0,0,194,52.8c-4.1-5-10.4-8.1-18.2-8.1-15.7,0-25.8,11-25.8,25.6v33.2h14.7V69.9c0-6.4,4.6-10.9,11.1-10.9,9.7,0,10.7,7.7,10.7,10.9v33.5h14.7V69.9c0-6.4,4.7-10.9,11.1-10.9,9.7,0,10.8,7.7,10.8,10.9v33.5h14.7V70.3Z" transform="translate(-29.7 -20.7)" style="fill:#fff"/><path d="M261.2,26.2H246.5V39.9h14.7Zm0,19.9H246.5v57.3h14.7Z" transform="translate(-29.7 -20.7)" style="fill:#fff"/><rect x="241.1" width="14.7" height="82.8" style="fill:#fff"/><path d="M278.1,62" transform="translate(-29.7 -20.7)" style="fill:#fff"/><rect x="265.2" width="14.7" height="82.8" style="fill:#fff"/><path d="M302.3,62" transform="translate(-29.7 -20.7)" style="fill:#fff"/><path d="M357.3,85.2h15.1c-3.3,11.7-13.5,19.6-27.7,19.6a29.62,29.62,0,0,1-29.4-29.9c0-16.6,13.1-30.1,29.4-30.1,13.8,0,25.4,8.7,28.1,24L360.3,74c-.4-9.2-7.3-16.4-15.6-16.4C336,57.6,329,65.4,329,75s7,17.4,15.7,17.4A15.42,15.42,0,0,0,357.3,85.2Z" transform="translate(-29.7 -20.7)" style="fill:#fff"/><path d="M378.4,70.3v33.2h14.7V69.9c0-6.4,4.7-10.9,11.1-10.9,9.7,0,10.8,7.7,10.8,10.9v33.5h14.7V70.3c0-15-9.5-25.6-25.5-25.6C388.7,44.7,378.4,55.7,378.4,70.3Z" transform="translate(-29.7 -20.7)" style="fill:#fff"/><path d="M437.5,70.3v33.2h14.7V69.9c0-6.4,4.7-10.9,11.1-10.9,9.7,0,10.8,7.7,10.8,10.9v33.5h14.7V70.3c0-15-9.5-25.6-25.5-25.6C447.7,44.7,437.5,55.7,437.5,70.3Z" transform="translate(-29.7 -20.7)" style="fill:#fff"/><path d="M512.3,26.2H497.6V39.9h14.7Zm0,19.9H497.6v57.3h14.7Z" transform="translate(-29.7 -20.7)" style="fill:#fff"/><path d="M572.4,79.2v-33H557.7V79.7c0,6.3-4.7,10.9-11.1,10.9-9.7,0-10.8-7.7-10.8-10.9V46.1H521.1v33c0,15,9.5,25.6,25.5,25.6C562.2,104.8,572.4,93.7,572.4,79.2Z" transform="translate(-29.7 -20.7)" style="fill:#fff"/><path d="M668.2,70.3c0-15-9.5-25.6-25.5-25.6a23.62,23.62,0,0,0-18.2,8.1c-4.1-5-10.5-8.1-18.2-8.1-15.7,0-25.8,11-25.8,25.6v33.2h14.7V69.9c0-6.4,4.6-10.9,11.1-10.9C616,59,617,66.7,617,69.9v33.5h14.7V69.9c0-6.4,4.7-10.9,11.1-10.9,9.7,0,10.8,7.7,10.8,10.9v33.5h14.7V70.3Z" transform="translate(-29.7 -20.7)" style="fill:#fff"/><path d="M315.4,44.6h0Z" transform="translate(-29.7 -20.7)" style="fill:#fff"/><path d="M328.6,67.9h44.2a27.84,27.84,0,0,1,.6,5.8,28.8,28.8,0,0,1-.4,5.9H328.7V67.9Z" transform="translate(-29.7 -20.7)" style="fill:#fff"/><path d="M171.6,137.4v-24h-3.8l-5.3,12.8c-.6,1.4-1.3,3.1-1.6,4.1-.3-1-1.1-2.8-1.6-4.1l-5.4-12.8h-3.7v24h3.4V124.7c0-1.4,0-3.5-.1-4.2.3.7,1,2.4,1.5,3.8l5.8,13.5,5.8-13.5c.6-1.4,1.3-3.1,1.5-3.8,0,.7-.1,2.8-.1,4.2v12.7Z" transform="translate(-29.7 -20.7)" style="fill:#fff"/><path d="M204.4,137.4l-8.8-24h-3.8l-8.7,24h3.7l2-5.7h9.6l2,5.7Zm-7-9H190l1.9-5.5c.6-1.8,1.5-4.5,1.8-5.6.3,1,1.2,3.8,1.8,5.5Z" transform="translate(-29.7 -20.7)" style="fill:#fff"/><path d="M234.3,120.5c0-4.9-3.5-7.2-7.7-7.2H216v24h3.5v-9.5h5.4l4.8,9.5h4.2l-4.9-9.8C232.3,126.7,234.3,124.3,234.3,120.5Zm-3.7.1c0,2.6-1.7,3.8-4.1,3.8h-7v-7.7h7C229,116.7,230.6,118.1,230.6,120.6Z" transform="translate(-29.7 -20.7)" style="fill:#fff"/><path d="M265.7,137.4l-8.6-15.3,7-8.7H260l-7.1,8.9c-.8,1-2.4,3-2.8,3.6,0-.8.1-3.4.1-4.3v-8.2h-3.5v24h3.5v-6.9l4.5-5.4,6.9,12.3Z" transform="translate(-29.7 -20.7)" style="fill:#fff"/><polygon points="263.4 116.7 263.4 113.2 251 113.2 251 105.6 257.9 105.6 257.9 102.1 251 102.1 251 96.1 262.9 96.1 262.9 92.6 247.4 92.6 247.4 116.7 263.4 116.7" style="fill:#fff"/><polygon points="291.5 96.2 291.5 92.6 273.9 92.6 273.9 96.2 280.9 96.2 280.9 116.7 284.5 116.7 284.5 96.2 291.5 96.2" style="fill:#fff"/><rect x="303.2" y="92.6" width="3.6" height="24" style="fill:#fff"/><path d="M368.1,137.4v-24h-3.5v18.1c-.3-.6-1.4-2.4-2-3.4l-9.1-14.7h-3.7v24h3.5V119.3c.4.6,1.2,2.1,1.8,3l9.6,15.1h3.4Z" transform="translate(-29.7 -20.7)" style="fill:#fff"/><path d="M399.4,127.9v-2.8h-7.6v3.5h3.9v.1c0,2.8-1.5,5.4-5.5,5.4-4.2,0-6.5-3.4-6.5-8.8s2.3-8.8,6.5-8.8a5.12,5.12,0,0,1,5,2.9l3.2-2c-1.6-2.9-4.3-4.5-8.2-4.5-6.2,0-10.2,5.1-10.2,12.4s4,12.4,10.2,12.4C395.6,137.7,399.4,134.1,399.4,127.9Z" transform="translate(-29.7 -20.7)" style="fill:#fff"/><path d="M443.7,130.5c0-4.3-3-5.8-7.7-7.2-4.2-1.2-5.3-2.1-5.3-3.7s1.2-3,4-3a7.38,7.38,0,0,1,5.6,2.3l2.5-2.6a10.62,10.62,0,0,0-7.9-3.3c-4.4,0-7.9,2.5-7.9,6.7s2.4,5.6,7.5,7.1c4,1.2,5.4,2.1,5.4,4,0,2.3-1.6,3.5-5,3.5a8.46,8.46,0,0,1-6.2-2.9l-2.6,2.5a11,11,0,0,0,8.6,3.9C440.9,137.7,443.7,134.8,443.7,130.5Z" transform="translate(-29.7 -20.7)" style="fill:#fff"/><path d="M475,125.3c0-7.3-3.9-12.4-10.2-12.4s-10.2,5.1-10.2,12.4,3.9,12.4,10.2,12.4S475,132.6,475,125.3Zm-3.7,0c0,5.4-2.3,8.8-6.5,8.8s-6.5-3.4-6.5-8.8,2.3-8.8,6.5-8.8S471.3,119.9,471.3,125.3Z" transform="translate(-29.7 -20.7)" style="fill:#fff"/><polygon points="472.9 116.7 472.9 113.1 460.9 113.1 460.9 92.6 457.3 92.6 457.3 116.7 472.9 116.7" style="fill:#fff"/><path d="M531.2,127.3v-14h-3.6v14.1c0,4.4-1.8,6.7-5.6,6.7-3.6,0-5.5-2.4-5.5-7V113.3h-3.6v13.9c0,6.6,3.1,10.5,9,10.5S531.2,134.1,531.2,127.3Z" transform="translate(-29.7 -20.7)" style="fill:#fff"/><polygon points="530.5 96.2 530.5 92.6 512.9 92.6 512.9 96.2 519.9 96.2 519.9 116.7 523.5 116.7 523.5 96.2 530.5 96.2" style="fill:#fff"/><rect x="542.3" y="92.6" width="3.6" height="24" style="fill:#fff"/><path d="M608.1,125.3c0-7.3-3.9-12.4-10.2-12.4s-10.2,5.1-10.2,12.4,3.9,12.4,10.2,12.4S608.1,132.6,608.1,125.3Zm-3.6,0c0,5.4-2.3,8.8-6.5,8.8s-6.5-3.4-6.5-8.8,2.3-8.8,6.5-8.8S604.5,119.9,604.5,125.3Z" transform="translate(-29.7 -20.7)" style="fill:#fff"/><path d="M638.4,137.4v-24h-3.5v18.1c-.3-.6-1.4-2.4-2-3.4l-9.1-14.7h-3.7v24h3.5V119.3c.4.6,1.2,2.1,1.8,3l9.6,15.1h3.4Z" transform="translate(-29.7 -20.7)" style="fill:#fff"/><path d="M667.6,130.5c0-4.3-3-5.8-7.7-7.2-4.2-1.2-5.2-2.1-5.2-3.7s1.2-3,4-3a7.38,7.38,0,0,1,5.6,2.3l2.5-2.6a10.62,10.62,0,0,0-7.9-3.3c-4.4,0-7.9,2.5-7.9,6.7s2.4,5.6,7.5,7.1c4,1.2,5.4,2.1,5.4,4,0,2.3-1.6,3.5-5,3.5a8.46,8.46,0,0,1-6.2-2.9l-2.6,2.5a11,11,0,0,0,8.6,3.9C664.9,137.7,667.6,134.8,667.6,130.5Z" transform="translate(-29.7 -20.7)" style="fill:#fff"/></g></svg>