<svg xmlns="http://www.w3.org/2000/svg" width="200" height="86.88" viewBox="0 0 200 86.88"><title>wbenc-white-200</title><path fill="#fff" d="M.38 15.34a16.9 16.9 0 0 1 1.2-4.5C3.73 5.58 7.22 1.75 13 .4c.25-.06.48-.1.54-.4h172.92s.1.12.15.13.14 0 .07-.13h.42c0 .53.47.4.76.48a14.8 14.8 0 0 1 4 1.86c4.23 2.84 6.52 6.94 7.65 11.8.08.3-.1.8.48.86v55.83c-.15.14-.3.28 0 .42v.83c-.47 0-.37.4-.44.68-1.57 6.53-5 11.5-11.66 13.67-.2.07-.52.06-.4.44h-.84c-.06-.12-.06-.12-.2 0H13.53c-.07 0-.14-.25-.2 0h-.84c.08-.58-.45-.44-.7-.53a15.38 15.38 0 0 1-3.56-1.67c-4.32-2.8-6.62-6.92-7.8-11.8-.06-.3.1-.74-.44-.78v-.84c.3-.14.15-.28 0-.42M188.37 3a10.33 10.33 0 0 0-4.47-.78H16.44c-.38 0-.76 0-1.14 0a11.6 11.6 0 0 0-8.66 4.35 2.18 2.18 0 0 0-.77.93 9.44 9.44 0 0 0-1.76 2.9 2.43 2.43 0 0 0-.46 1 16.8 16.8 0 0 0-1.4 7q0 25 0 50.1a17.6 17.6 0 0 0 2.13 8.6c2.68 4.9 6.63 7.58 12.4 7.57q47.14-.12 94.27 0h73a9.9 9.9 0 0 0 4.92-1l.42-.2a13 13 0 0 0 6-6 1.7 1.7 0 0 0 .45-.87 16.46 16.46 0 0 0 1.85-7.9q0-25.14 0-50.28a15.93 15.93 0 0 0-1.47-7.05 4.54 4.54 0 0 0-.8-1.72 12.88 12.88 0 0 0-5.65-5.82 3.3 3.3 0 0 0-1.38-.83zM200 71.25c-.3-.14-.15-.28 0-.42zM0 70.83c.15.14.3.28 0 .42zM13.33 86.87c.07-.25.14 0 .2 0zM186.46 86.87c.15-.12.15-.12.2 0zM62.25 29.44h6.42a.87.87 0 0 0 .64.1 20.1 20.1 0 0 1 2.8.76 7.1 7.1 0 0 1 4.7 5.88 6.74 6.74 0 0 1-3.08 6.9c-.17.13-.32.27-.47.4s-.27 0-.25.23.14.2.27.22l3 1.32 1.13.85c4.68 4.45 2.24 14.06-6 15.58-2.52.47-5 .1-7.57.18a13.2 13.2 0 0 0-2.92 0l-5.2.06-.4-.08c-.74-.58-.54-1 .2-1.38a6.5 6.5 0 0 1 1-.34 2.15 2.15 0 0 0 1.53-1.56 7.4 7.4 0 0 0 .27-2.27q0-10.84 0-21.67a2.47 2.47 0 0 0-.24-1.5c0-.33-.15-.74-.48-.7s-.47.55-.57.9a5.85 5.85 0 0 0-.7 1.66l-.28.6-5.5 13.13-.2.43c-1.14 2.42-2.16 4.9-3.14 7.4a1.86 1.86 0 0 0-.4.93c-.6 1.38-1.2 2.78-1.86 4.15-.53 1.1-1.1 1.25-2 .62L42.27 61c-1.52-3.85-3.08-7.7-4.8-11.45a1.2 1.2 0 0 0-.4-.83 1.2 1.2 0 0 0-.4.8L34.08 56l-.28.6c-.67 1.63-1.35 3.25-2 4.88-.24.56-.5 1.1-1.18 1.17s-1-.56-1.22-1.08-.5-1.06-.73-1.6a.42.42 0 0 0-.17-.42 12.48 12.48 0 0 0-1.07-2.7.45.45 0 0 0-.17-.42 25.26 25.26 0 0 0-1.4-3.55l-.3-.63c-.85-2.4-1.82-4.74-2.83-7.07a.87.87 0 0 0-.25-.6l-.57-1.48-.4-1-2.07-5a.92.92 0 0 0-.26-.62 15.67 15.67 0 0 0-1.56-3.72.66.66 0 0 0-.4-.5 3.2 3.2 0 0 0-1.7-1.1c-.43-.17-.82-.4-.72-1a.93.93 0 0 1 1-.73c.75 0 1.5 0 2.26 0a3.2 3.2 0 0 0 1.27.1h1.47a1.4 1.4 0 0 0 .85-.1h1.45c.34 0 .62.07.74.43a.75.75 0 0 1-.32.9c-.14.1-.3.18-.44.27-1.2.72-1.36 1.2-.8 2.58q2.82 7 5.65 13.95c.44 1.12.93 2.22 1.4 3.33a1.78 1.78 0 0 0 .33.87l1.2 2.88c.1.4.14 1 .6 1s.4-.45.45-.78q1.46-3.08 2.65-6.27a.43.43 0 0 0 .18-.42.8.8 0 0 0 .27-.6.45.45 0 0 0 .18-.44c1.17-1.7.1-3.13-.56-4.6a.85.85 0 0 0-.28-.6A15.43 15.43 0 0 0 33.1 39a.44.44 0 0 0-.18-.43 24.26 24.26 0 0 0-1.54-3.72.92.92 0 0 0-.26-.67l-.4-1A1.68 1.68 0 0 0 30 32a2.8 2.8 0 0 0-2-.8 3 3 0 0 1-1.63-.57 1.28 1.28 0 0 1 .23-1.2h3.3l1.05.08a13.94 13.94 0 0 0 2.7 0c.3 0 .6.13.86-.08h1.36c.38 0 .7 0 .8.5a.85.85 0 0 1-.4.88c-1.7 1.3-1.7 1.32-.9 3.26s1.5 3.7 2.25 5.56c0 .25.08.58.33.57s.32-.33.32-.6l.54-1.2.2-.4a30.27 30.27 0 0 0 1.85-4.47c.38-1.24.1-1.74-1.07-2.3-.58-.3-1.6-.4-1.33-1.28s1.17-.43 1.83-.45H41a1.53 1.53 0 0 0 .86.08h1.87a1.34 1.34 0 0 0 .83-.1c.55.17 1.36-.42 1.66.36s-.6.93-1 1.3a8.52 8.52 0 0 0-2 3.1c-.25.53-.44 1.08-.66 1.62a1.06 1.06 0 0 0-.26.67 25.88 25.88 0 0 0-1.7 3.95.44.44 0 0 0-.2.43 4.3 4.3 0 0 0-.36 4.4c.64 1.45 1.23 2.9 1.84 4.37a.92.92 0 0 0 .26.67 35.62 35.62 0 0 0 1.8 4.33.44.44 0 0 0 .06.33l.2.42c0 .25.16.5.4.52s.33-.28.4-.5A56.42 56.42 0 0 0 47.27 50a6.62 6.62 0 0 0 .76-1.9c1.38-3.07 2.6-6.2 3.82-9.36a1.5 1.5 0 0 0 .34-.85 20 20 0 0 0 1.34-3.32 1.34 1.34 0 0 0 .34-.86 1.35 1.35 0 0 0 .07-1.25.84.84 0 0 0-.68-.82c-.44-.43-1.06-.45-1.58-.7a.8.8 0 0 1-.52-1 .74.74 0 0 1 .82-.55h1.44a1.46 1.46 0 0 0 .85.1 63.58 63.58 0 0 0 6.44 0zm.14 22.7c0 1.85 0 3.7 0 5.53 0 1.5.48 2.1 2 2.35a17.46 17.46 0 0 0 6.2.07 6 6 0 0 0 5.22-5.44 11.77 11.77 0 0 0-.1-3.42 6.13 6.13 0 0 0-3.84-4.83 16.7 16.7 0 0 0-8.57-1c-.66.1-.9.43-.9 1.12.02 1.88 0 3.75 0 5.63zm0-14.43c0 1.57 0 3.13 0 4.7 0 .52.12.9.7.93a18.45 18.45 0 0 0 7.82-.64 3.3 3.3 0 0 0 2.35-2.57 7.64 7.64 0 0 0-.06-3c-.9-4-5.82-6.84-9.77-5.72a1.27 1.27 0 0 0-1 1.4c-.04 1.65-.04 3.28-.04 4.9zM109.85 29.4h1.42l.82.8a13.4 13.4 0 0 0 2 2.26 5.3 5.3 0 0 0 1.17 1.28 7.7 7.7 0 0 0 1.48 1.63 1.36 1.36 0 0 0 .6.68 2 2 0 0 0 .68.77 2.38 2.38 0 0 0 .8.86 6.3 6.3 0 0 0 1.3 1.43 2.25 2.25 0 0 0 .77.88 5.86 5.86 0 0 0 1.27 1.43 2.42 2.42 0 0 0 .8.88 1.86 1.86 0 0 0 .7.78 2.33 2.33 0 0 0 .78.86 4.76 4.76 0 0 0 1.1 1.24 6.76 6.76 0 0 0 1.38 1.5.52.52 0 0 0 .35.4 1 1 0 0 0 .5.58 10.16 10.16 0 0 0 1.55 1.73 7.23 7.23 0 0 0 1.35 1.48 22.7 22.7 0 0 0 2.42 2.68c.3.38.52.85 1.13 1 0-.34 0-.6-.06-.86 0-2 .06-4 .06-6q0-6 0-12a4.44 4.44 0 0 0-.67-2.77 1.93 1.93 0 0 0-1.2-1.17 6.63 6.63 0 0 0-2.22-.8c-.48-.17-1-.36-.9-1s.67-.58 1.14-.6 1 0 1.56 0a3 3 0 0 0 1.27.1h1.8a3.4 3.4 0 0 0 1.47-.1h2c.33 0 .64.06.74.43a.8.8 0 0 1-.35.9.33.33 0 0 1-.1.06c-2.15.63-2.2 2.34-2.2 4.15 0 8.3 0 16.62 0 24.93 0 .34 0 .7 0 1-.06 1.24-.28 1.38-1.44.94l-1.3-1.26a21.12 21.12 0 0 0-2.2-2.5 3.78 3.78 0 0 0-.93-1q-2.94-3.5-6.1-6.84a3.84 3.84 0 0 0-1-1.13l-.47-.53a3.54 3.54 0 0 0-1-1.06 30.93 30.93 0 0 0-2.94-3.3 1.42 1.42 0 0 0-.6-.66 28.4 28.4 0 0 0-2.75-3.08 5 5 0 0 0-1.18-1.34 2 2 0 0 0-.92-.95 1.05 1.05 0 0 0-.1.32q0 9.72 0 19.45a.4.4 0 0 0 .1.43.68.68 0 0 0 .3.72 1.1 1.1 0 0 0 .85.86c.57.47 1.3.4 2 .58.48.13.85.32.8.9s-.54.63-1 .62l-2.65-.1a13.88 13.88 0 0 0-3.33 0c-.8 0-1.58 0-2.37.05-.44 0-1 .1-1-.53s.26-.9.77-1.06a5.1 5.1 0 0 0 2-.87 2.36 2.36 0 0 0 .3-.4.87.87 0 0 0 .4-.7 5 5 0 0 0 .56-2.7c0-5.92 0-11.84 0-17.76a8.17 8.17 0 0 0-1.15-4.76 2.18 2.18 0 0 0-1.08-1.2 1.53 1.53 0 0 1 0-.16c-.08-.46-.4-.5-.77-.42l-1.3-.25c-.32-.25-.87-.16-1-.67v-.6l.24-.32a7.27 7.27 0 0 1 1.62-.06.87.87 0 0 0 .63.1h.47a1.33 1.33 0 0 0 .85-.1zM102.8 29.8v.6c-.37.3-.15.7-.17 1.06-.07 1-.14 2.08-.22 3.12l-.46 1.42c-.78.36-1.17 0-1.32-.74 0-.1 0-.2 0-.3-.3-2.48-.6-2.86-3.07-3.12a35.44 35.44 0 0 0-8 0 .7.7 0 0 0-.8.83c-.2 1.94-.05 3.88-.08 5.8 0 1.57 0 3.13 0 4.7 0 .57.13.92.8.9 2.08 0 4.16 0 6.24 0a2.85 2.85 0 0 0 2.76-1.53 1.36 1.36 0 0 0 .32-.86l.16-.37c.16-.37.28-.86.82-.77s.64.58.64 1c0 2.67 0 5.34 0 8 0 1-.47 1.18-1.42.6l-.16-.42-.18-.83a1.66 1.66 0 0 0-.28-.9 1.82 1.82 0 0 0-1.94-1.4c-2.32 0-4.64 0-7 0-.6 0-.78.27-.78.83 0 3.5 0 7 0 10.5a1.5 1.5 0 0 0 1.5 1.66 19.77 19.77 0 0 0 9.17-1 1.6 1.6 0 0 0 .88-.32 6.84 6.84 0 0 0 2.47-1.55 3 3 0 0 0 1.05-1c.36-.15.54-.77 1-.5s.36.84.3 1.3c-.22 1.6-1.3 2.7-2.2 3.93l-.84.8a5.18 5.18 0 0 1-3 .76c-2.1 0-4.2 0-6.3-.07a5.7 5.7 0 0 0-1.66 0 9.84 9.84 0 0 0-2.7-.06l-1.68.1-4.12.06c-.45 0-.9 0-1.16-.46 0-.14 0-.28 0-.42.4-.62 1.2-.6 1.72-1a1.12 1.12 0 0 0 .93-.6A3.3 3.3 0 0 0 84.5 57c0-3.2 0-6.38 0-9.57V35.1c0-.4 0-.82 0-1.24A2.6 2.6 0 0 0 82 31c-1.2-.26-1.4-.5-1.1-1.44l.44-.18H91.5a.4.4 0 0 0 .47 0h.6l.83.06h3.33l1.28-.06 4.14-.07c.2.27.3.6.67.5zM141.46 34.12a13 13 0 0 0 1.4 2 1.87 1.87 0 0 0 .64.83 9 9 0 0 0 2.58 2.58 7.6 7.6 0 0 0 11.14-.94 18.68 18.68 0 0 0 2.35-4.6h.38c0 .6 0 1.23 0 1.86a1.57 1.57 0 0 0-.1.3c-.44 3.48-1.66 6.58-4.5 8.84-.5.4-.23.7 0 1a11.25 11.25 0 0 1 1.56 6.68 14.74 14.74 0 0 1-2.63 6.92l-.34-.1c.5-3.15.8-6.28-1.24-9.1a12 12 0 0 1-2.7 6.42 6.3 6.3 0 0 1-1.64-2 16.3 16.3 0 0 0 .88-6.64 5.2 5.2 0 0 0-1.83-3.73 20.44 20.44 0 0 1-4.6-5.56c-.6-1.57-1.27-3.1-1.72-4.7zM153.92 59.5l.34.1c4.73 1.68 9.07.8 13.1-2a3.6 3.6 0 0 0 1.26-1.04 1 1 0 0 0 .5-.5.66.66 0 0 0 .4-.4 4.74 4.74 0 0 0 1.12-1.74c.17-.4.45-.77.94-.63s.5.64.4 1.1c-.28 1.22-.58 2.43-.82 3.66a2.38 2.38 0 0 1-1.3 1.52 19.38 19.38 0 0 1-6.14 2.2l-.6.13a52.2 52.2 0 0 1-6 .4c-10.9-.3-17.67-8.64-15.73-19.46a7.4 7.4 0 0 1 1.1-3.4 14.3 14.3 0 0 0 2.4 3.56 2.08 2.08 0 0 1 .58 1.57 17.1 17.1 0 0 0 2.85 10.2 6.28 6.28 0 0 0 1.64 2 8.88 8.88 0 0 0 3.95 2.74zM167.37 57.58a39 39 0 0 0-2.56-4.16c-.46-.62-.8-.7-1.33 0a34.74 34.74 0 0 0-4 5.88 3.2 3.2 0 0 1 0-1.52c.54-3 1-6.1 2.48-8.86.27-.5-.1-.78-.3-1.1a14.37 14.37 0 0 1-1.42-11.35c0-.06.1-.1.13-.16a20.15 20.15 0 0 0 1.1 5.48c1.33 3.44 3.92 4.45 7.22 2.78a13.43 13.43 0 0 0 4.62-4.1c.3-.4.63-.8 1-1.2a18.7 18.7 0 0 1-1.8 4.5l-1.32 1.8a6 6 0 0 0-1.3 1.28l-2.64 1.8c-.27.18-.56.32-.35.72a21 21 0 0 1 1.63 5.85v.84c0 .16 0 .33 0 .5a3.64 3.64 0 0 1-1.16 1.04zM146.08 39.5a9 9 0 0 1-2.58-2.6l1.1-1.68a17.78 17.78 0 0 1 7.5-5.4l1.26-.34a23.5 23.5 0 0 1 9.52 0 .83.83 0 0 0 .65.14 23.74 23.74 0 0 1 5.64 2.6 1.06 1.06 0 0 0 1.16.1c.92-.45 1.24-.26 1.33.8.16 1.95.25 3.9.34 5.83 0 .45 0 1-.56 1.08s-.8-.36-1-.78a17.92 17.92 0 0 0-3.06-4.57c-3.1-3.54-7.1-4.36-11.55-3.73-5.07.68-8.24 3.67-9.75 8.54zM12.6 76c-.28.44-.55.88-.84 1.3-.13.2-.24.47-.54.4s-.35-.3-.4-.53c-.36-1.34-.7-2.7-1-4-.62-2.23-1-4.5-1.82-6.7-.1-.4-.47-.48-.74-.67 0-.28.1-.5.4-.5.86 0 1.73 0 2.6 0a.43.43 0 0 1 .3.2c.1.2-.05.34-.23.4-.74.22-.7.77-.54 1.34.6 2.32 1.2 4.63 1.8 6.94a1.66 1.66 0 0 0 .36 1 2 2 0 0 0 .76-1.06l1.26-2a1 1 0 0 0 .15-.8c-.42-1.5-.84-3-1.28-4.5a.82.82 0 0 0-.6-.65c-.27-.2-.7-.18-.85-.57.12-.17.26-.36.48-.33 1.1.17 2.22-.14 3.3.14-.4.6-1.15 1-.72 2a22.74 22.74 0 0 0 .7 2.32 9.9 9.9 0 0 0 1.3-2.36c.3-.67.43-1.27-.55-1.47-.24 0-.27-.28-.26-.5 1 0 2-.1 3-.14.33 0 .5.2.47.53-.4.12-.85.15-1.05.6A6.9 6.9 0 0 0 17 68.3l-.48.86-.34.6-.24.4a1.37 1.37 0 0 0-.3 1.6c.3.85.54 1.74.8 2.6a1.48 1.48 0 0 0 .37 1 3.3 3.3 0 0 0 .3-.37c.25-.42.48-.84.72-1.26A29 29 0 0 0 20 69.6a1.35 1.35 0 0 0 .4-.84 5.67 5.67 0 0 0 .84-1.93c.1-.38.13-.77-.45-.77l-.65-.23c0-.4.17-.55.55-.55.86 0 1.72 0 2.57 0s.68.32.22.73a.64.64 0 0 0-.66.42 13.47 13.47 0 0 0-2 3.36c-.67 1.2-1.26 2.45-1.88 3.68l-.22.42L17 77l-.72.75c-.5-.14-.5-.6-.64-1-.33-1-.63-2-.95-3.07 0-.23 0-.56-.27-.58s-.37.33-.46.58a4.56 4.56 0 0 0-.84 1.42c-.2.34-.36.62-.53.9zM54.58 8.15a5.52 5.52 0 0 0-4.7 3 8.8 8.8 0 0 0 0 8.48 4.72 4.72 0 0 0 2.4 2.35l.43.18a5.07 5.07 0 0 0 4 .12 3.2 3.2 0 0 0 1.9-1 6.5 6.5 0 0 0 1.8-2.18c.16-.24.28-.66.68-.47s.15.48.12.75a3.68 3.68 0 0 1-2.9 3.43 11.9 11.9 0 0 1-7.63 0l-.42-.2-1.06-.74-.84-.86a9.42 9.42 0 0 1-.12-10.1l.44-.63L50 8.9l.7-.52a9 9 0 0 1 9.3.1c.24.14.52.4.76.24 1-.73.86.1.88.67 0 .85 0 1.72.06 2.6 0 .32.1.72-.42.76a.13.13 0 0 0-.15-.07c-.37-.67-.4-1.47-.86-2.08a1.55 1.55 0 0 0-.85-.88A5.5 5.5 0 0 0 56 8.16a2.86 2.86 0 0 0-1.42 0zM149.77 22.28a5.18 5.18 0 0 1-2.1 1.1c-1.86.33-3.23-.62-3.26-2.5a8.18 8.18 0 0 1 3-6.7 3.17 3.17 0 0 1 3.22-.7c.5.18.6-.06.65-.46.18-1.6.35-3.17.56-4.75.1-.72-.4-.56-.78-.62s-.65 0-.68-.33.38-.4.67-.47c2.8-.6 2.78-.6 2.4 2.27-.43 3.16-1 6.3-1.2 9.48a14.15 14.15 0 0 0-.17 1.64c0 .53-.28 1.32.28 1.5s.8-.67 1.15-1.08c.4-.22.76-.33.7.35a3.2 3.2 0 0 1-2.2 2.3c-.8.1-1.2-.4-1.52-1 0-.22.1-.54-.2-.56s-.4.26-.5.54zm-3.9-2.43a2.13 2.13 0 0 0 1 2.14 2.07 2.07 0 0 0 2.38-.56 3.4 3.4 0 0 0 1.1-2.07c.2-1.16.36-2.33.5-3.5.08-.53.27-1.17-.27-1.53a1.94 1.94 0 0 0-2 .07 3.2 3.2 0 0 0-1.15 1 9.06 9.06 0 0 0-1.56 4.45zM69.9 70.46c.12-1.06.26-2.1.34-3.16 0-.38.15-.85-.35-1.08-.2-.22-.47-.18-.72-.22-.38-.5-.14-.73.36-.7 1.5.1 3 0 4.45 0 1.3 0 2.58.37 3.07 1.82a3.08 3.08 0 0 1-1.07 3.6c-.24.15-.75.27-.1.54a5.1 5.1 0 0 1 1.17.85 3.83 3.83 0 0 1-3.75 5.4c-1.42 0-2.84 0-4.26 0-.22 0-.53.1-.64-.18s.14-.42.37-.52a1.07 1.07 0 0 0 .63-1.1c0-.7.12-1.44.18-2.16v-.42a4 4 0 0 0 .2-1.67c.02-.33.06-.66.1-1zm2.72 6.34a9.07 9.07 0 0 0 1.12-.16A2.52 2.52 0 0 0 75.88 74a2.4 2.4 0 0 0-2.2-2.47 12.85 12.85 0 0 0-1.53-.18c-.56 0-.9.12-.95.78-.07 1-.25 2.06-.36 3.1-.15 1.42 0 1.58 1.78 1.57zm.38-6.1c1.75 0 2.55-.5 2.78-1.72.33-1.7-.72-2.87-2.58-3-.9 0-1.47.18-1.48 1.22a15.4 15.4 0 0 1-.2 1.75c-.2 1.72-.18 1.75 1.48 1.75zM133.33 70.63a1 1 0 0 0 1-.7c.1-.23.2-.5.5-.4s.16.35.14.54c-.07.9-.15 1.8-.25 2.7 0 .22-.07.5-.38.5s-.3-.26-.3-.46c0-.9-.6-1.12-1.4-1.1-2.9.1-2.22-.46-2.65 2.4 0 .23 0 .48-.07.72-.3 2.07-.32 1.85 1.64 1.82a6 6 0 0 0 3.2-.68c.63-.15.87-.76 1.3-1.13a.5.5 0 0 1 .34.66 2.75 2.75 0 0 1-2.42 2q-3 0-5.93 0c-.26 0-.62.13-.74-.2s.3-.4.5-.5c.42-.2.47-.58.5-1 .35-2.8.7-5.58 1-8.37.06-.47.32-1.06-.34-1.38l-.44-.1c-.42-.28-.62-.6.06-.7a10.5 10.5 0 0 1 1.55 0c1.87 0 3.74 0 5.6-.06.8 0 1.2.17 1.08 1 0 .13 0 .27 0 .4-.05.47.23 1.2-.28 1.32s-.38-.65-.58-1a1.07 1.07 0 0 0-.57-.57 4 4 0 0 0-.7-.18c-3.77-.5-3.77-.5-4.2 3.7-.13.44-.1.8.46.8a7.58 7.58 0 0 0 2.4-.04zM117.5 8.53a.44.44 0 0 0-.23.4.43.43 0 0 0-.2.43 11.5 11.5 0 0 0-.84 3.7c-.06.5.08.74.6.7a6.25 6.25 0 0 1 .84 0c.3 0 .56.18.57.5s-.25.5-.6.56c-.56.1-1.3-.33-1.63.3a4.78 4.78 0 0 0-.23 1.63q-.4 3.46-.8 6.92a5.37 5.37 0 0 1-.83 2.54 2.9 2.9 0 0 1-3.08 1.46l-.18-.2a2.9 2.9 0 0 1 .1-1.33c.1-.26.16-.57.5-.6s.38.3.53.52c.33.9.6.46.9 0a33.55 33.55 0 0 0 .8-5.53c.22-1.58.32-3.17.55-4.75.1-.68 0-1-.76-.92a3.26 3.26 0 0 1-.63 0 .5.5 0 0 1-.54-.52.45.45 0 0 1 .53-.5c1.7.36 1.77-.86 2-2a7.66 7.66 0 0 1 2.23-4.27 3 3 0 0 1 2.26-.86c.47 0 .8.23.8.75s.17 1.07-.33 1.33-.56-.38-.85-.58-.4-.3-.66-.23a.8.8 0 0 0-.83.56zM28.14 71.66a4.43 4.43 0 0 1 .86-1.38c.83-.75 1.5-.55 1.78.54 0 .16.06.32.1.5 2.08-1.73 2.78-1.88 3.92-.9l.3.82.73-.82c.9-.5 1.82-.94 2.8-.18L39 71c0 .9 0 1.8 0 2.7-.07.62-.16 1.23-.2 1.85 0 .22-.15.53.15.63s.43-.16.58-.34a4.46 4.46 0 0 0 .3-.4h.47l-.1.74-.33.4-.34.35a6.4 6.4 0 0 1-.62.38c-.93.45-1.5.14-1.48-.9 0-1.32.2-2.64.3-3.95 0-.6.2-1.36-.62-1.56s-1.18.42-1.5 1a16.25 16.25 0 0 0-1 4.64c-.1.54-.17.94-.85.87s-.6-.6-.53-1.07c.2-1.3.42-2.6.6-3.9.1-.64.1-1.33-.64-1.57s-1.22.3-1.55.9a13.9 13.9 0 0 0-1 4.12 6.78 6.78 0 0 0-.12.82c0 .6-.35.77-.9.7s-.52-.47-.46-.87c.17-1.13.34-2.26.54-3.4a4.76 4.76 0 0 0 .07-1.54c0-.2 0-.35-.2-.4s-.4.13-.5.35l-.65.63c-.07-.12-.17-.32-.26-.52zM166 69.9a4.05 4.05 0 0 1 3.4.77 4.68 4.68 0 0 1 .77 2 8.14 8.14 0 0 1-.95 2.87l-.45.62a4.86 4.86 0 0 1-3.45 1.43c-.4 0-.57.12-.6.5s-.14 1-.15 1.43c0 .7.58.65 1 .77.14 0 .25.12.2.3a.3.3 0 0 1-.3.22c-.93 0-1.87 0-2.8 0a.43.43 0 0 1-.3-.2c-.1-.2.08-.33.23-.4a1 1 0 0 0 .6-.88c.34-2.7.68-5.42 1-8.16-.4-.23-.87.3-1.15-.18v-.2l.62-.43c.54 0 .8-.28.82-.83a3.65 3.65 0 0 1 .33-1.6l.33-.2c.62-.13.9.08.78.74a1.5 1.5 0 0 0-.06.9c-.04.22-.16.4.12.52zm-1 5.9c-.06 1.22.1 1.37 1 1.16 2.07-.46 3.4-3.72 2.25-5.5a2.13 2.13 0 0 0-2-.93c-.45 0-.67.2-.72.7-.12 1.6-.35 3.2-.53 4.56zM73.3 22.83a6.9 6.9 0 0 1-2.82.62 3 3 0 0 1-3-2.62 7.32 7.32 0 0 1 4-7.25 3.5 3.5 0 0 1 .4-.13 2.3 2.3 0 0 1 2.77.8 2.5 2.5 0 0 1-.77 3 7.86 7.86 0 0 1-4.27 1.44c-.6-.1-.56.28-.48.68.07 2.38 2.18 3.47 4.34 2.28.4-.22.86-.9 1.22-.43s-.4.78-.7 1.15a2.44 2.44 0 0 1-.23.22zm0-7.57c0-.76-.47-1.08-1.22-1a2.48 2.48 0 0 0-1.7 1.1c-.55.73-1.48 1.82-1 2.38s1.8-.08 2.64-.56a2.26 2.26 0 0 0 1.23-1.92zM134.07 19.4c.17 2.4 2.26 3.44 4.4 2.23.38-.2.85-.9 1.2-.38s-.4.82-.78 1.14a3.76 3.76 0 0 1-1 .56c-1.48.6-3 .88-4.35-.2s-1.3-2.6-1-4.1c.06-.35.14-.68.22-1l.56-1.18a13.4 13.4 0 0 1 1.6-1.9 5 5 0 0 1 1.85-1.1 2.3 2.3 0 0 1 2.84.82 2.47 2.47 0 0 1-.86 3 8.17 8.17 0 0 1-4.18 1.36c-.64-.08-.58.34-.5.74zm4.2-4.16a1 1 0 0 0-1.26-1 2.7 2.7 0 0 0-1.86 1.35c-.43.66-1.27 1.55-.76 2.14s1.55 0 2.3-.4a2.44 2.44 0 0 0 1.58-2.1zM174 70.43a1.94 1.94 0 0 1 2.17-.3c.58.26 1.47-.07 2.2-.2s.8.05.66.68c-.3 1.4-.56 2.78-.84 4.17a1.92 1.92 0 0 0 0 1.37 1.9 1.9 0 0 0 .74-.88c.3-.06.6-.13.53.33a1.35 1.35 0 0 1-.26.55c-.47.67-1 1.58-1.9 1.3s-.65-1.34-.56-2.08c.15-1.23.44-2.44.65-3.67.04-.3.36-.82-.3-.87-.4 0-1-.4-1.14.4-.07.3-.18.84-.74.4-.83-.7-.9-.66-1.33.38a2.63 2.63 0 0 0-.35 1.34c0 .2 0 .42-.07.62l-.1.38c-.14.85-.3 1.7-.42 2.56-.08.6-.46.6-.9.56s-.5-.4-.42-.77c.18-1.1.37-2.2.54-3.3a2.3 2.3 0 0 0-.1-1.5c0-.33-.12-.52-.5-.4-.57.2-.4 1.1-1.1 1.2-.3-.76.2-1.37.34-2 .52-.63 1.06-1.2 1.88-.43l.5 1.1a2.4 2.4 0 0 0 .8-.94zM79.53 71.85c-.3.2-.32.74-.85.6 0-.33 0-.66.05-1a13.94 13.94 0 0 1 1-1.18 1 1 0 0 1 1.74.87c-.13 1.12-.33 2.24-.48 3.36-.06.37-.08.75-.12 1.12s-.24.58.08.7.6-.2.8-.47a10.32 10.32 0 0 0 2.86-5.1c.14-.54.33-.92 1-.78s.33.68.27 1c-.24 1.43-.55 2.86-.8 4.3-.06.3-.26.76.1 1s.68-.22.9-.5.4-.52.77-.4l.06.5-.75 1-.18.1c-.58.44-1.2.94-1.95.57s-.34-1.1-.43-1.68a1.17 1.17 0 0 0 .08-1 2.5 2.5 0 0 0-.77 1 9.26 9.26 0 0 1-1.7 1.5c-.45.22-1 .5-1.44.16a1.24 1.24 0 0 1-.37-1.32c.18-1.22.42-2.44.62-3.66a5.07 5.07 0 0 0 0-.6c.08-.17.13-.37-.06-.43s-.4.13-.47.35zM141.37 70.24l.58-.23c1.52-.53 2.6.15 2.6 1.77 0 1.17-.2 2.35-.27 3.52 0 .28-.22.66.1.85s.52-.22.75-.4.32-.44.6-.18 0 .4-.1.56a3 3 0 0 1-.9 1 1.37 1.37 0 0 1-1.35.32c-.57-.24-.5-.8-.47-1.26.1-1.32.22-2.63.32-3.94 0-.52.1-1.08-.56-1.3a1.28 1.28 0 0 0-1.55.5 5.57 5.57 0 0 0-.88 2.52c-.15.92-.3 1.84-.4 2.77-.07.58-.35.78-.9.73s-.6-.48-.52-.9c.2-1.27.4-2.53.6-3.8a4.64 4.64 0 0 0 .07-.82c0-.23.07-.52-.2-.64s-.44.14-.6.3-.25.73-.64.5-.1-.63 0-.93c.5-1.23 1.4-1.58 2.3-.94.15.3 0 .72.3 1zM95.6 21.8c.76.1 1.2-.42 1.65-.9.2-.18.43-.44.7-.2s0 .5-.12.7c-.3.42-.66.8-1 1.2l-.72.5c-.25.08-.5.2-.77.26a1.5 1.5 0 0 1-2.08-1.47 14 14 0 0 1 .24-3.2c.1-.9.23-1.8.37-2.68.1-.6.38-1.25-.67-1.3-.34 0-.36-.4-.1-.63s.45-.34.67-.5a1.7 1.7 0 0 0 1.07-.86h.1c.43-.3.53-1.23 1.16-1s-.08 1 .1 1.5c-.13.18-.3.37 0 .52s1 0 1.44.1a.46.46 0 0 1 .47.44.5.5 0 0 1-.47.56h-.3c-1.66.12-1.7.1-1.92 1.72a18.66 18.66 0 0 0-.4 4.67c0 .4.2.6.6.55zM96.77 70.66c1.08-1 1.37-1.07 2.1-.22.07.25 0 .63.2.72s.4-.25.6-.38a1.78 1.78 0 0 0 .34-.36c.26-.12.5-.26.75-.37 1.47-.63 2.62 0 2.64 1.62 0 1.24-.18 2.48-.24 3.72 0 .26-.22.66.17.8s.47-.2.65-.4a.7.7 0 0 1 .7-.35l-.15.78-.3.38-.4.44c-.17.1-.35.2-.54.28-1 .42-1.52.13-1.5-.92 0-1.35.2-2.7.3-4 0-.58.17-1.22-.6-1.45a1.34 1.34 0 0 0-1.65.75c-.8 1.32-.76 2.85-1.08 4.3-.13.56.23 1.63-.9 1.46s-.44-1.1-.42-1.66c.06-1.24.5-2.43.46-3.7 0-.3.2-.68-.22-.77s-.54.23-.6.57c-.23.2-.43.43-.76.18a3.54 3.54 0 0 1 .45-1.42zM55.2 75.38c.56.42-.05.74-.08 1.1l-1.12 1c-1.26.14-1.55-.12-1.46-1.4s.22-2.54.34-3.8c0-.55.06-1.08-.57-1.3a1.32 1.32 0 0 0-1.6.58 4.65 4.65 0 0 0-.7 1.88c-.18 1-.32 2-.5 3.07s-.33 1.16-1.45.76l-.05-.4c.26-1.55.53-3.1.77-4.67 0-.32.16-.77-.26-.9s-.5.25-.67.5-.24.5-.54.32-.15-.43-.1-.66c.34-1.3 1.43-1.87 2.4-1.26l.3 1.26.87-1c.24-.13.48-.27.73-.38 1.5-.7 2.7 0 2.72 1.65 0 1.17-.1 2.35-.18 3.52-.1.33-.24.77 0 .94s.53-.3.78-.5zM81.14 16l-.25.45c-.13.2-.23.48-.53.4s-.22-.4-.2-.62a4.23 4.23 0 0 1 .77-2.1c.78-1.14 1.76-1.08 2.38.13.15.3.28.62.42.93.5-.14.64-.57.92-.85a3 3 0 0 1 1.53-1c.57-.1 1.22 0 1.34.62a1.78 1.78 0 0 1-.62 1.77c-.47.34-.48-.44-.8-.56-1-.7-1.2.15-1.48.8-.73 2-.77 4.22-1.16 6.33-.07.4 0 .84-.64.9-1 .1-1.23-.08-1.06-1.1.24-1.48.48-2.95.72-4.42a4 4 0 0 0-.04-1.68c0-.4-.2-.75-.63-.76s-.6.4-.7.76zM25.5 77.26a13 13 0 0 1-1.3.33 2.64 2.64 0 0 1-3.2-2.3 4.83 4.83 0 0 1 1.6-4.6c1.8-1.6 4-1.05 5.07 1.18 0 .14.05.27.08.4a5.75 5.75 0 0 1-1.5 4.47zm-3.22-2.73c0 1.56.34 2.28 1.2 2.47s1.92-.5 2.42-1.82a7.17 7.17 0 0 0 .42-2.85c0-.84-.18-1.63-1.14-1.86a1.88 1.88 0 0 0-2.1 1 5.73 5.73 0 0 0-.8 3.06zM106.5 20.34c.67-.12.64.25.46.66a4.27 4.27 0 0 1-1.6 2c-1 .64-1.8.26-1.87-.93a18.92 18.92 0 0 1 .55-4.63c.1-.5.2-1 .32-1.52.22-.84.4-1.6-.94-1.46a.4.4 0 0 1-.48-.4c0-.24.26-.32.47-.34.86-.08 1.7-.2 2.56-.35s.52.46.44.83c-.36 1.87-.74 3.73-1.12 5.6a5.8 5.8 0 0 0-.06.62c-.06.36-.3.86.08 1s.58-.35.82-.6.25-.3.37-.48zM125.66 18.13L125.3 20c-.05.5-.42 1.24.1 1.47s.65-.62 1-.94a.58.58 0 0 0 .1-.18c.73-.13.63.32.43.7s-.63 1-1 1.54l-1 .68c-1.2 0-1.6-.34-1.56-1.6a33.62 33.62 0 0 1 .92-5.85c.16-.8.27-1.48-.92-1.34-.25 0-.52-.1-.53-.4s.28-.35.53-.37a14.18 14.18 0 0 0 2.46-.36c.5-.13.6.18.53.6-.1.62-.24 1.23-.36 1.84l-.14.86a.87.87 0 0 0-.13.65 1.25 1.25 0 0 0-.07.83zM105 75.4a7.88 7.88 0 0 1 .88-3.4 11 11 0 0 1 1.74-1.75 8.3 8.3 0 0 1 .87-.32 1.72 1.72 0 0 1 2.1.64 1.85 1.85 0 0 1-.6 2.32 4.8 4.8 0 0 1-2.8 1c-.84 0-1 .36-.73 1.1a1.24 1.24 0 0 0 .76 1.2 2.44 2.44 0 0 0 2.63-.14c.25-.14.57-.5.8-.13s-.2.54-.42.74a3.28 3.28 0 0 1-5-.43c-.1-.24-.18-.55-.24-.83zm2.14-2.07a3.2 3.2 0 0 0 2.15-1.2c.25-.4.43-.83.07-1.25a.9.9 0 0 0-1.23-.1 3.5 3.5 0 0 0-1.58 2.1c-.15.4.07.5.57.46zM40.63 75.4a7.27 7.27 0 0 1 1.06-3.67l1.3-1.3a8.23 8.23 0 0 1 1.44-.56 1.53 1.53 0 0 1 1.8.68 1.74 1.74 0 0 1-.25 2 7.43 7.43 0 0 1-.76.7l-.86.34a7.8 7.8 0 0 0-1.2.26c-.4.15-1.13-.27-1.16.5a1.8 1.8 0 0 0 .9 1.85 2.54 2.54 0 0 0 2.57-.15c.24-.15.56-.52.8-.18s-.2.6-.46.8a3.67 3.67 0 0 1-4.57.14zm2.06-2.06A3.06 3.06 0 0 0 45 71.9a.87.87 0 0 0 0-1.06.85.85 0 0 0-1.05-.12 3.45 3.45 0 0 0-1.73 2.22c-.22.45.16.4.48.4zM150.82 75a7.18 7.18 0 0 1 1.08-3.27l1.26-1.3c.3-.14.6-.3.92-.42 1.4-.5 2.24 0 2.6 1.46l-.54 1.2-.5.47-.66.35a7.27 7.27 0 0 1-1.8.4c-1.2 0-1.1.6-.88 1.38a1 1 0 0 0 .36.6.73.73 0 0 0 .65.46 2.4 2.4 0 0 0 2.46-.3c.2-.12.43-.34.65-.16s-.05.48-.13.72l-.48.38c-1.5.7-3 1.15-4.4-.13a3.86 3.86 0 0 1-.58-1.83zm2.1-1.66a3.08 3.08 0 0 0 2.22-1.34.87.87 0 0 0-1.2-1.26 3.67 3.67 0 0 0-1.57 2.1c-.16.45.06.54.54.5zM190.26 77.24a16.3 16.3 0 0 1-1.6.37 2.36 2.36 0 0 1-2.84-2.3 5.43 5.43 0 0 1 2.7-5.05 2 2 0 0 1 2.8.26c.53.87.12 1.95-1 2.7l-.34.24-.62.24-2.06.33c-.14 0-.18 0-.15.16a1.37 1.37 0 0 0 .15 1 .8.8 0 0 0 .4.74 2.78 2.78 0 0 0 3.36-.18c1 .37 0 .66 0 1zM188 73.32a2.87 2.87 0 0 0 2.17-1.38.9.9 0 0 0-.17-1.14.9.9 0 0 0-1.06 0 3.5 3.5 0 0 0-1.65 2.15c-.13.33.1.44.7.37zM113.54 76.9h.2a.9.9 0 0 0 1-.42c.5-.57.25-1.1-.13-1.6a11.3 11.3 0 0 0-1.15-1.16c-1.12-1.07-1.35-2.3-.57-3.2a2.56 2.56 0 0 1 3.46-.07l.14.58c-.4.6-.9.64-1.35.08s-.64-1-1.22-.47-.37 1 .14 1.48a2.62 2.62 0 0 0 .94.9 3.52 3.52 0 0 1 1.18 2.66 2 2 0 0 1-1.6 1.8 2.82 2.82 0 0 1-2.83-.47.7.7 0 0 1-.14-.87c.2-.4.56-.32.9-.3.38.33.37 1.04 1.04 1.06zM87.5 75.76a1.18 1.18 0 0 1 .8.6 1 1 0 0 0 1.65.36c.67-.43.55-1 .2-1.63a2.68 2.68 0 0 0-.9-1l-1-1.07a2.58 2.58 0 0 1-.2-2.2l.3-.46A3 3 0 0 1 91 70a1.1 1.1 0 0 1 .86.93.5.5 0 0 1-.36.56c-.53.17-.84-.12-1.1-.54s-.6-.6-1-.3a.8.8 0 0 0-.18 1.2 10.34 10.34 0 0 0 1.73 1.76l.3.38c.63 1.56.46 2.58-.52 3.2a3 3 0 0 1-3.7-.34c-.3-.3.27-.72-.13-1 .23.33.4-.1.6-.1zM118.37 73c-.7-2.07.37-3.45 2.43-3.14a1.55 1.55 0 0 1 .93.4c.3.32.56.7.14 1.08a.68.68 0 0 1-1.07-.16c-.34-.45-.67-1-1.3-.47s-.18 1.15.27 1.62.9.85 1.35 1.28l.42.63a2.17 2.17 0 0 1-.38 2.76 3.1 3.1 0 0 1-3.23.42 1 1 0 0 1-.74-1 .5.5 0 0 1 .38-.54c.5-.1.76.2 1 .6a1 1 0 0 0 1.52.33 1 1 0 0 0 .4-1.5 2 2 0 0 0-.82-.93zM61.54 75.6A3 3 0 0 0 60.3 74l-.76-.73a2.15 2.15 0 0 1-.2-2.53 2.4 2.4 0 0 1 2.4-.88 1.52 1.52 0 0 1 .95.4c.33.32.52.74.13 1.08s-.8.12-1.14-.27c-.76-.87-1.08-.82-1.44.2a.83.83 0 0 0 .4.9c.5.53 1 1 1.5 1.58a2.27 2.27 0 0 1 .1 3.1 3.26 3.26 0 0 1-3.66.4 1.16 1.16 0 0 1-.45-1.25l.2-.2h.8c.1.18.23.35.33.52a1 1 0 0 0 1.4.48c.56-.16.9-.54.66-1.2zM181.66 73.56a9.12 9.12 0 0 1-.52-.77 2 2 0 0 1 .5-2.53 2.65 2.65 0 0 1 2.92 0c.3.3.52.67.2 1-.5.52-.94.17-1.3-.26-.14-.33-.34-.57-.75-.48-.7.16-.77.6-.53 1.2a1 1 0 0 0 .52.6c.44.48.9.94 1.32 1.44a2.35 2.35 0 0 1 .07 3.13 3.24 3.24 0 0 1-3.7.32.93.93 0 0 1-.4-.9.53.53 0 0 1 .46-.47.7.7 0 0 1 .78.4 1.1 1.1 0 0 0 1.8.44c.8-.6.4-1.3-.06-1.9a5.5 5.5 0 0 0-.68-.64zM148.7 68.6c.8-.13.53.43.44.78-.15.6-.1.92.65.83.3 0 .78-.13.8.38s-.5.5-.84.44c-.76-.12-1 .2-1.12.93-.13 1.16-.37 2.32-.5 3.48-.08.78.23 1.16 1 .73l.27-.12c.34-.16.56-.84.95-.5s-.24.67-.38 1v.1a9.7 9.7 0 0 1-1.2.8c-1.16.5-1.93.05-2-1.2a28.1 28.1 0 0 1 .4-3.9c.05-.5.46-1.07-.48-1.5-.62-.26.4-.5.54-.85.76-.25 1.05-.87 1.45-1.4zM157.3 71.46l.32-.62c.67-1.25 1.28-1.3 2.16-.2 0 .2 0 .56.26.58s.44-.34.6-.58c.62-.52 1.25-1.1 2.16-.6.27.2 0 .64.32.82-.28-.13-.18.1-.2.22-.3.52-.44 1.16-1.18.27-.48-.58-.84.08-1 .5a16.35 16.35 0 0 0-.7 3.46 12 12 0 0 0-.2 1.45c0 .56-.28.8-.86.76-.74-.06-.54-.56-.47-1 .18-1.12.38-2.24.54-3.38a4.3 4.3 0 0 0 0-1c0-.28-.12-.57-.46-.6s-.38.23-.52.43-.13 1-.8.6zM94.44 77.45c-1 .2-1.33-.32-1.3-1.2a25.64 25.64 0 0 1 .66-4.4c.1-.58.3-1.14-.64-1.08-.2 0-.43-.1-.4-.36s.2-.23.38-.25l1.86-.27c.72-.1.42.43.46.74l-.36 1.63a13.77 13.77 0 0 0-.55 3.26c-.1.2-.2.4 0 .52s.3 0 .37-.2l.15-.12c.2-.2.32-.66.67-.44s.06.54-.07.8c0 .1-.07.2-.1.28zM166.2 43.87a1.46 1.46 0 0 1-1.34-1.54 1.88 1.88 0 0 1 1.7-1.88 1.4 1.4 0 0 1 1.38 1.55 1.82 1.82 0 0 1-1.73 1.87zM151 36.48a1.74 1.74 0 0 1 1.55 1.86 1.48 1.48 0 0 1-1.37 1.66 1.77 1.77 0 0 1-1.62-2 1.48 1.48 0 0 1 1.44-1.52zM56.46 66.67c-.6-.7-.06-1.1.43-1.4s.8.14 1 .55a3.3 3.3 0 0 1-1.32 3.8c-.15.08-.3.2-.47 0s-.06-.3 0-.45l.36-.5c.54-.67 1.02-1.36 0-2zM127.13 9.75c-.18.56-.4 1.26-1.06 1.2s-.86-.78-.84-1.37.4-1.17 1-1.15.77.74.9 1.32zM106.94 10.37c-.32.22-.5.78-1 .55a1.4 1.4 0 0 1-.7-1.3 1.2 1.2 0 0 1 .76-1.15c.78-.3.76.58 1.13.9-.13.33-.13.63-.2 1zM96 67.08c-.1.5-.3 1-.8 1s-.7-.57-.7-1a.87.87 0 0 1 .78-.95c.48-.02.53.56.72.95zM179.57 67.05c-.05.5-.28 1-.74 1s-.7-.5-.73-1a.85.85 0 0 1 .7-1c.52 0 .6.6.77 1zM159.94 34h-.38l.22-1h.22c0 .27 0 .6-.06 1zM87.43 61.46"/><path fill="#fff" d="M160 32.93zM174.28 39.22z"/></svg>