<svg id="Layer_1" data-name="Layer 1" xmlns="http://www.w3.org/2000/svg" xmlns:xlink="http://www.w3.org/1999/xlink" viewBox="0 0 18.08 18.08"><defs><clipPath id="clip-path" transform="translate(-272 -378.92)"><rect x="263" y="371.92" width="36.08" height="26.08" style="fill:none"/></clipPath></defs><title>linkedin</title><g style="clip-path:url(#clip-path)"><path d="M281.7,387.1v0l0,0h0Zm5.42,6.8h-2.64v-4.25c0-1.07-.38-1.8-1.34-1.8a1.45,1.45,0,0,0-1.36,1,1.8,1.8,0,0,0-.09.64v4.44h-2.64s0-7.2,0-8h2.64v1.13a2.62,2.62,0,0,1,2.38-1.32c1.74,0,3,1.14,3,3.58v4.56Zm-9.36-10.41a1.38,1.38,0,0,1-1.49,1.37h0a1.38,1.38,0,1,1,1.51-1.37M275,387.64a1.44,1.44,0,0,1,1.32-1.69h1.32v8H275v-6.26Zm15.13,6.4V381.89a3,3,0,0,0-3-3H275a3,3,0,0,0-3,3V394a3,3,0,0,0,3,3h12.15a3,3,0,0,0,3-3" transform="translate(-272 -378.92)" style="fill:#fff"/></g></svg>