<svg id="Layer_1" data-name="Layer 1" xmlns="http://www.w3.org/2000/svg" xmlns:xlink="http://www.w3.org/1999/xlink" viewBox="0 0 18.08 18.08"><defs><clipPath id="clip-path" transform="translate(-297 -386.92)"><rect x="297" y="386.92" width="18.08" height="18.08" style="fill:none"/></clipPath></defs><title>twitter</title><g style="clip-path:url(#clip-path)"><path d="M310.52,392.71a4.77,4.77,0,0,0,1.38-.38,4.74,4.74,0,0,1-1,1.08,0.5,0.5,0,0,0-.23.22c0,0.05,0,.15,0,0.26a6.79,6.79,0,0,1-6.84,6.84,6.63,6.63,0,0,1-3.15-.74c-0.53-.34-0.44-0.33-0.44-0.33l0.48,0a4.71,4.71,0,0,0,2.57-.71c0.41-.32-0.11-0.33-0.11-0.33a2.26,2.26,0,0,1-1.57-1.18c-0.15-.48-0.08-0.46-0.08-0.46a2.22,2.22,0,0,0,.38,0,2.39,2.39,0,0,0,.53-0.06,1.27,1.27,0,0,0-.45-0.14,2.4,2.4,0,0,1-1.38-2.25v0a2.41,2.41,0,0,0,1.09.3,2.4,2.4,0,0,1-.74-3.21,6.83,6.83,0,0,0,5,2.51A2.41,2.41,0,0,1,310,392a4.8,4.8,0,0,0,1.52-.58,2.41,2.41,0,0,1-1.06,1.33m4.56,9.33V389.89a3,3,0,0,0-3-3H300a3,3,0,0,0-3,3V402a3,3,0,0,0,3,3h12.15a3,3,0,0,0,3-3" transform="translate(-297 -386.92)" style="fill:#fff"/></g></svg>