<svg id="Layer_1" data-name="Layer 1" xmlns="http://www.w3.org/2000/svg" width="40" height="40" viewBox="0 0 40 40"><title>icon-linkedin</title><path d="M37.5,0H2.5A2.5,2.5,0,0,0,0,2.5v35A2.5,2.5,0,0,0,2.5,40h35A2.5,2.5,0,0,0,40,37.5V2.5A2.5,2.5,0,0,0,37.5,0ZM13.75,31.25h-5V13.75h5ZM11.25,12.5a2.5,2.5,0,1,1,2.5-2.5A2.5,2.5,0,0,1,11.25,12.5Zm20,18.75h-5v-10a2.26,2.26,0,0,0-2.5-2.5,2.25,2.25,0,0,0-2.5,2.5v10h-5V13.75h5v2.5c.28-1.23.89-2.5,4.37-2.5,5,0,5.63,3.75,5.63,8.75Z" style="fill:#fff"/></svg>