<svg id="Layer_1" data-name="Layer 1" xmlns="http://www.w3.org/2000/svg" width="169" height="58" viewBox="0 0 169 58"><title>gpart</title><rect x="16" width="153" height="58" style="fill:#fff"/><rect x="0.06" width="16.37" height="58" style="fill:#4094d0"/><path d="M30.59,51.77h-3.2V26.87h8.49A7.87,7.87,0,0,1,41.36,29a7.24,7.24,0,0,1,0,10.61,7.87,7.87,0,0,1-5.48,2.1H30.59Zm0-13.15H36a4.14,4.14,0,0,0,3.23-1.36,4.28,4.28,0,0,0,0-6A4.14,4.14,0,0,0,36,29.93H30.59Z" style="fill:#8a8c8f"/><path d="M51.15,52.33a6.73,6.73,0,0,1-4.54-1.56,5.19,5.19,0,0,1-1.83-4.14,5.12,5.12,0,0,1,2.16-4.37,8.76,8.76,0,0,1,5.32-1.58,9.16,9.16,0,0,1,4.63,1v-.49a3.81,3.81,0,0,0-1.29-3,4.63,4.63,0,0,0-3.16-1.13,4.91,4.91,0,0,0-2.52.66,3.41,3.41,0,0,0-1.55,1.81l-2.92-1.25a6.62,6.62,0,0,1,2.33-2.84,7.47,7.47,0,0,1,4.59-1.3,7.88,7.88,0,0,1,5.43,1.91A6.83,6.83,0,0,1,60,41.47v10.3H56.89V49.4h-.14A6.27,6.27,0,0,1,51.15,52.33Zm.52-2.92a5.21,5.21,0,0,0,3.6-1.48,4.59,4.59,0,0,0,1.62-3.5,6.32,6.32,0,0,0-4.07-1.11,5.29,5.29,0,0,0-3.51,1,3,3,0,0,0-1.18,2.37,2.28,2.28,0,0,0,1.08,2A4.29,4.29,0,0,0,51.67,49.4Z" style="fill:#8a8c8f"/><path d="M66.63,34.73v2.78h.14a4.43,4.43,0,0,1,2.07-2.35,6.66,6.66,0,0,1,3.32-.85,10.53,10.53,0,0,1,1.15.07v3.13A12.39,12.39,0,0,0,72,37.44a5.4,5.4,0,0,0-3.77,1.34,4.7,4.7,0,0,0-1.48,3.67v9.32h-3.2v-17ZM84.16,52a4.95,4.95,0,0,1-5.5-5.46V37.65h-3V34.73h3V29.51h3.2v5.22H86v2.92H81.86v8.7q0,2.78,2.3,2.78a3.43,3.43,0,0,0,1.46-.28l1.11,2.75A6.49,6.49,0,0,1,84.16,52Z" style="fill:#8a8c8f"/><path d="M92.33,34.73v2.36h.14A5.67,5.67,0,0,1,94.66,35a6.36,6.36,0,0,1,3.2-.85,6,6,0,0,1,4.83,1.95,7.74,7.74,0,0,1,1.67,5.22V51.77h-3.2V41.82q0-4.73-4.21-4.73a3.94,3.94,0,0,0-3.23,1.58,5.75,5.75,0,0,0-1.25,3.67v9.43h-3.2v-17Z" style="fill:#8a8c8f"/><path d="M115.85,52.33a8.22,8.22,0,0,1-6.28-2.57,9.12,9.12,0,0,1-2.42-6.5,9.39,9.39,0,0,1,2.35-6.4,7.62,7.62,0,0,1,6-2.68,7.87,7.87,0,0,1,6.07,2.47,9.37,9.37,0,0,1,2.28,6.61l0,.59H110.35a5.78,5.78,0,0,0,1.72,4.07,5.22,5.22,0,0,0,3.7,1.5,4.59,4.59,0,0,0,4.66-2.92l2.85,1.18A7.65,7.65,0,0,1,120.54,51,8,8,0,0,1,115.85,52.33Zm4.59-11.13a4.55,4.55,0,0,0-1.34-2.78,4.79,4.79,0,0,0-3.67-1.32,4.59,4.59,0,0,0-3.08,1.11,5.68,5.68,0,0,0-1.79,3Z" style="fill:#8a8c8f"/><path d="M130,51.77h-3.2v-17h3.06v2.78H130a4.38,4.38,0,0,1,2-2.3,5.74,5.74,0,0,1,2.94-.9,6.11,6.11,0,0,1,2.4.42l-1.22,3a4.82,4.82,0,0,0-1.7-.24,4.18,4.18,0,0,0-3.08,1.37,4.94,4.94,0,0,0-1.34,3.6Z" style="fill:#8a8c8f"/><path d="M34.69,21.16a7.75,7.75,0,0,1-7.75-7.64,7.75,7.75,0,0,1,7.75-7.64A7.28,7.28,0,0,1,39.92,8L38.45,9.46A5.32,5.32,0,0,0,34.69,8a5.48,5.48,0,0,0-5.48,5.55,5.48,5.48,0,0,0,5.48,5.55,5.11,5.11,0,0,0,3.86-1.53,4.36,4.36,0,0,0,1.14-2.63h-5V12.78h7a7.49,7.49,0,0,1,.11,1.36A6.89,6.89,0,0,1,40,19,7,7,0,0,1,34.69,21.16Z" style="fill:#4094d0"/><path d="M53,16.25A4.94,4.94,0,1,1,48,11.33,4.86,4.86,0,0,1,53,16.25Zm-2.16,0a2.78,2.78,0,1,0-5.55,0,2.78,2.78,0,1,0,5.55,0Z" style="fill:#ee4636"/><path d="M64.15,16.25a4.94,4.94,0,1,1-4.94-4.92A4.86,4.86,0,0,1,64.15,16.25Zm-2.16,0a2.78,2.78,0,1,0-5.55,0,2.78,2.78,0,1,0,5.55,0Z" style="fill:#ffc10e"/><path d="M74.83,11.62v8.83c0,3.63-2.14,5.12-4.68,5.12a4.69,4.69,0,0,1-4.36-2.91l1.88-.78a2.72,2.72,0,0,0,2.48,1.75c1.62,0,2.63-1,2.63-2.89V20h-.08a3.35,3.35,0,0,1-2.59,1.12,4.92,4.92,0,0,1,0-9.84,3.41,3.41,0,0,1,2.59,1.1h.08v-.8Zm-1.9,4.64a2.77,2.77,0,0,0-2.63-3,2.84,2.84,0,0,0-2.74,3,2.82,2.82,0,0,0,2.74,3A2.75,2.75,0,0,0,72.93,16.26Z" style="fill:#4094d0"/><path d="M79.09,6.41V20.87H76.93V6.41Z" style="fill:#2fb355"/><path d="M87.89,17.87,89.57,19a4.89,4.89,0,0,1-4.1,2.18,4.81,4.81,0,0,1-4.88-4.92,4.68,4.68,0,0,1,4.64-4.92,4.57,4.57,0,0,1,4.21,3.13l.22.56-6.58,2.72a2.5,2.5,0,0,0,2.38,1.49A2.81,2.81,0,0,0,87.89,17.87ZM82.73,16.1l4.4-1.83a1.9,1.9,0,0,0-1.83-1A2.7,2.7,0,0,0,82.73,16.1Z" style="fill:#ee4636"/></svg>