<svg id="Layer_1" data-name="Layer 1" xmlns="http://www.w3.org/2000/svg" width="200" height="86.88" viewBox="0 0 200 86.88"><title>wbenc-white-200</title><path d="M.38,15.34a16.89,16.89,0,0,1,1.19-4.49C3.74,5.57,7.23,1.74,13,.4c.25-.06.48-.1.54-.4H186.46s.09.12.15.13.13,0,.06-.13h.42c0,.53.48.4.77.48a14.79,14.79,0,0,1,4,1.86c4.23,2.84,6.52,6.94,7.65,11.8.07.31-.12.81.47.86V70.83c-.15.14-.3.28,0,.42v.83c-.47,0-.37.41-.44.68-1.57,6.53-5,11.51-11.66,13.67-.21.07-.52.06-.41.44h-.83c-.06-.12-.06-.12-.21,0H13.54c-.07,0-.14-.25-.21,0H12.5c.08-.58-.45-.44-.7-.53a15.38,15.38,0,0,1-3.56-1.67C3.92,81.88,1.62,77.75.45,72.87c-.07-.3.08-.74-.45-.78v-.83c.3-.14.15-.28,0-.42M188.37,3a10.33,10.33,0,0,0-4.47-.78H16.44c-.38,0-.76,0-1.14,0A11.61,11.61,0,0,0,6.64,6.57a2.18,2.18,0,0,0-.77.93,9.44,9.44,0,0,0-1.76,2.89,2.43,2.43,0,0,0-.47,1,16.81,16.81,0,0,0-1.39,7q0,25,0,50.1a17.6,17.6,0,0,0,2.12,8.6C7.05,82,11,84.68,16.78,84.67q47.13-.12,94.26,0h73a9.89,9.89,0,0,0,4.92-1l.42-.2a13,13,0,0,0,6-6,1.69,1.69,0,0,0,.45-.87,16.46,16.46,0,0,0,1.85-7.91q0-25.13,0-50.27a15.93,15.93,0,0,0-1.47-7.05,4.54,4.54,0,0,0-.82-1.72,12.88,12.88,0,0,0-5.64-5.82A3.3,3.3,0,0,0,188.37,3Z" style="fill:#fff"/><path d="M200,71.25c-.3-.14-.15-.28,0-.42Z" style="fill:#fff"/><path d="M0,70.83c.15.14.3.28,0,.42Z" style="fill:#fff"/><path d="M13.33,86.87c.07-.25.14,0,.21,0Z" style="fill:#fff"/><path d="M186.46,86.87c.15-.12.15-.12.21,0Z" style="fill:#fff"/><path d="M62.25,29.44h6.42a.87.87,0,0,0,.64.09,20.1,20.1,0,0,1,2.8.77,7.1,7.1,0,0,1,4.68,5.88,6.74,6.74,0,0,1-3.07,6.91c-.17.12-.32.26-.47.4s-.27,0-.25.22.14.19.27.21l3,1.32,1.13.85c4.68,4.46,2.24,14.07-6,15.59-2.52.47-5,.09-7.57.18a13.21,13.21,0,0,0-2.92,0l-5.21.06-.4-.08c-.74-.58-.54-1,.2-1.38a6.5,6.5,0,0,1,1-.34,2.15,2.15,0,0,0,1.53-1.56,7.41,7.41,0,0,0,.27-2.27q0-10.83,0-21.66a2.47,2.47,0,0,0-.24-1.51c0-.32-.15-.73-.48-.68s-.47.54-.57.9a5.85,5.85,0,0,0-.7,1.65l-.29.6L50.51,48.73l-.18.43c-1.15,2.42-2.17,4.89-3.15,7.39a1.86,1.86,0,0,0-.39.94c-.62,1.39-1.21,2.79-1.87,4.16-.53,1.1-1.1,1.25-2,.62L42.27,61c-1.52-3.85-3.08-7.69-4.81-11.45a1.19,1.19,0,0,0-.4-.83,1.21,1.21,0,0,0-.38.8L34.06,56l-.27.61c-.66,1.62-1.34,3.24-2,4.87-.23.56-.49,1.11-1.17,1.17s-1-.56-1.22-1.08-.49-1.06-.73-1.59a.42.42,0,0,0-.17-.43,12.48,12.48,0,0,0-1.07-2.69.45.45,0,0,0-.17-.43,25.26,25.26,0,0,0-1.41-3.55l-.28-.63c-.86-2.39-1.83-4.74-2.84-7.07a.87.87,0,0,0-.25-.61l-.57-1.47-.42-1-2.06-5a.92.92,0,0,0-.26-.62,15.67,15.67,0,0,0-1.56-3.72.66.66,0,0,0-.4-.5,3.21,3.21,0,0,0-1.7-1.09c-.44-.18-.83-.4-.73-1a.93.93,0,0,1,1-.74c.75,0,1.51,0,2.26,0a3.19,3.19,0,0,0,1.27.09l1.46,0a1.4,1.4,0,0,0,.85-.08l1.45,0c.34,0,.62.06.74.42a.75.75,0,0,1-.33.9c-.14.1-.3.18-.44.27-1.2.72-1.36,1.21-.8,2.58q2.82,7,5.65,13.94c.45,1.12.94,2.22,1.41,3.33a1.78,1.78,0,0,0,.33.87l1.19,2.88c.12.4.15,1,.62,1s.4-.45.44-.78q1.46-3.08,2.65-6.27a.43.43,0,0,0,.18-.42.81.81,0,0,0,.26-.61.45.45,0,0,0,.18-.43c1.17-1.7.11-3.13-.56-4.61a.85.85,0,0,0-.27-.6A15.43,15.43,0,0,0,33.1,39a.44.44,0,0,0-.18-.43,24.26,24.26,0,0,0-1.54-3.72.92.92,0,0,0-.26-.67l-.41-1A1.68,1.68,0,0,0,30,32,2.8,2.8,0,0,0,28,31.2a3,3,0,0,1-1.63-.57,1.28,1.28,0,0,1,.23-1.2l3.29,0,1.06.08a13.94,13.94,0,0,0,2.71,0c.29,0,.58.12.85-.09l1.35,0c.38,0,.7,0,.79.49a.85.85,0,0,1-.38.89c-1.71,1.29-1.71,1.32-.92,3.26s1.51,3.71,2.26,5.56c0,.25.07.58.32.57s.32-.32.32-.58l.54-1.21L39,38a30.27,30.27,0,0,0,1.85-4.47c.38-1.24.09-1.74-1.07-2.31-.58-.29-1.59-.39-1.33-1.27s1.17-.43,1.83-.45H41a1.53,1.53,0,0,0,.86.08h1.87a1.34,1.34,0,0,0,.83-.1c.55.17,1.36-.42,1.66.36s-.6.93-1,1.3a8.52,8.52,0,0,0-2,3.1c-.25.53-.44,1.08-.66,1.62a1.06,1.06,0,0,0-.26.67,25.88,25.88,0,0,0-1.7,3.95.44.44,0,0,0-.19.43,4.3,4.3,0,0,0-.37,4.4c.64,1.44,1.23,2.9,1.84,4.36a.92.92,0,0,0,.26.67,35.62,35.62,0,0,0,1.79,4.33A.44.44,0,0,0,44,55l.2.42c0,.25.16.5.4.52s.33-.28.39-.51A56.42,56.42,0,0,0,47.28,50a6.62,6.62,0,0,0,.76-1.9c1.38-3.07,2.61-6.21,3.82-9.36a1.5,1.5,0,0,0,.34-.85,20,20,0,0,0,1.34-3.31,1.34,1.34,0,0,0,.34-.86,1.35,1.35,0,0,0,.07-1.25.84.84,0,0,0-.68-.82c-.44-.43-1.06-.45-1.58-.71a.81.81,0,0,1-.51-1A.74.74,0,0,1,52,29.4l1.44,0a1.46,1.46,0,0,0,.85.09,63.58,63.58,0,0,0,6.45,0Zm.14,22.71c0,1.84,0,3.68,0,5.52,0,1.49.49,2.09,2,2.35a17.46,17.46,0,0,0,6.21.07,6,6,0,0,0,5.22-5.43,11.77,11.77,0,0,0-.1-3.42,6.13,6.13,0,0,0-3.84-4.83,16.69,16.69,0,0,0-8.57-1c-.67.08-.92.42-.9,1.11C62.42,48.4,62.39,50.27,62.39,52.15Zm0-14.44h0c0,1.56,0,3.12,0,4.68,0,.53.13.9.71.94a18.45,18.45,0,0,0,7.82-.64,3.3,3.3,0,0,0,2.35-2.56,7.64,7.64,0,0,0-.06-3c-.92-4-5.83-6.84-9.78-5.72a1.27,1.27,0,0,0-1,1.39C62.39,34.45,62.39,36.08,62.39,37.71Z" style="fill:#fff"/><path d="M109.85,29.41l1.42,0,.82.78a13.41,13.41,0,0,0,2,2.27,5.3,5.3,0,0,0,1.18,1.28,7.69,7.69,0,0,0,1.48,1.63,1.36,1.36,0,0,0,.6.68,2,2,0,0,0,.68.77,2.38,2.38,0,0,0,.79.86,6.3,6.3,0,0,0,1.3,1.43,2.25,2.25,0,0,0,.78.87,5.86,5.86,0,0,0,1.27,1.43,2.42,2.42,0,0,0,.81.87,1.86,1.86,0,0,0,.69.78,2.33,2.33,0,0,0,.78.86,4.76,4.76,0,0,0,1.1,1.24,6.76,6.76,0,0,0,1.38,1.51.52.52,0,0,0,.35.4,1,1,0,0,0,.51.57,10.16,10.16,0,0,0,1.54,1.73,7.23,7.23,0,0,0,1.35,1.48,22.71,22.71,0,0,0,2.42,2.68c.3.38.52.85,1.13,1,0-.34,0-.6-.06-.86,0-2,.06-4,.06-6q0-6,0-12a4.44,4.44,0,0,0-.67-2.77,1.93,1.93,0,0,0-1.19-1.17,6.63,6.63,0,0,0-2.23-.81c-.48-.16-1-.35-.9-1s.67-.57,1.14-.58,1,0,1.56,0a3,3,0,0,0,1.27.1H135a3.39,3.39,0,0,0,1.47-.11h2c.33,0,.64.06.74.43a.79.79,0,0,1-.36.9.33.33,0,0,1-.09.06c-2.16.63-2.21,2.34-2.2,4.15,0,8.31,0,16.62,0,24.93,0,.34,0,.69,0,1-.07,1.24-.29,1.38-1.45.94l-1.31-1.26a21.12,21.12,0,0,0-2.19-2.5,3.78,3.78,0,0,0-.94-1q-2.94-3.51-6.09-6.84a3.84,3.84,0,0,0-1-1.13l-.48-.54a3.54,3.54,0,0,0-1-1.06,30.93,30.93,0,0,0-2.94-3.31,1.42,1.42,0,0,0-.6-.66,28.39,28.39,0,0,0-2.75-3.08,5,5,0,0,0-1.19-1.34,2,2,0,0,0-.92-.95,1.05,1.05,0,0,0-.11.32q0,9.73,0,19.46a.4.4,0,0,0,.11.43A.68.68,0,0,0,114,59a1.11,1.11,0,0,0,.85.86c.57.47,1.3.4,2,.58.48.13.85.32.79.9s-.53.63-1,.62L114,61.86a13.88,13.88,0,0,0-3.33,0c-.79,0-1.58,0-2.37.05-.44,0-1,.09-1-.54s.26-.89.77-1.06a5.11,5.11,0,0,0,2-.88,2.36,2.36,0,0,0,.3-.41.87.87,0,0,0,.4-.69,5,5,0,0,0,.56-2.7c0-5.92,0-11.84,0-17.76a8.17,8.17,0,0,0-1.15-4.76,2.18,2.18,0,0,0-1.08-1.2,1.53,1.53,0,0,1,0-.17c-.08-.46-.4-.49-.77-.42l-1.3-.25c-.32-.25-.87-.16-1-.67v-.6l.24-.32a7.27,7.27,0,0,1,1.62-.06.87.87,0,0,0,.64.09H109A1.33,1.33,0,0,0,109.85,29.41Z" style="fill:#fff"/><path d="M102.81,29.8v.6c-.38.3-.16.7-.18,1.06-.07,1-.14,2.08-.22,3.12L101.94,36c-.78.36-1.17,0-1.32-.74,0-.1,0-.21,0-.31-.29-2.47-.6-2.85-3.07-3.11a35.44,35.44,0,0,0-8,0,.69.69,0,0,0-.79.83c-.22,1.94-.06,3.88-.09,5.81,0,1.56,0,3.12,0,4.68,0,.58.13.93.8.92,2.08,0,4.16,0,6.24,0a2.85,2.85,0,0,0,2.75-1.54,1.36,1.36,0,0,0,.32-.86l.16-.37c.16-.38.28-.87.82-.78s.64.58.64,1c0,2.67,0,5.34,0,8,0,1-.47,1.18-1.42.61l-.16-.43-.18-.84a1.66,1.66,0,0,0-.28-.9,1.82,1.82,0,0,0-1.94-1.4c-2.32,0-4.64,0-7,0-.59,0-.78.27-.78.83,0,3.5,0,7,0,10.49a1.51,1.51,0,0,0,1.49,1.67,19.77,19.77,0,0,0,9.18-1,1.6,1.6,0,0,0,.87-.32,6.84,6.84,0,0,0,2.47-1.55,3,3,0,0,0,1.05-1c.36-.14.54-.76,1-.5s.36.85.3,1.31c-.22,1.59-1.3,2.71-2.19,3.93l-.85.8a5.18,5.18,0,0,1-3,.76c-2.1,0-4.2,0-6.29-.06a5.7,5.7,0,0,0-1.67,0,9.84,9.84,0,0,0-2.71-.06l-1.67.1-4.12.06c-.45,0-.91,0-1.16-.46,0-.14,0-.28,0-.42.41-.62,1.21-.59,1.72-1a1.12,1.12,0,0,0,.93-.59A3.29,3.29,0,0,0,84.52,57c0-3.19,0-6.38,0-9.57V35.11c0-.42,0-.83,0-1.25A2.61,2.61,0,0,0,82,31c-1.21-.26-1.39-.5-1.09-1.44l.43-.18,10.17,0a.39.39,0,0,0,.46,0h.6l.83.06h3.33l1.28-.06,4.13-.07C102.35,29.57,102.44,29.9,102.81,29.8Z" style="fill:#fff"/><path d="M141.46,34.12a13,13,0,0,0,1.39,2,1.87,1.87,0,0,0,.65.83,9,9,0,0,0,2.58,2.58,7.6,7.6,0,0,0,11.14-.94,18.68,18.68,0,0,0,2.35-4.6h.38c0,.62,0,1.24,0,1.87a1.57,1.57,0,0,0-.1.29c-.44,3.49-1.66,6.59-4.51,8.85-.5.4-.22.69,0,1a11.25,11.25,0,0,1,1.57,6.68,14.74,14.74,0,0,1-2.64,6.92l-.34-.1c.5-3.15.81-6.28-1.24-9.09A12,12,0,0,1,150,56.82a6.29,6.29,0,0,1-1.64-2,16.3,16.3,0,0,0,.88-6.64,5.2,5.2,0,0,0-1.83-3.73,20.44,20.44,0,0,1-4.62-5.56c-.6-1.56-1.26-3.09-1.71-4.7Z" style="fill:#fff"/><path d="M153.92,59.51l.34.1c4.73,1.67,9.07.78,13.11-2a3.61,3.61,0,0,0,1.25-1.05,1,1,0,0,0,.51-.5.66.66,0,0,0,.39-.41,4.74,4.74,0,0,0,1.12-1.73c.17-.4.45-.77.94-.63s.51.65.4,1.11c-.28,1.22-.58,2.43-.82,3.66a2.38,2.38,0,0,1-1.31,1.52,19.38,19.38,0,0,1-6.13,2.2l-.59.13a52.2,52.2,0,0,1-6,.39c-10.92-.3-17.68-8.64-15.74-19.46a7.4,7.4,0,0,1,1.1-3.4A14.3,14.3,0,0,0,144.9,43a2.08,2.08,0,0,1,.58,1.57,17.1,17.1,0,0,0,2.85,10.21,6.28,6.28,0,0,0,1.64,2A8.88,8.88,0,0,0,153.92,59.51Z" style="fill:#fff"/><path d="M167.37,57.58a39,39,0,0,0-2.56-4.16c-.47-.62-.81-.69-1.34,0a34.74,34.74,0,0,0-4,5.88,3.21,3.21,0,0,1,0-1.52c.54-3,1-6.1,2.48-8.86.27-.49-.1-.78-.3-1.11a14.37,14.37,0,0,1-1.42-11.34c0-.06.09-.1.13-.16a20.15,20.15,0,0,0,1.1,5.47c1.33,3.44,3.92,4.45,7.22,2.78a13.43,13.43,0,0,0,4.62-4.09c.31-.41.63-.82,1-1.22l0,0a18.71,18.71,0,0,1-1.79,4.5l-1.33,1.82h0a6,6,0,0,0-1.29,1.27l-2.65,1.8c-.27.18-.56.32-.35.72a21,21,0,0,1,1.64,5.85l0,.83c0,.16,0,.33,0,.49A3.64,3.64,0,0,1,167.37,57.58Z" style="fill:#fff"/><path d="M146.08,39.49a9,9,0,0,1-2.58-2.58l1.1-1.69a17.78,17.78,0,0,1,7.49-5.39l1.27-.35a23.5,23.5,0,0,1,9.52,0,.83.83,0,0,0,.65.14,23.74,23.74,0,0,1,5.64,2.61,1.06,1.06,0,0,0,1.16.09c.92-.45,1.24-.26,1.33.81.16,1.94.25,3.88.34,5.82,0,.45,0,1-.56,1.08s-.8-.36-1-.78a17.92,17.92,0,0,0-3.06-4.57c-3.1-3.54-7.11-4.36-11.55-3.73C150.76,31.63,147.59,34.62,146.08,39.49Z" style="fill:#fff"/><path d="M12.6,76c-.28.44-.55.88-.84,1.31-.13.2-.24.46-.54.4s-.35-.31-.41-.54c-.35-1.34-.68-2.69-1-4-.61-2.23-1-4.51-1.81-6.71-.1-.39-.47-.47-.74-.66,0-.28.1-.49.4-.5.86,0,1.73,0,2.59,0a.43.43,0,0,1,.32.21c.08.19-.06.33-.24.38-.74.23-.69.78-.54,1.35.6,2.32,1.21,4.63,1.81,6.94a1.66,1.66,0,0,0,.36,1,2,2,0,0,0,.76-1.06l1.26-2a1,1,0,0,0,.15-.79c-.42-1.5-.84-3-1.28-4.5a.82.82,0,0,0-.6-.66c-.27-.21-.7-.18-.85-.57.12-.17.26-.36.48-.33,1.1.17,2.22-.14,3.31.14-.41.6-1.16,1-.73,2a22.74,22.74,0,0,0,.7,2.31,9.9,9.9,0,0,0,1.3-2.36c.31-.67.43-1.27-.55-1.47-.25,0-.28-.27-.27-.5,1,0,2-.1,3-.13.33,0,.49.2.47.53-.4.13-.86.16-1.06.62A6.91,6.91,0,0,0,17,68.29l-.48.87-.34.59-.24.41a1.37,1.37,0,0,0-.31,1.59c.3.86.55,1.75.82,2.62a1.48,1.48,0,0,0,.36,1,3.3,3.3,0,0,0,.3-.38c.24-.41.47-.83.71-1.25A29,29,0,0,0,20,69.6a1.35,1.35,0,0,0,.4-.84,5.67,5.67,0,0,0,.84-1.93c.1-.38.13-.77-.45-.77l-.64-.23c0-.41.17-.55.55-.55.86,0,1.72,0,2.57,0s.68.32.22.73a.64.64,0,0,0-.65.41,13.47,13.47,0,0,0-2,3.36c-.67,1.2-1.26,2.45-1.88,3.68l-.22.42L17,77l-.72.75c-.5-.14-.51-.6-.64-1-.33-1-.63-2-.95-3.07,0-.23,0-.56-.26-.58s-.37.33-.46.58a4.56,4.56,0,0,0-.84,1.42C12.94,75.44,12.77,75.72,12.6,76Z" style="fill:#fff"/><path d="M54.58,8.15a5.52,5.52,0,0,0-4.71,3,8.81,8.81,0,0,0,0,8.48,4.72,4.72,0,0,0,2.4,2.35l.44.18a5.07,5.07,0,0,0,4,.12,3.19,3.19,0,0,0,1.9-1A6.51,6.51,0,0,0,60.4,19.1c.16-.24.28-.66.68-.47s.15.48.12.75a3.68,3.68,0,0,1-2.9,3.43,11.91,11.91,0,0,1-7.63,0l-.42-.21-1.06-.74L48.36,21a9.42,9.42,0,0,1-.12-10.11l.44-.62L50,8.89l.71-.51A9,9,0,0,1,60,8.49c.24.13.52.39.76.23,1-.73.86.11.88.67,0,.86,0,1.73.06,2.6,0,.33.11.73-.42.77a.13.13,0,0,0-.15-.07c-.37-.66-.39-1.46-.86-2.07a1.55,1.55,0,0,0-.85-.88A5.5,5.5,0,0,0,56,8.16,2.86,2.86,0,0,0,54.58,8.15Z" style="fill:#fff"/><path d="M149.77,22.28a5.18,5.18,0,0,1-2.09,1.1c-1.87.33-3.24-.62-3.27-2.51a8.18,8.18,0,0,1,3-6.7,3.17,3.17,0,0,1,3.21-.69c.51.18.6-.06.65-.46.18-1.59.35-3.17.56-4.75.1-.72-.41-.56-.78-.62s-.65,0-.68-.33.38-.41.67-.47c2.81-.59,2.78-.59,2.39,2.27-.42,3.16-1,6.3-1.18,9.48a14.15,14.15,0,0,0-.18,1.64c0,.53-.28,1.32.28,1.51s.79-.68,1.15-1.09c.4-.22.76-.33.7.35a3.21,3.21,0,0,1-2.2,2.28c-.8.11-1.2-.38-1.52-1,0-.21.1-.53-.2-.55S149.88,22,149.77,22.28Zm-3.89-2.43a2.13,2.13,0,0,0,1,2.14,2.07,2.07,0,0,0,2.37-.55,3.4,3.4,0,0,0,1.11-2.07c.19-1.16.35-2.33.5-3.49.07-.54.26-1.18-.28-1.54a1.94,1.94,0,0,0-2,.07,3.21,3.21,0,0,0-1.15,1A9.06,9.06,0,0,0,145.87,19.85Z" style="fill:#fff"/><path d="M69.91,70.46c.11-1.06.25-2.11.33-3.16,0-.38.15-.85-.35-1.08-.19-.22-.46-.18-.71-.22-.38-.49-.14-.73.36-.7,1.49.09,3,0,4.45,0,1.32,0,2.59.37,3.08,1.82A3.08,3.08,0,0,1,76,70.72c-.24.15-.75.27-.09.54a5.09,5.09,0,0,1,1.16.85,3.83,3.83,0,0,1-3.75,5.4c-1.42,0-2.84,0-4.26,0-.22,0-.53.1-.64-.19s.14-.42.37-.52a1.07,1.07,0,0,0,.64-1.09c0-.72.12-1.45.18-2.17l0-.42a4,4,0,0,0,.18-1.67C69.82,71.12,69.86,70.79,69.91,70.46Zm2.71,6.34a9.07,9.07,0,0,0,1.12-.16A2.52,2.52,0,0,0,75.88,74a2.4,2.4,0,0,0-2.19-2.47,12.85,12.85,0,0,0-1.54-.18c-.56,0-.9.12-.95.78-.07,1-.25,2.06-.36,3.09C70.69,76.65,70.84,76.81,72.62,76.8ZM73,70.7c1.75,0,2.55-.49,2.78-1.72.33-1.7-.72-2.87-2.58-3-.9,0-1.47.18-1.48,1.22a15.4,15.4,0,0,1-.2,1.75C71.31,70.67,71.34,70.7,73,70.7Z" style="fill:#fff"/><path d="M133.33,70.63a1,1,0,0,0,1-.71c.1-.22.19-.5.5-.39s.16.35.14.54c-.07.9-.15,1.79-.25,2.69,0,.23-.07.52-.38.52s-.29-.27-.3-.47c0-.92-.59-1.13-1.4-1.1-2.91.08-2.22-.47-2.65,2.38,0,.24,0,.49-.06.73-.31,2.07-.32,1.85,1.64,1.82a6,6,0,0,0,3.21-.68c.62-.15.86-.76,1.29-1.13a.5.5,0,0,1,.34.66,2.75,2.75,0,0,1-2.43,2q-3,0-5.93,0c-.26,0-.62.14-.74-.19s.28-.4.5-.5c.41-.2.46-.58.5-1,.34-2.79.69-5.58,1-8.37.05-.47.31-1.06-.35-1.38l-.44-.11c-.42-.27-.62-.58.06-.68a10.49,10.49,0,0,1,1.55,0c1.87,0,3.74,0,5.61-.07.8,0,1.2.18,1.07,1,0,.14,0,.28,0,.42-.06.46.22,1.19-.29,1.31s-.38-.65-.58-1a1.07,1.07,0,0,0-.57-.57,4,4,0,0,0-.7-.18c-3.77-.51-3.77-.51-4.19,3.71-.14.43-.12.79.45.78A7.58,7.58,0,0,0,133.33,70.63Z" style="fill:#fff"/><path d="M117.49,8.53a.44.44,0,0,0-.22.41.43.43,0,0,0-.19.42,11.5,11.5,0,0,0-.85,3.71c-.06.48.08.73.61.69a6.25,6.25,0,0,1,.83,0c.31,0,.56.18.57.5s-.25.5-.61.56c-.55.09-1.29-.33-1.62.3a4.78,4.78,0,0,0-.24,1.63q-.4,3.46-.79,6.92a5.37,5.37,0,0,1-.84,2.54,2.9,2.9,0,0,1-3.08,1.45l-.18-.19a2.89,2.89,0,0,1,.11-1.34c.08-.26.15-.57.48-.61s.39.32.54.53c.32.91.6.46.88,0a33.55,33.55,0,0,0,.8-5.53c.23-1.58.33-3.17.56-4.75.1-.68,0-1-.76-.92a3.26,3.26,0,0,1-.62,0,.51.51,0,0,1-.54-.52.45.45,0,0,1,.53-.5c1.71.36,1.77-.86,2-2a7.66,7.66,0,0,1,2.23-4.27,3,3,0,0,1,2.27-.86c.47,0,.81.23.81.75s.16,1.07-.34,1.33-.56-.38-.85-.58-.39-.3-.66-.23A.8.8,0,0,0,117.49,8.53Z" style="fill:#fff"/><path d="M28.14,71.66A4.43,4.43,0,0,1,29,70.28c.83-.75,1.5-.55,1.78.54,0,.16.06.32.1.5,2.08-1.73,2.78-1.88,3.92-.9l.29.82.74-.82c.91-.51,1.82-.94,2.81-.18L39,71c0,.9,0,1.81,0,2.71-.07.61-.16,1.22-.21,1.84,0,.22-.14.53.16.63s.43-.16.58-.34a4.46,4.46,0,0,0,.3-.41l.47,0-.11.75-.32.41-.34.34a6.41,6.41,0,0,1-.62.38c-.94.44-1.52.13-1.49-.92,0-1.31.2-2.63.29-3.94,0-.61.22-1.36-.61-1.56s-1.18.43-1.49,1a16.25,16.25,0,0,0-1,4.65c-.1.54-.18.94-.86.87s-.59-.62-.53-1.08c.19-1.3.42-2.6.61-3.9.1-.64.1-1.33-.65-1.57s-1.22.29-1.55.9a13.91,13.91,0,0,0-1,4.12,6.78,6.78,0,0,0-.12.82c0,.59-.36.77-.9.69s-.53-.46-.47-.86c.17-1.13.34-2.26.54-3.39a4.76,4.76,0,0,0,.07-1.55c0-.18,0-.34-.19-.39s-.41.13-.52.35l-.64.63C28.33,72.06,28.23,71.86,28.14,71.66Z" style="fill:#fff"/><path d="M166,69.9a4.05,4.05,0,0,1,3.4.77,4.68,4.68,0,0,1,.77,2,8.14,8.14,0,0,1-.95,2.87l-.45.62a4.86,4.86,0,0,1-3.45,1.43c-.41,0-.57.13-.61.5s-.13,1-.14,1.44c0,.71.58.65,1,.77.14,0,.25.12.21.3a.29.29,0,0,1-.31.22c-.93,0-1.87,0-2.8,0a.43.43,0,0,1-.31-.21c-.09-.2.09-.32.24-.38a1,1,0,0,0,.6-.89c.34-2.71.68-5.42,1-8.16-.39-.23-.87.29-1.15-.18v-.19l.62-.44c.54,0,.8-.28.82-.83a3.65,3.65,0,0,1,.34-1.6l.33-.2c.62-.13.89.08.78.74a1.5,1.5,0,0,0-.06.89C165.84,69.6,165.72,69.78,166,69.9Zm-1,5.89c-.06,1.23.1,1.38,1,1.17,2.07-.46,3.4-3.72,2.25-5.49a2.13,2.13,0,0,0-2-.94c-.45,0-.67.21-.72.69C165.41,72.83,165.18,74.44,165,75.79Z" style="fill:#fff"/><path d="M73.3,22.83a6.9,6.9,0,0,1-2.82.62,3,3,0,0,1-3-2.62,7.32,7.32,0,0,1,4-7.25,3.5,3.5,0,0,1,.4-.13,2.3,2.3,0,0,1,2.77.81,2.49,2.49,0,0,1-.77,3,7.86,7.86,0,0,1-4.27,1.43c-.62-.09-.57.29-.49.69.07,2.38,2.18,3.47,4.34,2.28.39-.22.86-.9,1.22-.43s-.41.78-.71,1.15a2.44,2.44,0,0,1-.22.22Zm0-7.57c0-.76-.47-1.08-1.22-1a2.48,2.48,0,0,0-1.69,1.1c-.56.73-1.49,1.82-1,2.38s1.79-.08,2.63-.56A2.26,2.26,0,0,0,73.25,15.26Z" style="fill:#fff"/><path d="M134.07,19.4c.17,2.39,2.26,3.44,4.4,2.23.38-.21.85-.9,1.21-.38s-.42.82-.79,1.14a3.76,3.76,0,0,1-1,.57c-1.47.6-3,.88-4.34-.2s-1.29-2.59-1-4.11c.06-.34.14-.67.22-1l.56-1.17a13.41,13.41,0,0,1,1.59-1.9,5,5,0,0,1,1.86-1.09,2.3,2.3,0,0,1,2.84.81,2.47,2.47,0,0,1-.86,3,8.17,8.17,0,0,1-4.18,1.36C133.94,18.58,134,19,134.07,19.4Zm4.2-4.16a1,1,0,0,0-1.26-1,2.71,2.71,0,0,0-1.87,1.35c-.43.67-1.27,1.56-.76,2.15s1.55,0,2.29-.4A2.44,2.44,0,0,0,138.26,15.24Z" style="fill:#fff"/><path d="M174,70.43a1.94,1.94,0,0,1,2.17-.31c.58.27,1.47-.06,2.21-.2s.79.06.65.69c-.31,1.38-.56,2.77-.84,4.16a1.92,1.92,0,0,0,0,1.37,1.9,1.9,0,0,0,.75-.88c.29-.06.6-.13.53.33a1.35,1.35,0,0,1-.26.56c-.48.67-1,1.58-1.9,1.29s-.66-1.33-.57-2.07c.15-1.23.44-2.44.65-3.67.05-.31.37-.82-.28-.87-.4,0-1-.39-1.15.4-.07.3-.18.84-.74.39-.83-.68-.91-.65-1.33.39a2.63,2.63,0,0,0-.34,1.33c0,.21,0,.42-.07.62l-.1.38c-.14.85-.31,1.7-.42,2.56-.08.6-.46.61-.9.56s-.49-.4-.42-.77c.18-1.1.37-2.19.54-3.28a2.3,2.3,0,0,0-.1-1.52c0-.32-.12-.51-.49-.39-.58.2-.4,1.11-1.11,1.19-.29-.75.2-1.36.34-2,.52-.62,1.06-1.18,1.88-.42l.49,1.11A2.41,2.41,0,0,0,174,70.43Z" style="fill:#fff"/><path d="M79.53,71.85c-.29.2-.32.74-.85.6,0-.33,0-.66.05-1a13.94,13.94,0,0,1,1-1.18,1,1,0,0,1,1.74.87c-.13,1.12-.33,2.24-.48,3.36-.05.37-.07.75-.11,1.12s-.24.58.08.7.59-.2.8-.47a10.32,10.32,0,0,0,2.86-5.09c.14-.55.33-.93,1-.79s.33.68.27,1c-.23,1.43-.54,2.86-.79,4.29-.06.32-.26.77.11,1s.67-.21.9-.5.38-.51.76-.39l.06.5v0l-.75,1-.18.1c-.58.44-1.2.94-1.95.57s-.34-1.1-.43-1.68a1.17,1.17,0,0,0,.08-1,2.5,2.5,0,0,0-.77,1,9.26,9.26,0,0,1-1.69,1.49c-.46.23-1,.51-1.45.17a1.24,1.24,0,0,1-.36-1.32c.18-1.22.42-2.44.62-3.66a5.07,5.07,0,0,0,0-.61c.08-.16.13-.36-.06-.42S79.6,71.63,79.53,71.85Z" style="fill:#fff"/><path d="M141.37,70.24l.58-.23c1.52-.54,2.59.14,2.59,1.76,0,1.17-.18,2.35-.26,3.52,0,.29-.22.67.1.86s.52-.22.75-.39.32-.45.59-.19,0,.39-.09.56a3,3,0,0,1-.9,1,1.37,1.37,0,0,1-1.35.32c-.57-.24-.5-.79-.47-1.26.08-1.31.21-2.62.31-3.93,0-.52.09-1.08-.56-1.3a1.28,1.28,0,0,0-1.55.5,5.57,5.57,0,0,0-.89,2.52c-.15.92-.31,1.84-.41,2.77-.06.58-.34.78-.89.73s-.59-.48-.52-.9c.2-1.27.41-2.53.61-3.79a4.64,4.64,0,0,0,.06-.83c0-.23.07-.52-.21-.64s-.43.14-.59.31-.25.72-.64.49-.11-.63,0-.93c.51-1.22,1.39-1.57,2.29-.93.16.31,0,.72.32,1Z" style="fill:#fff"/><path d="M95.6,21.8c.76.09,1.19-.42,1.65-.89.19-.19.43-.45.7-.22s0,.52-.12.72c-.31.41-.66.79-1,1.18l-.72.5c-.26.09-.52.2-.78.27a1.49,1.49,0,0,1-2.08-1.47,14,14,0,0,1,.24-3.2c.12-.89.24-1.78.38-2.67.09-.6.38-1.25-.67-1.31-.34,0-.36-.38-.09-.62s.44-.33.66-.49a1.71,1.71,0,0,0,1.07-.86l.09,0c.44-.29.54-1.23,1.17-1s-.08,1,.1,1.49c-.13.19-.29.38,0,.53s1,0,1.44.09a.46.46,0,0,1,.47.45.51.51,0,0,1-.48.56l-.31,0c-1.65.12-1.69.11-1.91,1.72A18.66,18.66,0,0,0,95,21.25C95,21.64,95.2,21.84,95.6,21.8Z" style="fill:#fff"/><path d="M96.77,70.66c1.08-1,1.37-1.07,2.11-.22.06.25,0,.63.19.72s.4-.25.61-.38a1.78,1.78,0,0,0,.33-.36c.25-.12.49-.26.74-.37,1.47-.63,2.62,0,2.64,1.62,0,1.24-.17,2.48-.23,3.72,0,.27-.22.67.17.82s.47-.22.65-.42a.71.71,0,0,1,.7-.34l-.15.78-.29.38-.4.43c-.18.09-.36.19-.55.28-1,.42-1.51.13-1.48-.92,0-1.35.2-2.69.3-4,0-.58.16-1.22-.62-1.45a1.34,1.34,0,0,0-1.64.75c-.79,1.32-.76,2.85-1.08,4.29-.13.57.23,1.64-.91,1.47s-.43-1.09-.41-1.66c.06-1.24.5-2.43.46-3.69,0-.3.18-.69-.23-.78s-.54.23-.61.57c-.22.2-.42.43-.75.18A3.54,3.54,0,0,1,96.77,70.66Z" style="fill:#fff"/><path d="M55.21,75.38c.55.42-.06.74-.09,1.1l-1.12,1c-1.26.14-1.55-.12-1.46-1.4s.22-2.54.34-3.81c0-.54.06-1.07-.57-1.29a1.32,1.32,0,0,0-1.62.58A4.65,4.65,0,0,0,50,73.44c-.18,1-.32,2-.49,3.07s-.34,1.15-1.46.75L48,76.87c.26-1.56.53-3.11.77-4.68,0-.31.16-.76-.26-.9s-.51.26-.68.52-.24.49-.54.31-.14-.43-.09-.66c.34-1.3,1.43-1.87,2.41-1.26l.3,1.26.86-1c.24-.13.48-.27.73-.38,1.5-.69,2.7,0,2.72,1.65,0,1.17-.11,2.35-.18,3.52-.11.33-.24.77,0,.94s.53-.28.78-.48Z" style="fill:#fff"/><path d="M81.14,16l-.25.45c-.12.21-.22.48-.52.4s-.22-.4-.2-.62a4.23,4.23,0,0,1,.77-2.11c.78-1.13,1.76-1.07,2.38.14.15.3.28.62.42.93.49-.13.64-.56.92-.84a3,3,0,0,1,1.53-1c.58-.1,1.23,0,1.35.62a1.78,1.78,0,0,1-.62,1.77c-.47.34-.48-.44-.81-.56-1-.71-1.19.15-1.47.81-.73,2-.77,4.21-1.16,6.32-.07.39,0,.83-.64.89-1,.11-1.23-.08-1.06-1.11.24-1.47.48-2.94.72-4.41A4,4,0,0,0,82.46,16c0-.4-.2-.75-.63-.76S81.24,15.64,81.14,16Z" style="fill:#fff"/><path d="M25.5,77.26a13,13,0,0,1-1.3.33A2.64,2.64,0,0,1,21,75.29a4.83,4.83,0,0,1,1.61-4.59c1.78-1.6,4-1.05,5.06,1.18,0,.14.05.27.08.41a5.75,5.75,0,0,1-1.51,4.46Zm-3.22-2.73c0,1.56.34,2.28,1.19,2.47s1.93-.49,2.43-1.82a7.17,7.17,0,0,0,.42-2.85c0-.84-.18-1.63-1.14-1.86a1.88,1.88,0,0,0-2.1,1A5.73,5.73,0,0,0,22.28,74.53Z" style="fill:#fff"/><path d="M106.51,20.34c.66-.12.63.25.45.66a4.27,4.27,0,0,1-1.6,2c-1,.64-1.79.26-1.87-.93a18.92,18.92,0,0,1,.56-4.63c.09-.51.19-1,.32-1.52.22-.84.39-1.61-.94-1.46a.4.4,0,0,1-.48-.41c0-.23.26-.31.47-.33.86-.08,1.71-.2,2.56-.35s.52.46.44.83c-.36,1.87-.74,3.73-1.12,5.6a5.79,5.79,0,0,0-.06.62c-.06.36-.29.86.08,1s.58-.35.82-.61S106.39,20.51,106.51,20.34Z" style="fill:#fff"/><path d="M125.66,18.13,125.31,20c-.06.51-.43,1.24.08,1.47s.66-.62,1-.94a.58.58,0,0,0,.1-.18c.74-.13.64.32.44.71s-.63,1-1,1.53l-1,.69c-1.19,0-1.59-.34-1.56-1.6a33.62,33.62,0,0,1,.92-5.85c.17-.81.28-1.48-.91-1.34-.25,0-.52-.09-.53-.38s.28-.36.53-.38a14.18,14.18,0,0,0,2.46-.36c.49-.13.61.18.53.61-.11.61-.24,1.22-.36,1.83l-.15.85a.87.87,0,0,0-.13.65A1.25,1.25,0,0,0,125.66,18.13Z" style="fill:#fff"/><path d="M105,75.41a7.88,7.88,0,0,1,.88-3.4,11,11,0,0,1,1.74-1.76,8.29,8.29,0,0,1,.87-.32,1.72,1.72,0,0,1,2.11.64,1.85,1.85,0,0,1-.6,2.32,4.8,4.8,0,0,1-2.79,1c-.85,0-1,.37-.74,1.1a1.24,1.24,0,0,0,.76,1.2,2.44,2.44,0,0,0,2.63-.13c.25-.14.57-.49.8-.13s-.19.54-.42.74a3.28,3.28,0,0,1-5-.43C105.14,76,105.06,75.69,105,75.41Zm2.14-2.08a3.2,3.2,0,0,0,2.15-1.21c.26-.38.44-.82.08-1.24a.91.91,0,0,0-1.23-.1,3.51,3.51,0,0,0-1.58,2.1C106.41,73.28,106.63,73.37,107.13,73.34Z" style="fill:#fff"/><path d="M40.63,75.41a7.27,7.27,0,0,1,1.06-3.68L43,70.43a8.23,8.23,0,0,1,1.44-.56,1.53,1.53,0,0,1,1.81.68,1.74,1.74,0,0,1-.26,2,7.43,7.43,0,0,1-.75.7l-.86.34a7.8,7.8,0,0,0-1.21.27c-.39.15-1.12-.27-1.15.5a1.81,1.81,0,0,0,.9,1.85,2.54,2.54,0,0,0,2.57-.16c.25-.15.57-.52.8-.18s-.19.6-.45.8a3.67,3.67,0,0,1-4.57.14Zm2.06-2.07A3.06,3.06,0,0,0,45,71.9.87.87,0,0,0,45,70.84a.85.85,0,0,0-1.05-.12,3.45,3.45,0,0,0-1.73,2.22C42,73.39,42.38,73.34,42.7,73.35Z" style="fill:#fff"/><path d="M150.82,75a7.18,7.18,0,0,1,1.08-3.27l1.26-1.3c.31-.14.6-.3.92-.42,1.39-.51,2.24,0,2.59,1.45l-.53,1.21-.51.46-.65.35a7.27,7.27,0,0,1-1.81.41c-1.18,0-1.09.59-.87,1.37a1,1,0,0,0,.36.6.73.73,0,0,0,.65.46,2.41,2.41,0,0,0,2.45-.29c.2-.13.43-.35.65-.17s-.06.48-.14.72l-.48.38c-1.49.71-3,1.15-4.39-.13A3.86,3.86,0,0,1,150.82,75Zm2.09-1.66A3.08,3.08,0,0,0,155.14,72a.87.87,0,0,0-1.19-1.26,3.67,3.67,0,0,0-1.58,2.1C152.21,73.29,152.43,73.38,152.91,73.34Z" style="fill:#fff"/><path d="M190.26,77.24a16.29,16.29,0,0,1-1.61.37,2.36,2.36,0,0,1-2.83-2.31,5.43,5.43,0,0,1,2.69-5.05,2,2,0,0,1,2.81.26c.53.86.12,1.94-1,2.7l-.34.23-.62.24-2.06.33c-.14,0-.18,0-.15.15a1.37,1.37,0,0,0,.15,1,.8.8,0,0,0,.39.74,2.78,2.78,0,0,0,3.37-.18c1,.37,0,.66,0,1ZM188,73.32a2.87,2.87,0,0,0,2.17-1.38A.89.89,0,0,0,190,70.8a.9.9,0,0,0-1.06,0,3.51,3.51,0,0,0-1.65,2.15C187.17,73.28,187.4,73.39,188,73.32Z" style="fill:#fff"/><path d="M113.54,76.89l.2,0a.9.9,0,0,0,1-.41c.5-.57.25-1.11-.13-1.59a11.31,11.31,0,0,0-1.16-1.17c-1.12-1.07-1.35-2.3-.57-3.19a2.56,2.56,0,0,1,3.46-.08l.14.58c-.41.59-.89.64-1.35.08s-.64-1-1.22-.48-.38,1,.13,1.48a2.62,2.62,0,0,0,.94.9,3.52,3.52,0,0,1,1.18,2.65,2,2,0,0,1-1.6,1.81,2.82,2.82,0,0,1-2.83-.48.71.71,0,0,1-.14-.86c.2-.39.57-.32.91-.29C112.88,76.16,112.87,76.87,113.54,76.89Z" style="fill:#fff"/><path d="M87.5,75.76a1.18,1.18,0,0,1,.8.59,1,1,0,0,0,1.65.37c.67-.43.55-1,.21-1.63a2.68,2.68,0,0,0-.92-1l-1-1.06a2.58,2.58,0,0,1-.2-2.2l.31-.46A3,3,0,0,1,91,70a1.1,1.1,0,0,1,.86.93.5.5,0,0,1-.36.56c-.53.18-.84-.11-1.1-.53s-.59-.61-1-.3a.8.8,0,0,0-.18,1.19,10.34,10.34,0,0,0,1.73,1.77l.31.38c.62,1.56.45,2.58-.53,3.21a3,3,0,0,1-3.7-.35c-.29-.31.27-.72-.13-1v0C87.13,76.19,87.29,75.76,87.5,75.76Z" style="fill:#fff"/><path d="M118.37,73c-.7-2.07.37-3.45,2.43-3.14a1.55,1.55,0,0,1,.93.41c.3.31.56.7.14,1.07a.68.68,0,0,1-1.07-.16c-.34-.45-.67-1-1.29-.47s-.19,1.14.26,1.61.9.85,1.35,1.28l.42.63a2.17,2.17,0,0,1-.38,2.76,3.1,3.1,0,0,1-3.23.43,1,1,0,0,1-.74-1,.5.5,0,0,1,.39-.54c.5-.11.76.21,1,.59a1,1,0,0,0,1.52.34,1,1,0,0,0,.39-1.52,2,2,0,0,0-.81-.92Z" style="fill:#fff"/><path d="M61.54,75.59A3,3,0,0,0,60.29,74l-.75-.73a2.15,2.15,0,0,1-.2-2.53,2.39,2.39,0,0,1,2.41-.88,1.52,1.52,0,0,1,.94.4c.34.32.53.74.14,1.08s-.81.12-1.14-.27c-.75-.87-1.07-.82-1.43.19a.83.83,0,0,0,.41.91c.5.53,1,1,1.49,1.58a2.27,2.27,0,0,1,.11,3.11,3.26,3.26,0,0,1-3.67.39A1.16,1.16,0,0,1,58.15,76l.19-.19h.81c.11.17.23.34.33.51a1,1,0,0,0,1.39.48C61.44,76.64,61.78,76.26,61.54,75.59Z" style="fill:#fff"/><path d="M181.66,73.56a9.12,9.12,0,0,1-.52-.77,2,2,0,0,1,.5-2.52,2.65,2.65,0,0,1,2.92,0c.29.29.52.67.19,1-.5.52-.93.17-1.3-.26-.13-.34-.33-.58-.74-.49-.7.16-.78.61-.54,1.19a1,1,0,0,0,.52.61c.45.48.92.94,1.33,1.44a2.35,2.35,0,0,1,.07,3.13,3.24,3.24,0,0,1-3.68.33.93.93,0,0,1-.42-.89.53.53,0,0,1,.47-.48.7.7,0,0,1,.78.4,1.09,1.09,0,0,0,1.8.44c.79-.6.4-1.29-.06-1.9a5.49,5.49,0,0,0-.68-.63Z" style="fill:#fff"/><path d="M148.69,68.59c.81-.12.54.44.45.79-.15.6-.09.92.65.83.31,0,.79-.14.81.37s-.49.5-.84.44c-.76-.12-1,.2-1.12.93-.13,1.16-.37,2.32-.5,3.48-.08.78.23,1.16,1,.73l.27-.12c.33-.16.55-.84.94-.49s-.24.66-.38,1l0,.1a9.7,9.7,0,0,1-1.21.78c-1.15.52-1.92.06-2-1.2a28.11,28.11,0,0,1,.41-3.9c.05-.5.46-1.06-.48-1.48-.61-.27.41-.52.55-.86C148,69.75,148.29,69.13,148.69,68.59Z" style="fill:#fff"/><path d="M157.29,71.46l.33-.62c.67-1.25,1.28-1.31,2.16-.21,0,.22,0,.57.26.59s.44-.34.59-.58c.63-.52,1.26-1.09,2.17-.59.27.2,0,.63.32.81v0c-.28-.13-.18.11-.21.22-.28.52-.43,1.16-1.17.27-.48-.58-.84.08-1,.51a16.35,16.35,0,0,0-.7,3.45,12,12,0,0,0-.21,1.44c0,.56-.27.81-.85.76-.74-.07-.54-.57-.47-1,.17-1.13.37-2.25.53-3.39a4.3,4.3,0,0,0,0-1c0-.28-.12-.57-.46-.6s-.38.23-.52.43-.13,1-.8.59Z" style="fill:#fff"/><path d="M94.44,77.45c-1,.21-1.33-.32-1.31-1.21a25.64,25.64,0,0,1,.67-4.4c.11-.57.3-1.13-.64-1.07-.21,0-.43-.09-.41-.36s.22-.24.39-.26L95,69.88c.72-.1.42.43.46.74l-.36,1.63a13.77,13.77,0,0,0-.55,3.26c-.11.18-.19.38,0,.51s.3,0,.37-.19l.15-.13c.2-.19.32-.66.67-.44s.06.54-.07.8c0,.09-.07.19-.1.28Z" style="fill:#fff"/><path d="M166.21,43.87a1.46,1.46,0,0,1-1.35-1.54,1.88,1.88,0,0,1,1.7-1.88A1.39,1.39,0,0,1,167.94,42,1.82,1.82,0,0,1,166.21,43.87Z" style="fill:#fff"/><path d="M151,36.48a1.74,1.74,0,0,1,1.55,1.86A1.48,1.48,0,0,1,151.18,40,1.77,1.77,0,0,1,149.56,38,1.48,1.48,0,0,1,151,36.48Z" style="fill:#fff"/><path d="M56.46,66.67c-.61-.7-.06-1.09.43-1.39s.82.13,1,.54a3.29,3.29,0,0,1-1.31,3.81c-.15.07-.31.19-.47,0s-.07-.31,0-.46l.35-.51C57,68,57.48,67.31,56.46,66.67Z" style="fill:#fff"/><path d="M127.13,9.75c-.18.56-.39,1.26-1.06,1.19s-.86-.77-.84-1.36.4-1.17,1-1.15S127,9.17,127.13,9.75Z" style="fill:#fff"/><path d="M106.94,10.37c-.32.22-.5.78-1,.55a1.39,1.39,0,0,1-.71-1.29A1.2,1.2,0,0,1,106,8.47c.78-.3.76.58,1.13.9C107,9.7,107,10,106.94,10.37Z" style="fill:#fff"/><path d="M96,67.08c-.11.49-.29,1-.79,1s-.7-.57-.7-1a.87.87,0,0,1,.77-.95C95.76,66.11,95.81,66.69,96,67.08Z" style="fill:#fff"/><path d="M179.57,67.05c-.05.49-.28,1-.74,1s-.69-.51-.73-1a.85.85,0,0,1,.7-1C179.32,66.06,179.4,66.65,179.57,67.05Z" style="fill:#fff"/><path d="M159.94,34h-.38l.22-1H160C160,33.27,160,33.61,159.94,34Z" style="fill:#fff"/><path d="M87.43,61.46" style="fill:#fff"/><path d="M160,32.93h0Z" style="fill:#fff"/><path d="M174.28,39.22l0,0Z" style="fill:#fff"/></svg>