<svg id="Layer_1" data-name="Layer 1" xmlns="http://www.w3.org/2000/svg" width="40" height="40" viewBox="0 0 40 40"><title>icon-twitter</title><path d="M37.5,0H2.5A2.5,2.5,0,0,0,0,2.5v35A2.5,2.5,0,0,0,2.5,40h35A2.5,2.5,0,0,0,40,37.5V2.5A2.5,2.5,0,0,0,37.5,0ZM29.93,15c0,.21,0,.44,0,.65A14.37,14.37,0,0,1,15.36,30,14.68,14.68,0,0,1,7.5,27.73a10.49,10.49,0,0,0,7.58-2.09,5.12,5.12,0,0,1-4.79-3.51,5.08,5.08,0,0,0,1,.09A5.32,5.32,0,0,0,12.61,22,5.07,5.07,0,0,1,8.5,17.1s0,0,0-.07a5.17,5.17,0,0,0,2.32.63,5,5,0,0,1-2.28-4.2,5,5,0,0,1,.7-2.54A14.65,14.65,0,0,0,19.8,16.2,5.18,5.18,0,0,1,19.67,15a5.08,5.08,0,0,1,5.13-5,5.16,5.16,0,0,1,3.74,1.6,10.4,10.4,0,0,0,3.26-1.22,5.05,5.05,0,0,1-2.26,2.79,10.35,10.35,0,0,0,2.95-.79A10.39,10.39,0,0,1,29.93,15Z" style="fill:#fff"/></svg>