<svg xmlns="http://www.w3.org/2000/svg" width="40" height="40"><title>icon-twitter</title><path fill="#fff" d="M37.5 0h-35A2.5 2.5 0 0 0 0 2.5v35A2.5 2.5 0 0 0 2.5 40h35a2.5 2.5 0 0 0 2.5-2.5v-35A2.5 2.5 0 0 0 37.5 0zm-7.57 15c0 .2 0 .44 0 .65A14.37 14.37 0 0 1 15.36 30a14.68 14.68 0 0 1-7.86-2.27 10.5 10.5 0 0 0 7.58-2.1 5.12 5.12 0 0 1-4.8-3.5 5.08 5.08 0 0 0 1 .1 5.32 5.32 0 0 0 1.33-.23 5.07 5.07 0 0 1-4.1-4.9s0 0 0-.07a5.17 5.17 0 0 0 2.32.63 5 5 0 0 1-2.28-4.2 5 5 0 0 1 .7-2.54A14.65 14.65 0 0 0 19.8 16.2a5.18 5.18 0 0 1-.13-1.2 5.08 5.08 0 0 1 5.13-5 5.16 5.16 0 0 1 3.74 1.6 10.4 10.4 0 0 0 3.26-1.22 5.05 5.05 0 0 1-2.26 2.8 10.35 10.35 0 0 0 2.95-.8A10.4 10.4 0 0 1 29.92 15z"/></svg>