<svg xmlns="http://www.w3.org/2000/svg" width="40" height="40"><title>icon-google-plus</title><path fill="#fff" d="M18.4 13.8c0-2-1.2-6-4.2-6-1.2 0-2.6.8-2.6 3.4 0 2.4 1.2 5.8 4 5.8a3.06 3.06 0 0 0 2.8-3.2zm-1.2 9.8h-.6a14.8 14.8 0 0 0-3.6.6 3.64 3.64 0 0 0-3 3.4c0 2.2 2 4.4 6 4.4 3 0 4.8-2 4.8-4 0-1.4-1-2.4-3.6-4.4zM36 0H4a4 4 0 0 0-4 4v32a4 4 0 0 0 4 4h32a4 4 0 0 0 4-4V4a4 4 0 0 0-4-4zM14.2 34.4c-5.6 0-8.2-3.2-8.2-6a5.27 5.27 0 0 1 3-4.8 13.37 13.37 0 0 1 6.2-1.8 2.65 2.65 0 0 1-.6-2 1.8 1.8 0 0 1 .2-1H14a6.1 6.1 0 0 1-6.4-6c0-3.4 2.6-7.2 8.2-7.2h8.4l-.6.6-1.4 1.4-.2.2h-1.4a6 6 0 0 1 1.8 4.4c0 2.8-1.4 4.2-3.2 5.4a1.68 1.68 0 0 0-.8 1.4 1.35 1.35 0 0 0 .8 1.2 4.37 4.37 0 0 0 1 .6c1.6 1.2 3.8 2.6 3.8 5.8 0 3.6-2.6 7.8-9.8 7.8zM34 20h-4v4h-2v-4h-4v-2h4v-4h2v4h4z"/></svg>