<svg id="Layer_1" data-name="Layer 1" xmlns="http://www.w3.org/2000/svg" xmlns:xlink="http://www.w3.org/1999/xlink" width="298.46" height="56.28" viewBox="0 0 298.46 56.28"><defs><clipPath id="clip-path" transform="translate(-534 -352.86)"><rect x="534" y="352.86" width="298.46" height="63.14" style="fill:none"/></clipPath></defs><title>google-bites</title><g style="clip-path:url(#clip-path)"><path d="M582.49,373.68H561.94a1.64,1.64,0,0,0-1.64,1.64v6.57a1.64,1.64,0,0,0,1.64,1.64h11.58a15.46,15.46,0,0,1-6.65,7.8l4.94,8.55a24.71,24.71,0,0,0,12.6-21.61,16.72,16.72,0,0,0-.28-3.23,1.65,1.65,0,0,0-1.62-1.36" transform="translate(-534 -352.86)" style="fill:#177de4"/><path d="M559.2,393.4a15.33,15.33,0,0,1-13.27-7.68l-8.54,4.92a25.18,25.18,0,0,0,34.41,9.24h0l-4.94-8.55a15.22,15.22,0,0,1-7.66,2.07" transform="translate(-534 -352.86)" style="fill:#12b147"/><path d="M571.8,399.88h0l-4.94-8.55a15.22,15.22,0,0,1-7.66,2.07v9.86a25.15,25.15,0,0,0,12.6-3.37" transform="translate(-534 -352.86)" style="fill:#0f983d"/><path d="M543.86,378.06a15.23,15.23,0,0,1,2.07-7.66l-8.54-4.92a25.08,25.08,0,0,0,0,25.17l8.54-4.92a15.23,15.23,0,0,1-2.07-7.66" transform="translate(-534 -352.86)" style="fill:#ffd500"/><path d="M559.2,362.72a15.27,15.27,0,0,1,9.74,3.5,1.64,1.64,0,0,0,2.2-.1l4.65-4.65a1.66,1.66,0,0,0-.1-2.42,25.14,25.14,0,0,0-38.31,6.43l8.54,4.92a15.33,15.33,0,0,1,13.27-7.68" transform="translate(-534 -352.86)" style="fill:#ff4a26"/><path d="M568.94,366.22a1.64,1.64,0,0,0,2.2-.1l4.65-4.65a1.66,1.66,0,0,0-.1-2.42,25.12,25.12,0,0,0-16.5-6.18v9.86a15.26,15.26,0,0,1,9.74,3.5" transform="translate(-534 -352.86)" style="fill:#d84021"/><path d="M818.11,386.24a3.73,3.73,0,0,0,1.14,1.33,4.88,4.88,0,0,0,1.66.76,7.83,7.83,0,0,0,2,.25,10.27,10.27,0,0,0,1.48-.11,5.18,5.18,0,0,0,1.48-.44,3.23,3.23,0,0,0,1.15-.9,2.27,2.27,0,0,0,.46-1.47,2.07,2.07,0,0,0-.61-1.55,4.83,4.83,0,0,0-1.6-1,15.89,15.89,0,0,0-2.24-.69q-1.25-.3-2.53-.66a22.44,22.44,0,0,1-2.57-.81,8.8,8.8,0,0,1-2.24-1.23,5.81,5.81,0,0,1-1.6-1.89,5.73,5.73,0,0,1-.61-2.75,6.15,6.15,0,0,1,.77-3.14,7,7,0,0,1,2-2.22,8.81,8.81,0,0,1,2.83-1.32,12,12,0,0,1,3.16-.43,14.91,14.91,0,0,1,3.54.41,8.83,8.83,0,0,1,3,1.33,6.74,6.74,0,0,1,2.09,2.35,7.22,7.22,0,0,1,.77,3.47h-5a4.17,4.17,0,0,0-.45-1.74,2.91,2.91,0,0,0-1-1.09,4.25,4.25,0,0,0-1.43-.56A8.8,8.8,0,0,0,822,372a6.11,6.11,0,0,0-1.25.13,3.35,3.35,0,0,0-1.14.46,2.84,2.84,0,0,0-.84.82,2.2,2.2,0,0,0-.33,1.25,2.11,2.11,0,0,0,.26,1.12,2.34,2.34,0,0,0,1,.79,13.11,13.11,0,0,0,2.14.72l3.57.92q.66.13,1.83.48a8.75,8.75,0,0,1,2.32,1.1,7,7,0,0,1,2,2,5.76,5.76,0,0,1,.84,3.24,7.2,7.2,0,0,1-.62,3,6.51,6.51,0,0,1-1.86,2.39,8.94,8.94,0,0,1-3.06,1.56,14.46,14.46,0,0,1-4.23.56,14.85,14.85,0,0,1-3.77-.48,9.46,9.46,0,0,1-3.23-1.5,7.39,7.39,0,0,1-2.22-2.6,7.75,7.75,0,0,1-.79-3.75h5a4.31,4.31,0,0,0,.43,2m-7-17.71v4.34H798.66v5H810v4H798.66v5.76h12.67V392H793.49v-23.5Zm-38.87,4.34v-4.34h19.25v4.34h-7V392h-5.17V372.88Zm-2,19.16H765v-23.5h5.17Zm-17-4a6.94,6.94,0,0,0,1.45-.15,3.57,3.57,0,0,0,1.22-.49,2.48,2.48,0,0,0,.84-.94,3.22,3.22,0,0,0,.31-1.51,3,3,0,0,0-1-2.58,4.36,4.36,0,0,0-2.7-.77h-5.63V388Zm.36-19.48a14.6,14.6,0,0,1,3.06.3,6.59,6.59,0,0,1,2.37,1,4.52,4.52,0,0,1,1.53,1.79,6.3,6.3,0,0,1,.54,2.76,5.15,5.15,0,0,1-.81,3,5.86,5.86,0,0,1-2.39,1.94,5.65,5.65,0,0,1,3.24,2.19,7.18,7.18,0,0,1,.38,6.84,6,6,0,0,1-1.86,2.12,8.22,8.22,0,0,1-2.67,1.22,12,12,0,0,1-3.08.4H742.48v-23.5Zm-.66,9.51a3.71,3.71,0,0,0,2.27-.66,2.49,2.49,0,0,0,.89-2.14,2.73,2.73,0,0,0-.3-1.35,2.19,2.19,0,0,0-.79-.82,3.33,3.33,0,0,0-1.14-.41,7.61,7.61,0,0,0-1.33-.11h-4.84V378Zm-22-9.51v4.34H718.49v5h11.39v4H718.49v5.76h12.67V392H713.32v-23.5Zm-31.27,0v19.16h11.45V392H694.46v-23.5Zm-15.57,23.32a8.66,8.66,0,0,1-3.39.71,12.05,12.05,0,0,1-4.86-.94,10.42,10.42,0,0,1-3.64-2.58,11.45,11.45,0,0,1-2.27-3.87,14.21,14.21,0,0,1-.79-4.79,14.7,14.7,0,0,1,.79-4.89,11.75,11.75,0,0,1,2.27-3.93,10.39,10.39,0,0,1,3.64-2.63,11.87,11.87,0,0,1,4.86-1,11.42,11.42,0,0,1,3.5.54,10,10,0,0,1,3.06,1.6,8.64,8.64,0,0,1,3.34,6.15h-4.94a5,5,0,0,0-1.78-3,5.17,5.17,0,0,0-3.19-1,6,6,0,0,0-3,.67,5.59,5.59,0,0,0-2,1.81,7.94,7.94,0,0,0-1.1,2.58,12.88,12.88,0,0,0-.35,3,12,12,0,0,0,.35,2.88,7.79,7.79,0,0,0,1.1,2.52,5.64,5.64,0,0,0,2,1.79,6,6,0,0,0,3,.67,5,5,0,0,0,5.59-5.07h-5.2v-3.85h9.87V392h-3.29l-.53-2.67a7.74,7.74,0,0,1-3.06,2.48M645,375.5a11.74,11.74,0,0,1,2.27-3.93,10.37,10.37,0,0,1,3.64-2.63,12.86,12.86,0,0,1,9.72,0,10.43,10.43,0,0,1,3.62,2.63,11.75,11.75,0,0,1,2.27,3.93,14.7,14.7,0,0,1,.79,4.89,14.21,14.21,0,0,1-.79,4.79,11.45,11.45,0,0,1-2.27,3.87,10.46,10.46,0,0,1-3.62,2.58,13.07,13.07,0,0,1-9.72,0,10.4,10.4,0,0,1-3.64-2.58,11.43,11.43,0,0,1-2.27-3.87,14.18,14.18,0,0,1-.79-4.79,14.67,14.67,0,0,1,.79-4.89m4.72,7.77a7.76,7.76,0,0,0,1.1,2.52,5.64,5.64,0,0,0,2,1.79,6.84,6.84,0,0,0,5.92,0,5.64,5.64,0,0,0,2-1.79,7.79,7.79,0,0,0,1.1-2.52,12,12,0,0,0,.35-2.88,12.88,12.88,0,0,0-.35-3,7.94,7.94,0,0,0-1.1-2.58,5.6,5.6,0,0,0-2-1.81,6.85,6.85,0,0,0-5.92,0,5.6,5.6,0,0,0-2,1.81,7.92,7.92,0,0,0-1.1,2.58,12.83,12.83,0,0,0-.35,3,11.93,11.93,0,0,0,.35,2.88M620,375.5a11.75,11.75,0,0,1,2.27-3.93,10.39,10.39,0,0,1,3.64-2.63,12.86,12.86,0,0,1,9.73,0,10.41,10.41,0,0,1,3.62,2.63,11.75,11.75,0,0,1,2.27,3.93,14.67,14.67,0,0,1,.79,4.89,14.18,14.18,0,0,1-.79,4.79,11.45,11.45,0,0,1-2.27,3.87,10.45,10.45,0,0,1-3.62,2.58,13.07,13.07,0,0,1-9.73,0,10.42,10.42,0,0,1-3.64-2.58,11.45,11.45,0,0,1-2.27-3.87,14.21,14.21,0,0,1-.79-4.79,14.7,14.7,0,0,1,.79-4.89m4.72,7.77a7.79,7.79,0,0,0,1.1,2.52,5.64,5.64,0,0,0,2,1.79,6.84,6.84,0,0,0,5.92,0,5.65,5.65,0,0,0,2-1.79,7.78,7.78,0,0,0,1.1-2.52,11.93,11.93,0,0,0,.35-2.88,12.83,12.83,0,0,0-.35-3,7.94,7.94,0,0,0-1.1-2.58,5.6,5.6,0,0,0-2-1.81,6.85,6.85,0,0,0-5.92,0,5.59,5.59,0,0,0-2,1.81,7.94,7.94,0,0,0-1.1,2.58,12.88,12.88,0,0,0-.35,3,12,12,0,0,0,.35,2.88m-14.89,8.59a8.65,8.65,0,0,1-3.39.71,12.06,12.06,0,0,1-4.85-.94A10.41,10.41,0,0,1,598,389a11.42,11.42,0,0,1-2.27-3.87,14.18,14.18,0,0,1-.79-4.79,14.67,14.67,0,0,1,.79-4.89,11.72,11.72,0,0,1,2.27-3.93,10.37,10.37,0,0,1,3.64-2.63,11.88,11.88,0,0,1,4.85-1,11.42,11.42,0,0,1,3.51.54,10,10,0,0,1,3.06,1.6,8.63,8.63,0,0,1,3.34,6.15h-4.94a5,5,0,0,0-1.78-3,5.17,5.17,0,0,0-3.19-1,6,6,0,0,0-3,.67,5.6,5.6,0,0,0-2,1.81,7.92,7.92,0,0,0-1.1,2.58,12.83,12.83,0,0,0-.35,3,11.93,11.93,0,0,0,.35,2.88,7.76,7.76,0,0,0,1.1,2.52,5.64,5.64,0,0,0,2,1.79,6,6,0,0,0,3,.67,5,5,0,0,0,5.6-5.07h-5.2v-3.85h9.87V392h-3.29l-.53-2.67a7.75,7.75,0,0,1-3.06,2.48" transform="translate(-534 -352.86)" style="fill:#3fac64"/></g><text transform="translate(61.57 53.17)" style="font-size:10.150799751281738px;fill:#231f20;font-family:CenturyGothic, Century Gothic">Presented by Millennium Marketing Solutions</text></svg>