<svg xmlns="http://www.w3.org/2000/svg" width="638.6" height="153.2" viewBox="0 0 638.6 153.2"><title>mm4-footer-logo</title><g fill="#fff"><path d="M8.1 153.1a9.75 9.75 0 0 1-8.1-3.8l3-2.7a6.75 6.75 0 0 0 5.3 2.4c2.5 0 3.6-.7 3.6-2.3 0-1.3-.7-1.9-4.6-2.8s-6.5-2.1-6.5-6.2c0-3.8 3.3-6.1 7.4-6.1a10 10 0 0 1 7.6 3.3l-3 2.9a6.1 6.1 0 0 0-4.7-2.1c-2.2 0-3 1-3 1.9 0 1.3.9 1.7 4.2 2.5s7 1.9 7 6.4c-.1 3.9-2.6 6.6-8.2 6.6zM27.2 136.1v16.7H23v-16.7h-6V132h16.1v4.1zM47.7 152.8l-3.7-7.5h-4.2v7.5h-4.2V132h9.7c3.9 0 7.2 2.2 7.2 6.6 0 3.1-1.3 5.1-4 6.1l4 8.1h-4.8zM45.3 136h-5.4v5.4h5.4c1.9 0 3-.9 3-2.7s-1.2-2.7-3-2.7zM68.8 152.8l-1.6-4.6h-7.6l-1.6 4.6h-4.5l8-20.8h4l7.9 20.8zm-4.4-12.4c-.4-1.2-.8-2.5-1-3.2-.2.8-.6 2-1 3.2l-1.3 3.8h4.8zM81.7 136.1v16.7h-4.2v-16.7h-6V132h16.1v4.1zM90.2 152.8V132h14.4v4.1H94.3v3.6h6v4h-6v5H105v4.1H90.2zM115 153.1c-5.4 0-9.1-4.2-9.1-10.7 0-6.3 3.8-10.7 9.2-10.7 4.3 0 6.5 2 7.9 5.2l-4 1.6c-.8-1.5-1.7-2.7-4-2.7-3.1 0-4.9 2.7-4.9 6.6s1.8 6.7 4.9 6.7c2.9 0 3.8-1.3 4.1-3.2h-3.3V142h7.5v2.7c.1 5.4-3.4 8.4-8.3 8.4zM135.1 144.6v8.2h-4.2v-8.1L123 132h4.8l2.9 4.9c.7 1.2 1.9 3.3 2.3 4.1.4-.8 1.5-2.8 2.3-4.1l2.9-4.9h4.7zM158.2 152.8H152V132h6.5c5.9 0 10.3 2.8 10.3 10.4 0 7.3-5.3 10.4-10.6 10.4zm.1-16.8h-2.2v12.7h2.1c4.4 0 6.4-2.6 6.4-6.4-.1-4.2-1.9-6.3-6.3-6.3zM171.5 152.8V132h14.4v4.1h-10.3v3.6h6v4h-6v5h10.7v4.1h-14.8zM196 153.1a9.75 9.75 0 0 1-8.1-3.8l3-2.7a6.75 6.75 0 0 0 5.3 2.4c2.5 0 3.6-.7 3.6-2.3 0-1.3-.7-1.9-4.6-2.8s-6.5-2.1-6.5-6.2c0-3.8 3.3-6.1 7.4-6.1a10 10 0 0 1 7.6 3.3l-3 2.9a6.1 6.1 0 0 0-4.7-2.1c-2.2 0-3 1-3 1.9 0 1.3.9 1.7 4.2 2.5s7 1.9 7 6.4c-.1 3.9-2.6 6.6-8.2 6.6zM207.3 152.8V132h4.2v20.8zM223.7 153.1c-5.4 0-9.1-4.2-9.1-10.7 0-6.3 3.8-10.7 9.2-10.7 4.3 0 6.5 2 7.9 5.2l-4 1.6c-.8-1.5-1.7-2.7-4-2.7-3.1 0-4.9 2.7-4.9 6.6s1.8 6.7 4.9 6.7c2.9 0 3.8-1.3 4.1-3.2h-3.3V142h7.5v2.7c0 5.4-3.5 8.4-8.3 8.4zM248.1 152.8l-7.6-11.4c-.5-.8-1.2-1.8-1.5-2.3 0 .8.1 3.4.1 4.5v9.2H235V132h4l7.4 11c.5.8 1.2 1.8 1.5 2.3 0-.8-.1-3.4-.1-4.5V132h4.1v20.8zM271.5 145.4h-4.6v7.4h-4.2V132h9.1c3.9 0 7.2 2.2 7.2 6.6 0 4.8-3.2 6.8-7.5 6.8zm.2-9.4h-4.8v5.4h4.8c1.9 0 3-.9 3-2.7s-1.1-2.7-3-2.7zM293.6 152.8l-3.7-7.5h-4.2v7.5h-4.2V132h9.7c3.9 0 7.2 2.2 7.2 6.6 0 3.1-1.3 5.1-4 6.1l4 8.1h-4.8zm-2.5-16.8h-5.4v5.4h5.4c1.9 0 3-.9 3-2.7s-1.2-2.7-3-2.7zM301.5 152.8V132h4.2v20.8zM323 152.8l-7.6-11.4c-.5-.8-1.2-1.8-1.5-2.3 0 .8.1 3.4.1 4.5v9.2h-4.1V132h4l7.4 11c.5.8 1.2 1.8 1.5 2.3 0-.8-.1-3.4-.1-4.5V132h4.1v20.8zM339.3 136.1v16.7h-4.2v-16.7h-6V132h16.2v4.1zM363.7 145.4h-4.6v7.4h-4.2V132h9.1c3.9 0 7.2 2.2 7.2 6.6 0 4.8-3.2 6.8-7.5 6.8zm.2-9.4h-4.8v5.4h4.8c1.9 0 3-.9 3-2.7s-1.1-2.7-3-2.7zM385.8 152.8l-3.7-7.5h-4.2v7.5h-4.2V132h9.7c3.9 0 7.2 2.2 7.2 6.6 0 3.1-1.3 5.1-4 6.1l4 8.1h-4.8zm-2.5-16.8h-5.4v5.4h5.4c1.9 0 3-.9 3-2.7s-1.2-2.7-3-2.7zM401.4 153.1c-5.7 0-9-4.4-9-10.7s3.4-10.7 9-10.7 9 4.4 9 10.7-3.4 10.7-9 10.7zm0-17.3c-3.4 0-4.8 2.9-4.8 6.6s1.4 6.6 4.8 6.6 4.8-2.9 4.8-6.6-1.5-6.6-4.8-6.6zM428.5 152.8v-7.6c0-1.1.1-3.8.1-4.6a29.85 29.85 0 0 1-1.5 3.4l-4.2 9.2-4.2-9.2c-.5-1.2-1.2-2.7-1.5-3.4 0 .8.1 3.4.1 4.6v7.6h-4.1V132h4l4.3 9.4a36.12 36.12 0 0 1 1.4 3.5c.3-.8.9-2.3 1.4-3.5l4.2-9.4h4.1v20.8zM444.4 153.1c-5.7 0-9-4.4-9-10.7s3.4-10.7 9-10.7 9 4.4 9 10.7-3.3 10.7-9 10.7zm0-17.3c-3.4 0-4.8 2.9-4.8 6.6s1.4 6.6 4.8 6.6 4.8-2.9 4.8-6.6-1.4-6.6-4.8-6.6zM481 152.8h-4.1l-2.6-10.7c-.3-1.2-.6-2.8-.7-3.6-.1.8-.4 2.3-.7 3.6l-2.6 10.7h-3.9l-4.3-20.8h4.3l1.8 10.1c.2 1 .4 2.6.5 3.4.1-.9.5-2.4.7-3.4l2.4-10.1h3.6l2.5 10.1c.2 1 .6 2.6.7 3.4.1-.9.3-2.4.5-3.4l1.8-10.1h4.3zM488 152.8V132h14.4v4.1h-10.3v3.6h6v4h-6v5h10.7v4.1H488zM515.3 152.8h-9.5V132h9.5c4 0 6.6 1.9 6.6 5.5a4.38 4.38 0 0 1-2.2 4 4.67 4.67 0 0 1 2.9 4.5c.1 4.4-2.8 6.8-7.3 6.8zm-.1-17h-5.3v4h5.5c1.7 0 2.3-.8 2.3-2s-.6-2-2.5-2zm.3 7.7H510v5.4h5.5c2 0 3-1.1 3-2.7 0-1.9-1-2.7-3-2.7zM538.8 152.8h-6.2V132h6.5c5.9 0 10.3 2.8 10.3 10.4.1 7.3-5.2 10.4-10.6 10.4zm.2-16.8h-2.2v12.7h2.1c4.4 0 6.4-2.6 6.4-6.4-.1-4.2-1.9-6.3-6.3-6.3zM552.4 152.8V132h4.2v20.8zM568.8 153.1c-5.4 0-9.1-4.2-9.1-10.7 0-6.3 3.8-10.7 9.2-10.7 4.3 0 6.5 2 7.9 5.2l-4 1.6c-.8-1.5-1.7-2.7-4-2.7-3.1 0-4.9 2.7-4.9 6.6s1.8 6.7 4.9 6.7c2.9 0 3.8-1.3 4.1-3.2h-3.3V142h7.5v2.7c0 5.4-3.5 8.4-8.3 8.4zM580.3 152.8V132h4.2v20.8zM597.4 136.1v16.7h-4.1v-16.7h-6V132h16.1v4.1zM617 152.8l-1.6-4.6h-7.6l-1.6 4.6h-4.5l8-20.8h4l7.9 20.8zm-4.4-12.4c-.4-1.2-.8-2.5-1-3.2-.2.8-.6 2-1 3.2l-1.3 3.8h4.8zM623.9 152.8V132h4.2v16.7h10.4v4.1z"/></g><g fill="#fff"><path d="M82.5 15.4l2.6.3C73.9 18.6 56 29.3 56 29.3c0-.2 11.4-9.3 26.5-13.9zM77.2 15.4H79c-9.9 3.5-14.2 6.2-14.2 6.2v-.3s3.9-2.7 12.4-5.9zM.4 96.1V39.9a24.54 24.54 0 0 1 24.5-24.5h48.6c-1.6.6-3.2 1.3-4.7 2a147.33 147.33 0 0 0-27.5 15.9C22.1 48.2 6.3 70 .4 96.1zm24.5 24.3a23.48 23.48 0 0 1-12.9-3.7 132.93 132.93 0 0 1 1.5-15.6c7.4-43.7 37.8-73 75.9-84.2a24.42 24.42 0 0 1 16.1 23v56A24.54 24.54 0 0 1 81 120.4zM79 15.4c2.1-.7 4.4-1.5 7-2.3 8.7-2.7 17.7-3.7 24.5-4.3a55.73 55.73 0 0 1 6.7-.2c-2.1.2-4.5.5-7.6.9-7 .9-16 2.4-22.6 4.5-1.7.5-3.2 1.1-4.6 1.5H79zm-5.5 0a122.1 122.1 0 0 1 18.3-5.2c9-2 14.5-2 20.2-2.4a128.16 128.16 0 0 0-25.9 4.7c-3.4 1-6.3 2-8.8 2.9zm36.1-3.7c-1 .1-5 .7-7.7 1.1-2.3.4-4.8.9-4.8.9v.2s3.5-.6 7.2-1.1a50.23 50.23 0 0 1 8-.6c-2.2.3-6 .9-10.4 1.7h-.1a124.56 124.56 0 0 0-12.4 3 21.7 21.7 0 0 0-4.2-1.1 81.3 81.3 0 0 1 8.5-2.1 142.2 142.2 0 0 1 23-3.2c.2 0-4.1.5-7.3 1-1.7.2-3.2.5-3.2.5v.1a8.87 8.87 0 0 1 1.3-.1c1-.2 2.3-.3 2.1-.3zM88.1 14.4a79.8 79.8 0 0 1 14.5-3.5 151.08 151.08 0 0 1 27.4-2 209.46 209.46 0 0 0-29.9 2.9c-9.3 1.8-12 2.6-12 2.6zM82.3 18l-6.8 2.7a42.74 42.74 0 0 1 6.9-3.2c1.9-.7 4.3-1.3 7-2.1 0 .1-5.1 1.9-7.1 2.6zM208 49.6c0-15-9.5-25.6-25.5-25.6a23.62 23.62 0 0 0-18.2 8.1c-4.1-5-10.4-8.1-18.2-8.1-15.7 0-25.8 11-25.8 25.6v33.2H135V49.2c0-6.4 4.6-10.9 11.1-10.9 9.7 0 10.7 7.7 10.7 10.9v33.5h14.7V49.2c0-6.4 4.7-10.9 11.1-10.9 9.7 0 10.8 7.7 10.8 10.9v33.5h14.7V49.6zM231.5 5.5h-14.7v13.7h14.7zm0 19.9h-14.7v57.3h14.7zM241.1 0h14.7v82.8h-14.7zM248.4 41.3"/><path d="M265.2 0h14.7v82.8h-14.7zM272.6 41.3"/><path d="M327.6 64.5h15.1c-3.3 11.7-13.5 19.6-27.7 19.6a29.62 29.62 0 0 1-29.4-29.9c0-16.6 13.1-30.1 29.4-30.1 13.8 0 25.4 8.7 28.1 24l-12.5 5.2c-.4-9.2-7.3-16.4-15.6-16.4-8.7 0-15.7 7.8-15.7 17.4s7 17.4 15.7 17.4a15.42 15.42 0 0 0 12.6-7.2zM348.7 49.6v33.2h14.7V49.2c0-6.4 4.7-10.9 11.1-10.9 9.7 0 10.8 7.7 10.8 10.9v33.5H400V49.6c0-15-9.5-25.6-25.5-25.6-15.5 0-25.8 11-25.8 25.6zM407.8 49.6v33.2h14.7V49.2c0-6.4 4.7-10.9 11.1-10.9 9.7 0 10.8 7.7 10.8 10.9v33.5h14.7V49.6c0-15-9.5-25.6-25.5-25.6-15.6 0-25.8 11-25.8 25.6zM482.6 5.5h-14.7v13.7h14.7zm0 19.9h-14.7v57.3h14.7zM542.7 58.5v-33H528V59c0 6.3-4.7 10.9-11.1 10.9-9.7 0-10.8-7.7-10.8-10.9V25.4h-14.7v33c0 15 9.5 25.6 25.5 25.6 15.6.1 25.8-11 25.8-25.5zM638.5 49.6c0-15-9.5-25.6-25.5-25.6a23.62 23.62 0 0 0-18.2 8.1c-4.1-5-10.5-8.1-18.2-8.1-15.7 0-25.8 11-25.8 25.6v33.2h14.7V49.2c0-6.4 4.6-10.9 11.1-10.9 9.7 0 10.7 7.7 10.7 10.9v33.5H602V49.2c0-6.4 4.7-10.9 11.1-10.9 9.7 0 10.8 7.7 10.8 10.9v33.5h14.7V49.6zM285.7 23.9zM298.9 47.2h44.2a27.84 27.84 0 0 1 .6 5.8 28.8 28.8 0 0 1-.4 5.9H299V47.2zM141.9 116.7v-24h-3.8l-5.3 12.8c-.6 1.4-1.3 3.1-1.6 4.1-.3-1-1.1-2.8-1.6-4.1l-5.4-12.8h-3.7v24h3.4V104c0-1.4 0-3.5-.1-4.2.3.7 1 2.4 1.5 3.8l5.8 13.5 5.8-13.5c.6-1.4 1.3-3.1 1.5-3.8 0 .7-.1 2.8-.1 4.2v12.7zM174.7 116.7l-8.8-24h-3.8l-8.7 24h3.7l2-5.7h9.6l2 5.7zm-7-9h-7.4l1.9-5.5c.6-1.8 1.5-4.5 1.8-5.6.3 1 1.2 3.8 1.8 5.5zM204.6 99.8c0-4.9-3.5-7.2-7.7-7.2h-10.6v24h3.5v-9.5h5.4l4.8 9.5h4.2l-4.9-9.8c3.3-.8 5.3-3.2 5.3-7zm-3.7.1c0 2.6-1.7 3.8-4.1 3.8h-7V96h7c2.5 0 4.1 1.4 4.1 3.9zM236 116.7l-8.6-15.3 7-8.7h-4.1l-7.1 8.9c-.8 1-2.4 3-2.8 3.6 0-.8.1-3.4.1-4.3v-8.2H217v24h3.5v-6.9l4.5-5.4 6.9 12.3zM263.4 116.7v-3.5H251v-7.6h6.9v-3.5H251v-6h11.9v-3.5h-15.5v24.1h16zM291.5 96.2v-3.6h-17.6v3.6h7v20.5h3.6V96.2h7zM303.2 92.6h3.6v24h-3.6zM338.4 116.7v-24h-3.5v18.1c-.3-.6-1.4-2.4-2-3.4l-9.1-14.7h-3.7v24h3.5V98.6c.4.6 1.2 2.1 1.8 3l9.6 15.1h3.4zM369.7 107.2v-2.8h-7.6v3.5h3.9v.1c0 2.8-1.5 5.4-5.5 5.4-4.2 0-6.5-3.4-6.5-8.8s2.3-8.8 6.5-8.8a5.12 5.12 0 0 1 5 2.9l3.2-2c-1.6-2.9-4.3-4.5-8.2-4.5-6.2 0-10.2 5.1-10.2 12.4s4 12.4 10.2 12.4c5.4 0 9.2-3.6 9.2-9.8zM414 109.8c0-4.3-3-5.8-7.7-7.2-4.2-1.2-5.3-2.1-5.3-3.7s1.2-3 4-3a7.38 7.38 0 0 1 5.6 2.3l2.5-2.6a10.62 10.62 0 0 0-7.9-3.3c-4.4 0-7.9 2.5-7.9 6.7s2.4 5.6 7.5 7.1c4 1.2 5.4 2.1 5.4 4 0 2.3-1.6 3.5-5 3.5a8.46 8.46 0 0 1-6.2-2.9l-2.6 2.5a11 11 0 0 0 8.6 3.9c6.2-.1 9-3 9-7.3zM445.3 104.6c0-7.3-3.9-12.4-10.2-12.4s-10.2 5.1-10.2 12.4 3.9 12.4 10.2 12.4 10.2-5.1 10.2-12.4zm-3.7 0c0 5.4-2.3 8.8-6.5 8.8s-6.5-3.4-6.5-8.8 2.3-8.8 6.5-8.8 6.5 3.4 6.5 8.8zM472.9 116.7v-3.6h-12V92.6h-3.6v24.1h15.6zM501.5 106.6v-14h-3.6v14.1c0 4.4-1.8 6.7-5.6 6.7-3.6 0-5.5-2.4-5.5-7V92.6h-3.6v13.9c0 6.6 3.1 10.5 9 10.5s9.3-3.6 9.3-10.4zM530.5 96.2v-3.6h-17.6v3.6h7v20.5h3.6V96.2h7zM542.3 92.6h3.6v24h-3.6zM578.4 104.6c0-7.3-3.9-12.4-10.2-12.4S558 97.3 558 104.6s3.9 12.4 10.2 12.4 10.2-5.1 10.2-12.4zm-3.6 0c0 5.4-2.3 8.8-6.5 8.8s-6.5-3.4-6.5-8.8 2.3-8.8 6.5-8.8 6.5 3.4 6.5 8.8zM608.7 116.7v-24h-3.5v18.1c-.3-.6-1.4-2.4-2-3.4l-9.1-14.7h-3.7v24h3.5V98.6c.4.6 1.2 2.1 1.8 3l9.6 15.1h3.4zM637.9 109.8c0-4.3-3-5.8-7.7-7.2-4.2-1.2-5.2-2.1-5.2-3.7s1.2-3 4-3a7.38 7.38 0 0 1 5.6 2.3l2.5-2.6a10.62 10.62 0 0 0-7.9-3.3c-4.4 0-7.9 2.5-7.9 6.7s2.4 5.6 7.5 7.1c4 1.2 5.4 2.1 5.4 4 0 2.3-1.6 3.5-5 3.5a8.46 8.46 0 0 1-6.2-2.9l-2.6 2.5a11 11 0 0 0 8.6 3.9c6.2-.1 8.9-3 8.9-7.3z"/></g></svg>